<?xml version="1.0" encoding="utf-8"?>
<!-- Generator: Adobe Illustrator 18.0.0, SVG Export Plug-In . SVG Version: 6.00 Build 0)  -->
<!DOCTYPE svg PUBLIC "-//W3C//DTD SVG 1.1//EN" "http://www.w3.org/Graphics/SVG/1.1/DTD/svg11.dtd">
<svg version="1.1" xmlns="http://www.w3.org/2000/svg" xmlns:xlink="http://www.w3.org/1999/xlink" x="0px" y="0px"
	 viewBox="106.7 40.9 1083 1413.3" enable-background="new 106.7 40.9 1083 1413.3" xml:space="preserve">
<g id="Layer_3">
	<g>
		<path fill="#FFF2DB" d="M909.4,807.9l86.8,94.4v3v3v108.4v0.7v0.7c-27.9,0.9-46.7,5.9-46.7,10.5c0,5,22.9,10.6,55.8,10.6
			c32.9,0,55.8-5.6,55.8-10.6c0-4.5-18.8-9.6-46.7-10.5v-0.7v-0.7V908.3v-3v-3l86.8-94.4c2.6-1.3,4-2.7,4-4.3v0
			c-0.2-13.3-95.8-13.4-99.9-13.4c-4.1,0-99.7,0.2-99.8,13.4l0,0C905.3,805.2,906.8,806.6,909.4,807.9 M913.5,801.4
			c8.4-5.1,46.3-8.9,91.7-8.9c45.5,0,83.3,3.8,91.8,8.9c1.1,0.7,1.7,1.4,1.7,2.1c0,0.7-0.6,1.4-1.8,2.1c-8.4,5.1-46.3,8.9-91.7,8.9
			c-45.5,0-83.3-3.8-91.7-8.9c-1.1-0.7-1.8-1.4-1.8-2.1C911.7,802.8,912.3,802.1,913.5,801.4"/>
	</g>
	<g>
		<path fill="#FFF2DB" d="M656.5,1194.4c-2.3-6.7-3.6-13.8-3.6-21.3c0-36.2,29.5-65.7,65.7-65.7c36.2,0,65.7,29.5,65.7,65.7
			c0,36.2-29.5,65.7-65.7,65.7c-7,0-13.7-1.1-20.1-3.2l-9.7,9.8c9.2,3.8,19.3,5.9,29.8,5.9c43.1,0,78.2-35.1,78.2-78.2
			c0-43.1-35.1-78.2-78.2-78.2c-43.1,0-78.2,35.1-78.2,78.2c0,11,2.3,21.5,6.4,31L656.5,1194.4"/>
		<polyline fill="#FFF2DB" points="590.7,1366.6 671.9,1285.3 672.6,1271.5 620.1,1219 607.4,1219.9 525.2,1302 524.3,1317.1 
			575.5,1368.3 590.7,1366.6 		"/>
		<path fill="#FFF2DB" d="M575.5,1388.5c3.7,3.7,9.6,3.7,13.3,0l105.9-105.3c3.7-3.7,3.7-9.6,0-13.3l-15.2-15.2l-1.6-1.7l-1.7-1.7
			l8-7.9l9.4-9.5l5.1-5.1c1.9-1.9,1.9-4.8,0-6.7l-28.3-28.3c-0.9-1-2.1-1.4-3.3-1.4c-1.2,0-2.4,0.4-3.3,1.4l-5.5,5.4l-9.4,9.4
			l-7.7,7.7l-1.7-1.7l-1.6-1.6l-14.9-14.9c-3.7-3.7-9.6-3.7-13.3,0l-105.9,105.4c-3.6,3.7-3.6,9.6,0,13.3L575.5,1388.5 M520.7,1300
			l84.6-84.6l16.6-1.2l8.7,8.7l2.3,2.3l34.6,34.6l2.3,2.3l7.7,7.7l-0.9,17.7l-83.7,83.7l-19,2.2l-54.3-54.3L520.7,1300"/>
	</g>
	<g>
		<path fill="#FFF2DB" d="M291.2,1104.3c-1.9,0-3.5,1.6-3.5,3.5v18.9h2.4c1.5,0,3,0,4.6,0.1v-19
			C294.7,1105.9,293.1,1104.3,291.2,1104.3"/>
		<path fill="#FFF2DB" d="M293.5,1381.1V1249l-2,0c-1.7,0-3.3,0.1-5,0.2v132c0,25-13.6,38.1-27.2,38.1c-6.8,0-13.1-3.2-17.9-9
			c-5.6-6.9-8.6-16.9-8.6-29.1c0-1.9-1.6-3.5-3.5-3.5c-1.9,0-3.5,1.5-3.5,3.5c0,31,17.3,45.1,33.4,45.1
			C276.3,1426.2,293.5,1410.7,293.5,1381.1"/>
		<path fill="#FFF2DB" d="M293.7,1132.3l-0.6-0.3c-0.8,0-1.7,0-2.5,0l-1.4,0.8c-10.9,6.3-65.2,42.1-60.4,134
			c17.7-14.2,37.9-22.1,58.8-22.9c1.3,0,2.5-0.1,3.8-0.1l0.8,0c22.1,0.2,43.6,8.2,62.6,23.2C359.9,1172.4,302.5,1137.1,293.7,1132.3
			"/>
		<path fill="#FFF2DB" d="M280.5,1132.1c-81.5,3.6-132.8,73-139.9,113.7c6.5-1.5,13.4-2.2,20.5-2.2c22.7,0,44.7,8,62.5,22.5
			C219.6,1183.7,261.9,1145,280.5,1132.1"/>
		<path fill="#FFF2DB" d="M303.9,1132.6c18.8,13.3,60,51.8,56.3,132.9c16.6-14.6,37-22,60.5-22c8.3,0,15.5,0.9,20.6,1.6
			C413.5,1154.7,343.9,1135.7,303.9,1132.6"/>
	</g>
	<g>
		<path fill="#FFF2DB" d="M1061.8,1248.1c3.7,5,9.3,6.2,13.4,6.4c11,0.4,24.1-6.4,32-16.4c10.4-13.3,11.1-34.2,11.7-51.1
			c0-1.5,0.1-3,0.1-4.4c0.3-7-0.9-12.1-2.9-15.9c-0.2,28.2-2.1,61.7-20.5,74.3c-4.7,3.2-10.2,4.8-16.6,4.8c-5.2,0-10.9-1.1-17-3.2
			C1061.9,1244.4,1061.9,1246.3,1061.8,1248.1"/>
		<path fill="#FFF2DB" d="M910.4,1124.9c0.9,0.7,2.3,1.4,4.3,2.2c1.3,0.5,3,1.1,4.9,1.7c0.2-1.3,1.8-3.9,19.5-6.1
			c12.5-1.5,29-2.4,46.5-2.4c17.6,0,34.1,0.8,46.5,2.4c17.9,2.2,19.3,4.8,19.5,6.1c1.9-0.6,3.6-1.1,5-1.7c1.9-0.8,3.3-1.6,4.2-2.2
			c1.2-0.9,1.7-1.6,1.7-2.1v0c0-1.6-4.5-5.4-21.5-8.5c-14.8-2.8-34.5-4.3-55.4-4.3c-20.9,0-40.5,1.5-55.3,4.3
			c-17,3.2-21.4,7-21.4,8.5v0C908.8,1123.3,909.2,1124,910.4,1124.9"/>
		<path fill="#FFF2DB" d="M932.1,1130.7c2.5,0.4,6.2,0.9,11.7,1.3c11.1,0.9,26,1.4,41.7,1.4c15.8,0,30.6-0.5,41.7-1.4
			c5.5-0.4,9.2-0.9,11.7-1.3c1.5-0.3,2.5-0.5,3.2-0.7l1.3-0.7c0-0.5-3.4-1.7-16.2-2.7c-11.1-0.9-26-1.4-41.7-1.4
			c-15.8,0-30.6,0.5-41.7,1.4c-12.8,1-16.2,2.2-16.2,2.7l1.3,0.7C929.6,1130.2,930.6,1130.4,932.1,1130.7"/>
		<path fill="#FFF2DB" d="M909,1130.7l0.1,1.6c1.3,1.8,6.7,5,21.2,7.7c14.8,2.8,34.4,4.3,55.3,4.3c20.9,0,40.6-1.5,55.4-4.3
			c14.5-2.7,19.9-5.9,21.2-7.7l0.1-1.6l-1.4-1.4c-13.6,7.3-49.4,10.1-75.1,10.1c-25.8,0-61.6-2.8-75.1-10.1L909,1130.7"/>
		<path fill="#FFF2DB" d="M985.5,1400.3l0,1.9l0.1-1.9c19.1,0.6,49.2-11.8,49.7-20.4c0.2-4.2,0.5-9,0.8-14
			c-13.8,10.1-31.4,16.1-50.6,16.1c-19.1,0-36.8-6-50.6-16.1c0.3,5,0.6,9.8,0.9,14C936.2,1388.5,966.5,1401,985.5,1400.3"/>
		<path fill="#FFF2DB" d="M985.6,1378.1c19.6,0,37.4-6.5,51-17.3c1.1-14.3,2.5-29.3,3.2-36.9c-1,0.9-2.1,1.7-3.1,2.6
			c-13.8,10.7-31.3,16.8-48.3,16.8c-1,0-1.9,0-2.8-0.1c-0.9,0-1.9,0.1-2.8,0.1c-17,0-34.5-6-48.3-16.8c-1.1-0.9-2.1-1.7-3.2-2.6
			c0.7,7.6,2.1,22.6,3.3,36.9C948.2,1371.6,966,1378.1,985.6,1378.1"/>
		<path fill="#FFF2DB" d="M914.6,1283.3c0.1,1.6,0.2,3,0.2,4.1c1.4,24.8,33.2,53.4,70.6,51.9l0.1,1.9l0.1-1.9
			c37.4,1.5,69.2-27.1,70.7-51.9c0-1.2,0.1-2.6,0.2-4.1c0.1-2.2,0.3-4.7,0.4-7.5c1.5-32.7,4-107,5.1-138.5
			c-12.5,7.8-49.7,10.8-76.4,10.8c-26.6,0-63.8-3-76.3-10.8c1,31.5,3.6,105.8,5.1,138.5C914.4,1278.6,914.5,1281.2,914.6,1283.3"/>
		<path fill="#FFF2DB" d="M1102.2,1153.1c2.8,0.4,6.1,1.4,9.3,3.3c1.6,1,3.2,2.2,4.6,3.7c4.2,4.4,7.2,11.5,6.8,22.6
			c-0.1,1.4-0.1,2.9-0.2,4.4c-0.6,17.4-1.4,39-12.5,53.3c-8.5,10.8-22.1,17.9-34.1,17.9l-1,0c-5.4-0.2-10.1-1.8-13.5-4.8
			c-0.2,5.6-0.5,10.9-0.6,15.5c6.9,0.6,20,0.2,32.5-4.7c17.7-7,28.7-20.7,32.8-40.6c10.7-52.8,9.5-61.2-11-75.2
			c-0.8-0.6-2.4-1.7-2.3-3.4c0.1-1.6,1.6-2.3,2.8-2.8c1.3-0.7,2.8-1.4,3.4-2.9l0-0.1c-1.2-1.7-11.6-1.6-18.4-1.6c-1.3,0-2.6,0-3.9,0
			h-31.2c-0.3,7.1-0.6,16.4-0.9,26.9c2.8-2.8,6.9-5.5,11.7-7.6C1085.2,1153.1,1094.5,1151.8,1102.2,1153.1"/>
	</g>
	<g>
		<path fill="#FFF2DB" d="M404.8,232.3c-10.8-7.7-18.5-11.5-26.6-15.5c-11.9-5.8-25.4-12.5-52.4-33.1c-27-20.6-36.9-31.9-45.7-41.8
			c-6-6.8-11.6-13.2-21.9-21.6c-35.5-28.9-61-37.8-66.3-37.8l-0.5,0c-1.9,0.3-3.1,1.7-14.1,16c-1.3,1.8-1,3.7-0.5,6
			c0.4,2.3,1,5.2,0.1,8.9c-0.6,2.4-2.9,5.7-5.1,8.9c-1.2,1.7-2.4,3.4-3.3,4.9c-17.1,28.6-36.3,60.9,9.7,96.8
			c12,9.3,30.9,19.3,48,19.3c4.9,0,9.4-0.8,13.5-2.4c16.2-6.3,33.9-18.7,43-25.7c2.3-1.7,4.4-3.5,6.3-5.1c4.5-3.9,8.1-6.9,12-6.9
			c2.3,0,4.7,1,7.4,3.2c8.1,5.8,5.7,11.1,1.6,19.8c-1,2.2-2.2,4.6-3.3,7.4c-4.3,10.6-11.7,30.9-13.4,48.2
			c-2.1,21,16.2,42.7,32.5,54.9c15,11.2,28.6,16.7,41.5,16.7c22.8,0,39.5-17.4,54.3-32.7c1.3-1.4,2.6-3,3.9-4.6
			c2.5-3,5.1-6.1,7.3-7.3c3.3-1.8,6.2-2,8.6-2.2c2.4-0.2,4.3-0.3,5.7-2.1c10.9-14.4,12-15.9,11.8-17.8
			C458.3,282.9,444.1,260.4,404.8,232.3 M292.6,187.9L292.6,187.9c-0.5,1.2-1,2.3-1.7,3.4l0,0l-1.1,1.7c-3.2,4-32.6,39.1-69.2,39.1
			c-14.5,0-28.2-5.5-40.8-16.5c-11.2-9.7-18-18.8-20.7-28.6l0-0.3c-0.3-1.2-0.6-2.4-0.8-3.6l-0.1-1.1c-0.1-0.9-0.2-1.9-0.3-2.9
			l0-1.7l0-2.4l0.2-1.9l0.3-2.4l0.3-1.6c0.2-1,0.4-2,0.6-3.1l0.1-0.6c1.4-5.7,3.9-11.8,7.4-18.5c6.4-12.1,19.6-37.4,39.9-40.1
			c12-1.6,23.7,6.9,44.8,23.1c18.8,14.8,40.6,33.9,42.4,50C293.9,182.8,293.5,185.5,292.6,187.9 M403,327.7
			c-13.3,12.3-24.5,17.9-36.3,17.9c-10.1,0-20.7-4-33.4-12.6c-1.8-1.2-3.5-2.5-5.2-3.8l-1.1-0.9c-3.3-2.7-6.2-5.6-8.7-8.6l-0.6-0.8
			c-2.1-2.6-4-5.3-5.6-8.1c-0.7-1.2-1.3-2.4-1.8-3.6l0,0c-2.2-4.5-3.8-9.3-4.7-14.4c-6.1-33.8,18-68.2,20.7-72
			c3.6-4.9,8.6-7.4,15.1-7.4c15.9,0,38.2,15,55.8,28c20.7,15.7,32.5,25.2,34.1,37.2C434,298.9,413.1,318.4,403,327.7"/>
	</g>
	<g>
		<path fill="#FFF2DB" d="M364.2,816.4l-1.2-1.5l-0.4-0.5l-0.8-1c-2.1-2.3-4.4-4.5-7.1-6.7l0.4-1.4c4.2-14.5,10.5-36.4-14.6-46.2
			c-0.5-0.2-13.5-5.3-39-6.8c-6.2-0.4-11.2-0.6-15.4-0.6c-17.9,0-21.2,5.4-26.7,22.1c-0.7,2.2-1.4,4.4-2.2,6.7
			c-23.4,2.1-37.6,14.3-44.7,38c-2.6-0.4-5.4-0.6-8.3-0.6c-16.5,0-32.4,6.8-35.5,8.2l-0.1,0.1c-15.8,5.6-26.9,15.3-32.2,28.1
			c-5.3,12.7-4.4,28,2.3,42.1c1.9,4,8.5,12.1,16.8,22.4c7.4,9.1,14.9,18.4,18.6,24.1c0,4.8-6.6,29.8-16.6,57.6
			c-0.7,2-1.4,3.9-2.1,5.7c-7.6,20.2,4.7,25.8,16.7,31.2c2.4,1.1,4.8,2.2,7.3,3.4c21.8,10.9,91.8,38.9,107.1,38.9h0.5
			c13.4-0.5,69-26.2,79.3-40.4c13.2,7.4,48.5-1.4,45.9-46.6c-3-51.2,5-42.3,15.4-69c10.5-26.7,5-62.4-9.5-85.8
			C405.7,817.6,379.6,815.2,364.2,816.4 M364.8,1036.8l-0.6,0.8c-9.6,13.2-64.6,38.8-77.3,39.3l-0.4,0c-14.7,0-84.5-27.9-105.9-38.6
			c-2.6-1.3-5.1-2.4-7.4-3.5c-12.3-5.6-22-10-15.3-27.8c0.7-1.8,1.4-3.7,2.1-5.7c9.5-26.3,17.5-54.7,16.7-59.4l-0.2-0.2
			c-3.6-5.8-11.4-15.4-18.9-24.7c-7.9-9.8-14.7-18.2-16.5-21.9c-6.4-13.3-7.3-27.9-2.3-39.9c5-12.1,15.7-21.3,30.8-26.6l0.2-0.1
			c2.8-1.3,18.5-8,34.4-8c3.4,0,6.9,0.3,10.3,1.1c6.7-24.9,20.7-36.9,44.8-38.6c1.1-3.1,2-5.9,2.8-8.4c5.4-16.3,7.9-20.3,24.1-20.3
			c4.1,0,9.1,0.3,15.2,0.6c25.1,1.5,37.7,6.4,38.2,6.6c22.8,8.9,17.1,28.6,13,43c-0.3,1.1-0.6,2.1-0.9,3.2c2.9,2.3,5.7,4.8,8.2,7.5
			l1.2,1.4c3,3.5,5.7,7.3,7.9,11.3l0.8,1.6c18.2,35,4,80.3-3.1,98.3c-15.3,39.2-8.9,61.6-4.1,77.9l0.3,1.2
			c2.3,7.9,4.2,14.7,3.8,21.6l0,0.2c-0.2,2.6-0.7,5.1-1.6,7.5L364.8,1036.8 M398.8,979.1c4,33.2-13.1,49.7-29.5,49.8l0-0.2
			c0.4-7.4-1.6-14.4-3.9-22.5l-0.4-1.2c-4.6-15.9-11-37.8,4.1-76.1c7-17.9,21.2-63,3.9-98.8c13.3,2.7,36.3,13.7,42.3,59.5
			C419.7,923.6,392.8,930,398.8,979.1"/>
		<path fill="#FFF2DB" d="M317.5,1043c-2.8,1.4-5.4,2.4-8,3.4c-7.1,2.7-14.3,4.5-21.2,5.1c-1.8,0.2-3.6,0.2-5.5,0.2
			c-9.8,0-21.8-2.2-35.9-6.6c-26.9-8.4-54.3-22.5-68.2-30.2c-6.4-3.5-11.5-6.5-14.8-8.6c-0.3,0.8-0.6,1.7-0.9,2.5
			c-4.9,13.1,0.1,15.4,12.5,21c2.4,1.1,5,2.2,7.6,3.6c0.7,0.3,1.5,0.7,2.2,1.1l2.2,1l0.3,0.2c1.6,0.7,3.4,1.5,5.2,2.4l0.5,0.2
			c1.8,0.8,3.8,1.7,5.9,2.6l0.6,0.3c3.4,1.4,7,3,10.7,4.5l0,0c2.5,1,5.1,2.1,7.7,3.1l0.1,0c1.2,0.5,2.5,1,3.8,1.5l0.2,0.1
			c1.3,0.5,2.6,1,3.9,1.5l0.1,0.1c1.2,0.5,2.3,0.9,3.5,1.4l0.5,0.2c1.2,0.5,2.3,0.9,3.5,1.4l0.5,0.2c1.2,0.4,2.3,0.9,3.5,1.3
			l0.5,0.2c1.1,0.4,2.3,0.8,3.4,1.3l0.6,0.2c1.1,0.4,2.2,0.8,3.3,1.2l0.6,0.2c1.1,0.4,2.1,0.8,3.1,1.1l0.8,0.3c1,0.3,1.9,0.7,2.9,1
			l1,0.3c0.9,0.3,1.8,0.6,2.7,1l1,0.3c0.8,0.3,1.7,0.6,2.5,0.9l1.1,0.4l2.2,0.7l1.2,0.4l2.1,0.7l1.2,0.4l1.9,0.6l1.2,0.4l1.7,0.5
			l1.2,0.3l1.6,0.4l1.1,0.3l1.4,0.3l1.1,0.3l1.2,0.3l1,0.2l1,0.2l0.9,0.1l0.8,0.1l0.8,0.1l0.7,0.1l0.5,0h0.2
			c12.2-0.5,66.5-27,73.3-37.3c0.7-1.9,1.1-3.9,1.2-6c0.3-5-0.9-10.3-2.6-16.3C352.3,1018.8,337.4,1033.4,317.5,1043"/>
		<path fill="#FFF2DB" d="M190.6,945.6l0.5-0.9l0.2-0.2l0.5-0.4l0.3-0.2l0.5-0.2l0.4-0.1l0.3,0l0.6,0l65.7,14.9
			c1.3,0.3,2.2,1.5,2.1,2.9c-0.2,2.4-5.5,58.4-10.7,79.3c1.7,0.5,3.4,1,5.1,1.4l1.6,0.4c1.1,0.3,2.3,0.6,3.4,0.8l1.7,0.4
			c1,0.2,2,0.4,3,0.7l1.7,0.3c1,0.2,2,0.3,3,0.5l1.4,0.3c1.3,0.2,2.6,0.3,3.9,0.5l0.2,0c1.3,0.1,2.6,0.2,3.9,0.3l1.2,0l1.8,0.1
			l0.5,0c1.5,0,3-0.1,4.4-0.2c5.9-0.6,11.9-2,17.8-4.1c7.3-79.2-15.9-154.3-59-191.6c-1.2-1-2.4-2-3.6-2.9l-1.1-0.9
			c-0.9-0.7-1.8-1.3-2.6-2l-1.1-0.8c-1-0.7-2.1-1.4-3.1-2.1l-0.6-0.4c-1.2-0.8-2.5-1.5-3.7-2.2l-1-0.5c-0.9-0.5-1.9-1-2.8-1.5
			l-1.2-0.6c-1-0.5-2-0.9-2.9-1.3l-0.9-0.4c-1.3-0.5-2.5-1-3.8-1.4l-0.8-0.3c-1.1-0.3-2.1-0.7-3.1-1l-1.2-0.4
			c-1-0.2-1.9-0.5-2.9-0.7l-1.1-0.2c-1.3-0.3-2.6-0.6-3.9-0.7l-0.4,0c-1.2-0.2-2.4-0.3-3.5-0.4l-1.2-0.1c-1-0.1-1.9-0.1-2.9-0.2
			l-1.2,0h-0.7l-1.9,0.1l-1.8,0c-0.9,0-1.7,0.1-2.6,0.2l-1.6,0.2c-0.9,0.1-1.9,0.3-2.8,0.4l-1.4,0.2c-1.4,0.2-2.8,0.5-4.2,0.9
			c-2.8,0.7-5.2,1.4-7.3,2.1l0,0l-0.2,0.1c-13.7,4.8-23.3,13-27.7,23.6c-4.4,10.6-3.6,23.5,2.2,35.5c1.5,3.2,8.8,12.1,15.8,20.8
			c7.5,9.2,15.2,18.7,19.1,24.8c1.6,1.3,2.7,4.3-3.3,25.9c-3.1,10.9-7.5,24.8-11.8,36.8c2.2,1.4,6.1,3.8,11.7,7
			C179.3,989.2,190.2,947.5,190.6,945.6 M214,869.5l0.9-0.7l0.1-0.1l1-0.2l0.1,0l0.3,0c0.9,0.1,1.7,0.7,2.1,1.5
			c3,5.9,9.2,20.1,11.7,32c0.3,1.2-0.3,2.4-1.3,2.9c-0.9,0.5-21.6,11.7-43.1,11.7c-2.6,0-5-0.1-7.4-0.5l-1.7-1
			c-4.3-5.2-9-14.5-13.9-27.6c-0.3-0.8-0.2-1.7,0.3-2.5c0.5-0.7,1.3-1.1,2.1-1.2C178.4,883.4,207.4,877.9,214,869.5"/>
		<path fill="#FFF2DB" d="M268.4,783l1.9,0c1.8,0.1,3.6,0.2,5.5,0.4c1.2-7.1,4.6-20.9,12.2-20.9l0.6,0.1l43.9,9l1.4,0.8
			c0.6,0.7,5.6,6.9,1.2,25.4c4.2,1.9,8.3,4.1,12,6.6l0.3-1.3c4.2-14.4,8.5-29.3-9.7-36.4c-0.1,0-12.4-4.8-36.5-6.2
			c-1.5-0.1-3-0.2-4.4-0.3l-0.4,0c-1.3-0.1-2.6-0.1-3.7-0.2l-0.5,0c-1.1,0-2.2-0.1-3.2-0.1l-0.5,0c-1,0-1.9,0-2.8,0l-0.2,0l-0.2,0
			l-2.1,0H283l-1.6,0.1l-0.4,0l-1.6,0.2l-0.2,0.1l-1.2,0.2l-0.3,0.1l-1.2,0.4l-0.2,0.1l-1,0.5l-0.2,0.1l-0.9,0.6l-0.2,0.1l-0.7,0.7
			l-0.1,0.1l-0.8,0.9l-0.2,0.2l-0.6,0.9l-0.1,0.2l-0.7,1.2l-0.1,0.3l-0.6,1.2l-0.1,0.2l-0.6,1.5l-0.2,0.4l-0.6,1.6l-0.1,0.1l-0.7,2
			l-0.2,0.6l-0.7,2c-0.7,2-1.4,4.1-2.2,6.5h0.2C266.2,782.9,267.4,782.9,268.4,783"/>
		<path fill="#FFF2DB" d="M330.8,801.8c-2-0.9-4.3-1.7-6.5-2.5c7.9,6.7,13.4,15.3,16.6,25.7c9.7,32.3-7,76.7-26.8,104.7
			c9.4,39.5,6.5,79.2,5,98.5c-0.2,3.3-0.4,6.1-0.6,8.2c20.1-10.6,34.6-26.4,38.2-30.5c-4.6-16.1-10.8-40.1,4.7-79.9
			c6.9-17.6,20.9-62.1,2.6-95.3c-2.3-4.2-5.1-8.1-8.3-11.7c-2.6-2.9-5.6-5.6-8.8-8C342.2,807.3,336.7,804.2,330.8,801.8"/>
		<path fill="#FFF2DB" d="M308.6,929.7c-0.8-3.4-1.8-6.8-2.8-10.2l-0.3-0.9c-12.8-41.4-38.2-70.2-75.4-85.9
			c6.8,3.5,13.5,8,19.9,13.5c44,38,67.8,113.7,61.1,193.6l2.4-1.1l-0.3-1.3c0.1-2.4,0.3-5.6,0.6-9.8
			C315.3,1007.1,318.2,968.8,308.6,929.7"/>
		<path fill="#FFF2DB" d="M308.9,911.7c21.5-38.8,26.2-69.5,14.1-91.4c-13.2-24-43.8-31.4-59.8-32H263c-24.3,0.6-37,10.8-43.4,34.9
			C263.5,837.3,293.6,867.1,308.9,911.7 M320.7,821.6c11,20,7.2,48.1-11.3,83.5c-15.9-41.4-45-69.6-86.5-83.7
			c6.3-21.1,18.1-29.9,40.2-30.4h0.2C278.6,791.5,308,798.6,320.7,821.6"/>
		<path fill="#FFF2DB" d="M182.7,1011.1c13.6,7.4,38.4,20,63.2,28.1c4.5-18.4,9.2-64.9,10.2-75.8l-60.8-13.8
			C192.7,959.5,183.4,996.5,182.7,1011.1"/>
		<path fill="#FFF2DB" d="M327.8,817.7c13.5,24.5,7.9,58.5-16.6,101c0.4,1.4,0.7,2.7,1.1,4.1c17.9-27.1,32.1-67,23.4-96.3
			c-4.6-15.4-15.2-26.4-31.5-32.7c-0.8-0.2-1.5-0.3-2.3-0.5C312.1,798.7,321.6,806.5,327.8,817.7"/>
		<path fill="#FFF2DB" d="M320.4,792.4c3.3,0.9,6.5,2,9.6,3.2c2.8-11.9,1.1-17.4,0.2-19.1l-42.4-8.7c-1.4,0.3-4.7,5.1-6.6,16.1
			c7.4,0.9,15.5,2.4,24.6,4.6C310.3,789.7,315.1,790.9,320.4,792.4 M328.2,778.9c0.5,2,1.1,6-0.2,13.2c-2.4-0.9-4.7-1.6-6.9-2.2
			c-5.3-1.5-10.1-2.7-14.7-3.8c-8-1.9-15.2-3.4-22.1-4.3c1.4-6.5,3.2-9.8,4.1-10.9L328.2,778.9"/>
		<path fill="#FFF2DB" d="M185.9,911.2c16.6,0,33.3-7.5,38.7-10.1c-2.2-9.2-6.5-19.5-9.2-25.4c-10.4,8.2-34.3,12.3-46.1,13.3
			c3.9,10,7.7,17.5,11,21.9C182.1,911.1,183.9,911.2,185.9,911.2"/>
	</g>
	<g>
		<path fill="#FFF2DB" d="M644.1,1029.6c60.7,0,110-49.4,110-110c0-60.7-49.3-110-110-110c-60.7,0-110,49.4-110,110
			C534.1,980.3,583.4,1029.6,644.1,1029.6 M722,985.7c-0.5,0.3-1,0.6-1.6,0.8c0.4-1.8,2.2-2.1,3.3-3.3c2.3-2.5,3.5-5.7,5.2-8.9
			l0.5,0.9c-0.3,0.8-0.7,1.5-1,2.3C726.7,980.8,725,983.9,722,985.7 M716.1,992.1c-0.8,1.5-1.7,2.8-2.8,4c-1.8,1.7-3.7,3.3-5.7,4.8
			c-0.6,0.4-1.2,0.7-1.8,1c0.3-0.9,0.8-1.5,1.4-2l0.5-0.4c1.1-0.8,2.4-1.4,3.3-2.2c0.8-0.8,1.6-1.6,2.2-2.4c0.8-1,1.5-2,2-3.2
			L716.1,992.1L716.1,992.1 M700.6,1005.7l-0.6,0.7c-3,2-6.1,3.8-9.4,5.5c1.1-1.3,2.9-2,4.3-2.9
			C696.7,1007.9,698.5,1006.4,700.6,1005.7 M666.8,1019.8l-0.7,1c-2,0.4-4,0.8-6,1.2C662.2,1021.2,664.7,1020.7,666.8,1019.8
			 M656.5,1021.2c-0.1,0.5-0.5,1-1.1,1.4c-2.2,0.3-4.3,0.5-6.5,0.6l-0.3-0.6C651.3,1023.5,653.7,1021.8,656.5,1021.2 M547.6,955
			l0.8,0.3c1.1,0.7,1.9,2.7,2.5,4.4c0.5,1.3,0.9,2.7,1.2,4.2c0.2,1.1,0.3,2.2,0.3,3.3l-0.9-0.1c-0.4-0.7-0.7-1.3-1.1-2l0.6-0.2
			C550.7,960.6,549.2,957.8,547.6,955 M545.7,892.5c0.5-1.1,1.3-2.1,2.4-2.3c0.9,1.7,0,3.2,0,5.2c-0.3-1.9-2.9-1.7-2.8,0.5l-0.1-1.2
			C545.3,893.9,545.5,893.2,545.7,892.5 M741,887.4l0.4,0.8c0.6,1.4,1.3,2.9,1.8,4.6c0.2,0.8,0.5,1.6,0.7,2.5l0.1,0.5
			c0.3,1.4,0.4,2.7,0.4,4.1l-0.1,1.1c-1.3-0.4-0.4-1.5-0.5-2.3C743.3,895.2,741.7,891,741,887.4 M669.6,1010
			c-0.9-1.2-1.9-2.5-0.9-4.2c2.8,0.6,4.6-0.6,6.2-1.8c1.8-1.4,3.3-2.8,5.5-1.4C679.9,1008,675.9,1010.1,669.6,1010 M680.4,1011.4
			c-1.2,4-6.1,6.7-10.8,5.6c-0.4-1.9,1.6-1.1,2.3-1.4c2.8-1.1,5.7-2.3,7.1-4.7C679.8,1010.8,679.8,1011.3,680.4,1011.4
			 M635.8,1022.6l-0.2,0.4c-2.2-0.2-4.4-0.4-6.6-0.7l-0.7-1.1C629.9,1022.8,634.1,1022.5,635.8,1022.6 M620.8,1020.8
			c-0.9-0.2-1.8-0.4-2.7-0.6C618.8,1019.9,619.8,1020.3,620.8,1020.8 M604.4,1015.1c-1-0.1-2-0.4-2.9-0.7c-1.5-0.7-3-1.4-4.4-2.1
			c-1.4-1-2.6-2.3-3.5-3.8c2.2,1.4,4.4,3.5,7.1,4.7c0.4,0.2,1,0.2,1.5,0.2C603.3,1013.4,604.5,1013.4,604.4,1015.1 M579.4,1001.2
			c-1.1-0.9-2.2-1.8-3.3-2.7C577.5,999,579.1,999.6,579.4,1001.2 M564.5,985.5l-1.2-0.2c-1-1.3-2-2.5-3-3.8c0.7,0.8,1.5,1.9,2.3,2.2
			c1.3-0.8-0.9-1.6-0.5-3.1l0-0.1l1,1.5C563.7,982.9,564.2,984.2,564.5,985.5 M543.4,919.8c-1.3-2.1,0.4-5.2,0.9-7h1.4
			c0.7,1.9,1.5,3.8,1.4,6.6c-0.8-0.4-0.8-1.7-1.9-1.9C543.9,917.6,543.2,918.3,543.4,919.8 M546.6,935.8c3.1,1.1,3.5,5,4.7,8
			c-0.7,0.5-1.7-2.7-2.8-3.3c-1.9-0.3-2.7,0.4-2.3,2.4C545.3,941.3,545.3,936.7,546.6,935.8 M739.6,894.5c0.7-1.2,1.6,1.2,1.9,1.9
			c0.9,2.5,1.5,7.7,0,10.3c-2.8-0.5-2.8-3.8-4.2-5.6c0.6-1,0.8-0.4,1.2,0.2c0.3,0.5,0.6,0.9,1.2,0.7
			C741.2,900.4,740.4,896.4,739.6,894.5 M583.7,989.3c1.8,0.4,1.8-1,2.4-1.9c1.2,1.4,2.4,3.9,1.4,6.1c-6.2,1.4-9.2-4.2-11.2-8.5
			c1.3-0.3,2.2,0.9,3.3,2.1C580.6,988.3,581.8,989.5,583.7,989.3 M591.2,988.4c1.5,2.2,8.7,6.6,10.3,1.4c1.7,0.9,2.4,3.9,1.4,6.1
			C597.4,998.4,591.7,993.9,591.2,988.4 M602,1007.6c-6.6,0.1-9.4-3.4-11.3-8c2-0.1,4.3,3.1,7,3.8c0.8,0.2,1.3,0,1.7-0.2
			c0.3-0.1,0.6-0.3,1.1-0.3C601.5,1004.3,602.8,1005.9,602,1007.6 M690.3,933.4c-1.6,0-3.3-1.1-5.2-0.9c-4.7,0.4-8.3,5.4-7,10.3
			C672.2,935.1,684.9,926,690.3,933.4 M687,831.6c1.1-0.7,3,1.7,4.7,1.9C690.3,834.5,688.6,831.9,687,831.6 M679,955
			c-0.9,0.2-1.8,0-2.7-0.2c-0.8-0.2-1.6-0.4-2.5-0.3c-4.5,0.5-7.8,4.4-7.5,9.9C661.5,956.1,673.4,948.7,679,955 M668.7,980.9
			c-1.9-0.6-2.7-2.1-4.7-2.4c-3.8-0.5-6.5,2.2-8.9,3.8C650.9,971.3,672.3,968.5,668.7,980.9 M638.2,995.4
			c-0.4,6.5-13.5,5.8-13.6-1.9c1.6-0.3,2.5,1.6,4.2,1.9c3.5,0.6,6.6-0.8,7.5-3.7C638,992.4,638.3,993.6,638.2,995.4 M606.7,991.2
			c2.5,2.8,9.6,4.9,11.3,0c1.3,1.2,2,2,1.9,3.8C619.5,1001.9,605.8,998.1,606.7,991.2 M615.6,1008.6c-4.2,2.9-11.2-0.6-11.3-6.1
			c2.4,1.5,6.4,4.2,9.9,1.9C615,1005.5,616,1006.3,615.6,1008.6 M625,1015.1c3.2,2.5,0.1,3.3-2.4,3.3c-2.8,0-5.9-2.7-6.1-4.2
			C618.4,1015.7,623.8,1018.7,625,1015.1 M619.4,1004.8c2.1,0.6,3.9,2,6.6,1.9c2-0.1,2.8-1.9,4.2-1.4c0.7,1,1.2,2.3,0.9,4.2
			C627.3,1013.1,619.5,1010.4,619.4,1004.8 M638.2,1015.1c0.7,0.3,1.1,0.7,1.4,1.4c-0.6,4.5-9.3,3.1-9.9-0.5
			C631.5,1017.5,637.9,1018.9,638.2,1015.1 M635.8,1006.2c2.7,1.5,8.9,1.6,9.4-1.9C654,1010.1,634.8,1016.4,635.8,1006.2
			 M643.3,994.5c4.4,1.9,11.2,1,11.7-3.8C663.2,998.3,643.4,1005.2,643.3,994.5 M675.2,980.9c-1.3-8.1,7.2-12.1,13.1-8.4
			c0.6,1.4,0.5,3.6,0.5,5.6c-1.6-0.1-2.1-1.4-3.8-1.4c-2-0.2-3.4,0.4-4.7,0.9C678.1,978.6,677.2,981.2,675.2,980.9 M686.5,961.6
			c-2.8-10.7,12.4-16.2,13.6-5.6c-0.3,1.5-2.5-1.4-4.7-1.4c-1.6,0-3.9,0.9-5.1,1.9C688.4,957.9,688.3,960.5,686.5,961.6
			 M735.8,904.8c-1-1.5-1.9-3.1-3.8-3.8c-1.5,0.5-2.3,1.8-2.4,3.8c-1.5-2.3-0.6-5.8,0.5-8C734.6,897,735.2,900.9,735.8,904.8
			 M728.8,881.3c-1.2-0.1-1.5,0.6-1.4,1.9c-1.6-1-1.7-4.6-1-6.6c3.9,1.1,5.4,4.6,6.6,8.4C731.5,883.9,730.9,881.9,728.8,881.3
			 M726.4,909.5c-1.3-4.1-8.8-4.5-8.4,1.4c-1.2-4.1-0.5-8.8,2.3-9.4C724,900.8,726,905.3,726.4,909.5 M704.4,916.6
			c-4.7-7.2,4.7-16,8.5-8C708.2,905,703.1,909.9,704.4,916.6 M714.2,935.3c-3.2-5.6,2.7-14.3,7.5-10.8c1.3,1,1.7,3.3,1.9,6.1
			C720.6,925.7,713.9,930,714.2,935.3 M717,952.7c-4.9-4-10,1.6-10.8,6.1c-1.8-5.3,1.2-12.9,8.4-12.2
			C716.1,948,717.2,949.7,717,952.7 M720.3,883.2c-2,0.7-2,3.3-1.9,6.1c-1.4-1.3-1.1-5.6-0.5-7.5l0.9-0.5c2.7-0.4,3.1,1.5,4.7,2.3
			c-0.3,0.6-0.7,0.2-1.3-0.2C721.8,883.2,721.1,882.9,720.3,883.2 M720.8,865.4c-1.5-0.2-3.6-3.9-3.8-7.1c2.2,0.4,3.1,1.9,4.7,2.8
			C719.7,860.8,718.8,863.7,720.8,865.4 M713.8,864c-1,0.3-1.6,0.9-1.9,1.9c-1-0.2-0.2-2.3-0.5-3.3c3.2-0.2,4.3,1.7,5.6,3.3
			C718,866.6,714.8,864.3,713.8,864 M711.9,848.9c-2.3-1.9-6.2-3.7-8-6.1c4.6,1.5,7.4,4.8,10.3,8C713,851.3,712.8,849.7,711.9,848.9
			 M709.1,851.3c-0.7,0.1-1.6-0.7-2.7-1.6c-1.4-1.1-3.1-2.3-4.8-1.2c-0.7-0.4-1-1.2-0.9-2.3C704.5,846.8,706.5,849.3,709.1,851.3
			 M709.5,933.4c-0.3,1.4-2-0.9-3.8-1.4c-4.1-1.2-7.1,3.6-8,6.6C693.5,928.9,708.9,922.4,709.5,933.4 M706.7,969.6
			c0,1.9,0.1,3.9-0.5,5.2c-1-0.4-1.6-1.2-3.3-0.9c-1.5,0.3-2.7,0.8-3.8,1.4c-1.8,1.1-2.4,3.2-4.2,4.2
			C692.6,972.2,701.2,964.6,706.7,969.6 M657.9,956.9c-0.9,0.1-1.7-0.3-2.5-0.7c-0.8-0.4-1.6-0.7-2.6-0.7c-4.6,0.1-8.8,4.4-7.5,8.9
			c-1.4,0.6-1.5-3.1-1.4-4.2C644.4,954.1,654,950.9,657.9,956.9 M648,981.8c-1.5-0.8-2.8-1.9-4.2-2.8c-4.7-0.7-6.9,1.3-9.4,2.8
			C631.7,969.5,651.8,971.1,648,981.8 M635.4,956.9c-5.4-4.1-13.3,1.3-11.3,7.5c-6.3-7.8,7.8-15.4,11.7-7.5
			C636.5,957.5,635.9,957.1,635.4,956.9 M627.8,980.4c-0.3,1.7-2.7-1.7-4.2-2.3c-2.7-1.1-7-0.4-8.5,2.3
			C609.6,969.5,630.5,970.7,627.8,980.4 M608.1,954.1c-3.4,0.7-5.3,4.9-4.2,8.4c-5.7-7.5,6.1-14.7,11.3-7
			C613.1,955.2,611.2,953.4,608.1,954.1 M608.6,979.4c-1.7-1.7-4.5-4.8-7.5-4.7c-2.4,0.1-3.3,1.6-5.1,2.8
			C593.2,965.5,610.4,971.1,608.6,979.4 M589.8,951.7c-2.9,0.7-4,3.8-3.8,7.5c-4.8-8.2,6-12.6,9.9-6.6c-0.8,0-1.6-0.3-2.4-0.5
			C592.4,951.8,591.2,951.4,589.8,951.7 M591.2,977.1c-1.8-3.1-8-7.7-10.8-2.8c-1.9-1.8-0.6-5.5,0.9-6.6
			C587.8,967.7,590.6,971.3,591.2,977.1 M554.6,964c-1.3-0.5-1.2-4.1-0.5-5.2c4.9,1.2,6.4,5.8,7.5,10.8
			C560,967.5,557.5,961.8,554.6,964 M565.9,969.6c-1.3-0.6-0.9-2.9-0.9-4.7c5.1-3.4,9.9,3.7,10.3,9.4
			C573.7,971.6,569.5,965.6,565.9,969.6 M567.3,983.2c1.2,1.1,2.6,1.2,3.3,2.3c1.2,0.1,2.3,0.1,2.4-0.9c1.3,1.2,1.9,4,1.4,5.6
			c-6-0.9-7.9-5.9-10.3-10.3C565.7,979,566.1,982.1,567.3,983.2 M573.4,948c-3.1,0.4-4.1,3.4-3.8,7.5c-1.8-2.7-1-8.1,1.4-9.4
			c3.6-0.5,4.7,1.5,6.6,2.8c-0.7,0.1-1.3-0.2-2-0.5C575,948.2,574.3,947.9,573.4,948 M563.1,934.9c-2-3.1-0.8-9.4,1.4-11.3
			c3-0.3,5,0.4,5.6,2.4C564.9,922.6,561.8,930.2,563.1,934.9 M564,952.2c-1.1-2.3-2.4-4.5-5.2-5.2c-1.9,0-2.3,1.5-3.8,1.9
			c-0.9-6.2,2.8-7.9,6.1-5.6C562.8,944.4,564.1,949.4,564,952.2 M553.2,920.8c-1.7,1.7-2.4,4.5-2.4,8h-0.5v-1.4
			c-0.3-3.9,0.2-7,1.9-8.9c3.4,0.1,1.4,0.6,3.8,1.4c-0.3,0.3-0.7,0.3-1.2,0.3C554.4,920.2,553.8,920.1,553.2,920.8 M552.3,898.2
			c-0.6,2-2.9,5.7-2.8,9.9c-0.6,1.5-0.5-1.3-0.5-1.9c0-4.1,0.5-7.2,1.9-8.9h0.9c0.5-0.6,0.4-2,1.4-1.9c1.2,0,1.8,0.7,1.9,1.9
			c-0.8-0.4-1.3,0.1-1.7,0.6C552.9,898.4,552.6,898.9,552.3,898.2 M572.2,995c-0.7-0.7-1.5-1.4-2.2-2.1
			C570.9,993.4,571.6,994.2,572.2,995 M579.5,998.2c2.1,0.6,4.8,4.6,8.4,5.2l0.5-1.4c1,0.4,1.4,1.4,1.4,2.8c-1.1,0-2-0.2-2.8-0.5
			c-2.4-0.8-4-2.4-5.5-4C580.9,999.6,580.2,998.9,579.5,998.2 M604.8,1011.8c2,1.8,4.6,2.9,7.5,3.8c0.6,0.1,0.9-0.2,1.2-0.4
			c0.3-0.4,0.5-0.7,1.2-0.1l0.5,0.9c-0.4,0.6-1,0.9-1.7,1c-1.7,0.3-4-0.7-5.8-2C606.3,1014,605.2,1012.8,604.8,1011.8 M643.3,1017
			c2.9,0.9,8.2,0.9,8.5-2.4c0.7-0.1,0.8,0.5,1.4,0.5C654,1020,644.3,1021,643.3,1017 M652.2,1006.7c4.5,0.3,8.1-0.4,9.4-3.3h1.4
			C668.3,1010.1,651.9,1015.7,652.2,1006.7 M660.2,1017c2.5-0.6,4.5-2,5.6-3.7l0.9,0.5c0.9,3.3-6.4,6.7-9.9,4.2
			c0.1-1.3,1.2-1.1,2.2-1C659.5,1017,659.9,1017.1,660.2,1017 M662.1,994.5c4.6,0.5,10.6-0.7,11.8-5.2c0.8-0.1,0.8,0.4,1.4,0.5
			C679,998,663.1,1003.4,662.1,994.5 M691.7,986c1,0.1,0.9,1.3,1.9,1.4c0.2,6.9-6.1,11.3-12.2,8.9c-0.3-1.1-0.7-2.1-0.5-3.8
			C687.2,993.1,689.9,990,691.7,986 M694,998.7l0.9,0.9c0,2.9-4,7.3-7,8c-1.1,0.2-4.1,1-4.2-1.4C689,1005.5,692.4,1003,694,998.7
			 M702.5,999.6c1.2-1.2,1.8-2.8,2.8-4.2l0.9,1c-0.7,4.1-6,9.1-10.8,8.5C696.9,1002.2,700.4,1001.7,702.5,999.6 M697.8,994
			c0-0.8-1.3-2.7,0-3.3c0.5-1.3,2.4-1.4,3.3-1.9c1.9-1.1,4.4-3.1,5.2-6.1h1.9C710.3,988.4,703.7,995,697.8,994 M710.9,977.6
			c-1-0.8-1.1-2.3-0.9-4.2c5.5-0.6,7.2-5,8.9-9.4c0.6,0.2,0.7,0.8,1.4,0.9C720.9,971.2,718,977.4,710.9,977.6 M719.9,979.4
			c0.2,4.4-3.9,11.1-9.9,11.3c-0.3-2.3,2.1-2,3.3-2.8c2.2-2.6,4.9-4.8,5.6-8.9L719.9,979.4 M719.9,953.6c5.5-0.7,7.4-5.1,8-10.8
			C734.3,948.2,723,964.9,719.9,953.6 M725.9,970.5c1.9-2.9,4-5.6,4.7-9.9v-1.4c3.8,3.2-3.8,16.9-7.5,13.1
			C723.4,971.1,724.9,971.1,725.9,970.5 M727.8,930.6c-0.1-1.2,0.5-0.8,1.1-0.4c0.6,0.4,1.3,0.7,1.7-0.1c2.4-1.8,3.1-5.4,2.8-9.9
			l0.9,0.5C738.7,927.5,731,942,727.8,930.6 M736.3,948.5c1.4-2.5,1.8-6.3,1.9-10.8c3,3,0,16.4-5.2,14.5
			C733.3,950.3,735.4,950.1,736.3,948.5 M739.1,928.8c0.6-1.3,1.7-2.1,2.4-3.3c0.8-3.9,0.5-8.3-0.5-11.7c1.7,1.2,2.6,5.7,2.4,9.4
			C743.1,926.2,741.9,931.2,739.1,928.8 M638.9,1023.2l-0.3-0.6c2.4,0.8,5,0.3,7.1-0.5l-0.4,1.1c-0.6,0-1.3,0.1-1.9,0.1
			C641.9,1023.4,640.4,1023.3,638.9,1023.2 M681.5,1014.7c1-2.6,7-3,8.3-6.1h1.9c-0.3,0.8-0.7,1.4-1.1,2c-2,2.7-5.5,4-9.2,5
			L681.5,1014.7 M732.5,968.2c2.7-4,5.6-7.8,6.1-14.1l0.9,0.9c-0.1,0.7-0.3,1.3-0.4,2c-0.5,2.1-1.1,4.2-1.9,6
			c-0.7,1.4-1.5,3.3-2.8,4.4C733.9,967.8,733.3,968.1,732.5,968.2 M741.9,947.5c-2.2-0.9,0.6-2.7,0.9-3.7c1.1-3.3,1.5-7.3,1.4-12.2
			l0.9,1c0,0.7,0,1.4,0,2.1c-0.1,4.2-0.9,7.8-2.2,10.9C742.6,946.2,742.3,946.9,741.9,947.5 M746.1,924.1c-1.5-0.7-0.5-3.2-0.5-5.2
			c0.1-3.4-0.1-7.2-0.5-10.3l0.6,1.3c1.3,3.6,1,9.9,0.4,13.8L746.1,924.1"/>
	</g>
	<g>
		<path fill="#FFF2DB" d="M765.6,451.1c0-27.1-9.6-38.2-17.7-42.7c-9.2-5.1-20.9-4.3-31.5,2.2c-8.6,5.4-14.5,13.6-16.2,22H573.5
			c-1.7-8.5-7.6-16.7-16.3-22c-10.5-6.5-22.3-7.3-31.5-2.2c-8.1,4.5-17.7,15.6-17.7,42.7c0,54.3,26.3,83.4,45.5,104.6
			c11.5,12.6,20.5,22.6,20.7,33.7c0.2,9-6.5,17.9-15.1,20.5c-9.8,2.9-19.8-2.9-28.2-16.4c-1.7-2.7-5.3-3.6-8.1-1.9
			c-2.8,1.7-3.6,5.3-1.9,8.1c15.9,25.7,34.3,23.6,41.4,21.5c13.7-4,23.8-17.7,23.5-31.9c0-1.2-0.1-2.4-0.3-3.6
			c7.6,20.3,15.2,35.3,20.1,42.9v7.3H666V631c4.7-6.3,13.3-22.5,21.8-45.4c-0.2,1.2-0.2,2.3-0.3,3.5c-0.3,14.2,9.9,27.9,23.5,31.9
			c7.2,2.1,25.6,4.2,41.5-21.5c1.7-2.7,0.9-6.3-1.9-8.1c-2.8-1.7-6.4-0.8-8,1.9c-8.3,13.5-18.4,19.3-28.2,16.4
			c-8.7-2.6-15.3-11.5-15.1-20.5c0.2-11,9.3-21,20.7-33.7C739.3,534.5,765.6,505.4,765.6,451.1 M562.2,547.8
			c-18.9-20.9-42.5-46.9-42.5-96.8c0-16.7,4.2-28.2,11.7-32.4c2.2-1.2,4.7-1.9,7.4-1.9c3.9,0,8.1,1.3,12.2,3.8
			c5,3.1,8.7,7.6,10.3,12.1H549v11.7h13.1c-2.1,47.6,7.4,92.6,18.6,126.7C576.3,563.3,569.5,555.9,562.2,547.8 M589.5,454.4h27.2
			c0,35.9-5,101.6,13,155.9C619.3,590.3,584.9,527.6,589.5,454.4 M693,571.1c11.2-34.1,20.7-79.1,18.6-126.7h13v-11.7h-12.3
			c1.7-4.5,5.4-9,10.3-12.1c4.1-2.5,8.3-3.8,12.2-3.8c2.7,0,5.2,0.6,7.4,1.9c7.6,4.2,11.7,15.7,11.7,32.4
			c0,49.9-23.6,75.9-42.5,96.8C704.1,555.9,697.4,563.3,693,571.1"/>
		<polyline fill="#FFF2DB" points="698.2,674.3 698.2,646.3 576.6,646.3 576.6,674.3 541.9,674.3 521.4,693.5 521.4,728.2 
			753,728.2 753,693.6 733.7,674.3 698.2,674.3 		"/>
	</g>
	<g>
		<path fill="#FFF2DB" d="M964.8,512.1l-9.9-31.8l-0.3-0.4l0-0.1h78.5l-10.8,20.1l-17.1,41.9l-7.1,36.1l2.6-2.1l70.9-127.3
			l-10.7-20.5l-0.3,0.6v-0.4H929.7v1l-0.1-0.3l-6.9,12.7l46.6,86.5L964.8,512.1 M939,446.5h112.2l-8.2,15.1h-95.8L939,446.5"/>
		<polyline fill="#FFF2DB" points="978.7,586.1 978.3,582.7 913.3,460.4 904.7,476.4 925.9,523.7 952.1,560.6 978.7,586.1 		"/>
		<path fill="#FFF2DB" d="M979.2,549.4l2.4,21.1l1.2,10.5l0.5,4.2l0,0.2c3-2.2,6.7-3.7,10.7-4l-0.4-2.2l-2.1-7.7l-5.8-28.8
			l-17.2-41.9l-6.9-12.7l16.9,54.8v0.1L979.2,549.4"/>
		<path fill="#FFF2DB" d="M977.5,702.4c5.4,0,13.8-4,17.8-7.5c12.9-11,20.2-22.7,20.5-29.8c0.1-2.3-1.2-4.7-3.8-4.7
			c-8.5,0-20.1,8-24.7,14.8c-0.6,0.8-1.8,2.6-3,2.6c-1.3,0-1.3-1.8-1.4-2.7c-5.4,5.4-10.7,13.1-10.7,21
			C972.4,699.5,973.8,702.4,977.5,702.4"/>
		<path fill="#FFF2DB" d="M985.8,621.2c-25.6,4.7-45.1,27.1-45.1,54.1c0,30.3,24.6,55,55,55c30.3,0,55-24.7,55-55
			c0-26.9-19.4-49.2-44.9-54c-3.3-0.6-6.6-1-10.1-1C992.3,620.3,989,620.6,985.8,621.2 M1012.1,642.8c4.5-0.7,9.4,6.2,9.4,7.7
			c0,2-3.3,2.9-4.7,3.4c-1.5,0.6-2.9,1.4-4.2,2.1l0.1,0.1c3.8-1.1,6.8-0.6,8.7,0.9c1.9,1.5,2.9,4.1,3,7.6
			c0.5,19.2-22.4,45.1-44.5,44.9c-7.6-0.1-16.3-4.7-17.1-19.6C961.5,669,993.6,645.4,1012.1,642.8"/>
		<polyline fill="#FFF2DB" points="1083.3,466.3 1045.1,530.7 1077.5,496.4 1077.8,496 1085,487.5 1090.4,479.6 1083.3,466.3 		"/>
		<path fill="#FFF2DB" d="M1034.4,554.6l-5,4.1l-16.6,13.4l-8.2,6.7l-3.3,2.6l-0.6,0.5l-2.5,2l-2.6,2.2c-9,0.1-16.3,7.4-16.3,16.4
			c0,1.1,0.1,2.2,0.3,3.3c1.8-0.4,3.7-0.8,5.6-1l-0.2-2.2c0-2.7,1-5.1,2.6-6.9l0,0.1l0.6,1.1l1.5,5.4l0.1,0.1l1.6,1.8l1,1.2l0.7,0.8
			l0.8,0l3.8,0.4l-2-0.1c-1.4,0-2.9,0.1-4.3,0.1c-1.7,0.1-3.5,0.3-5.3,0.5c-2,0.3-3.8,0.6-5.7,1c-1.5,0.4-3.1,0.8-4.6,1.2
			c-28.3,8.5-48.9,34.8-48.9,65.8c0,37.9,30.9,68.8,68.8,68.8c37.9,0,68.8-30.8,68.8-68.8c0-30.9-20.5-57.1-48.6-65.7
			c-1.5-0.5-3.1-0.9-4.6-1.2c-1.9-0.4-3.8-0.8-5.7-1.1c-1.6-0.2-3.2-0.4-4.9-0.5l1-1.2l1-1.2l1.5-1.7l1.4-4.8c0.7,1.4,1.2,3,1.2,4.8
			l-0.2,2.3c1.9,0.3,3.7,0.7,5.6,1.1c0.2-1.1,0.4-2.2,0.4-3.3c0-4.1-1.5-7.8-4-10.7l2.3-4.5v0l0.7-0.6l6.1-5.8l21.2-20.4l26-37.1
			l7-12.7L1034.4,554.6L1034.4,554.6 M1001.2,618.1c2.6,0.3,5.1,0.7,7.5,1.3c25.4,5.9,44.5,28.7,44.5,55.9
			c0,31.7-25.8,57.5-57.5,57.5c-31.7,0-57.5-25.8-57.5-57.5c0-27.3,19.1-50.1,44.7-56c2.5-0.6,5-1,7.5-1.2c1.8-0.2,3.5-0.3,5.3-0.3
			C997.5,617.8,999.4,617.9,1001.2,618.1"/>
	</g>
	<g>
		<path fill="#FFF2DB" d="M411.5,497.7c-16.6,4.2-31.6,6.4-44.6,6.4c-18.3,0-28.7-4.3-34-7.4c0.4,11.4,4,22.7,8.3,32
			c0.3-1.4,0.7-2.6,1.3-3.6c1.5-2.7,4.2-5,7.9-7c3.8-2.1,8.3-3.7,13.7-5.1c5.9-1.5,10.9-2.4,15.1-2.4c4.2,0,7,0.8,8.5,2.5
			c1.5,1.7,2.5,5.4,2.9,11c0.1,0.9,0.1,1.9,0.2,2.8c-6.8,3-13.8,5.5-20.7,7.5c-0.1-1.7-0.3-3.4-0.4-5.1c-0.2-2.4-0.6-3.9-1.1-4.4
			c-0.6-0.5-1.5-0.6-2.8-0.3c-1.3,0.4-2.4,1-3,2.1c-0.6,1-0.9,2.5-0.7,4.3c0.2,2.3,0.7,4,1.6,4.9c0.8,1,3.1,1.9,6.7,2.6
			c10.5,1.9,17,3.2,19.7,5.3c2.8,2,4.5,6.4,5,13.3c0.4,5,0,9-1.3,12c-1.2,3-3.8,6.1-7.8,9.1c-4,3.1-8.8,5.3-14.3,6.7
			c-5.5,1.4-10.3,1.7-14.5,0.7c-6,5.6-12.5,13.4-15.1,16.6c5.2,6.9,9.4,7.7,12.2,7.7c7.3,0,16.4-6.9,27.9-15.5
			c2.8-2.1,5.7-4.3,8.7-6.5c9.5-6.9,20.4-10.4,32.7-10.4c9.3,0,17.1,2,21.6,3.5c-3.7-29.7-12.7-50.7-19.7-63.2
			C419.5,506.5,413.7,499.9,411.5,497.7 M429.4,572.3c-4.7,0.4-9.4,0.9-14.1,1.5c-0.5-4-1.1-8.1-1.8-12.1c4.7-0.8,9.3-1.5,14-2.2
			C428.3,563.7,429,568,429.4,572.3 M414.3,558.5c-3.7-15.1-9-30.1-15.9-44.6c5.2-2,10.4-4,15.6-5.8c5.8,16.1,9.7,32.4,11.9,48.5
			C422,557.2,418.1,557.9,414.3,558.5"/>
		<path fill="#FFF2DB" d="M365,559.6c0.2,2.8,0.4,5.6,0.7,8.5c0.2,2.6,0.6,4.2,1.3,4.8c0.6,0.6,1.7,0.7,3.3,0.4
			c1.5-0.3,2.6-1.1,3.2-2.3c0.6-1.1,0.9-2.7,0.7-4.5c-0.3-4.1-1.2-6.6-2.7-7.5c-1.5-0.9-5.2-2-11.1-3.8c-1.5-0.5-2.9-0.9-4.1-1.3
			c1.4,2.2,2.7,4.5,3.8,6.8C361.7,560.3,363.4,560,365,559.6"/>
		<path fill="#FFF2DB" d="M256,574.9l-0.2,1.6c-0.2,0-14.3,0.8-21.2,5.4c-0.1,2.4-0.3,15.3,5.8,21.8c4.7,5,12.1,5,22,0.2
			c12-5.9,21-13,29-19.2c13.1-10.2,24.3-18.9,42.7-18.5c11.1,0.3,17.7,2.6,19.6,7c2.1,4.7-2.1,9.7-2.2,9.9l-1.4-0.9c0,0,2-4.5-0.3-8
			c-1.9-3-6.3-4.5-13-4.5c-5.7,0-9.9,0.4-12,0.7c2.7,2.7,9,9.4,10.6,14.7c1.5,4.6,2.9,10.3,3.6,13.1c3.1-4.2,11.4-13.1,15.4-16.5
			c5.4-4.5,1.8-17.3-4.3-27.1c-0.6-1-1.3-2.1-2.2-3.3c-1.2-1.9-2.6-4-4.1-6.4c-2.1-0.1-5.4-0.3-5.8-0.8c-0.8,2.4-2.2,4.5-4.2,6.1
			c-2,1.6-4.6,2.9-7.8,3.7c-3.8,1-7.7,1.2-11.6,0.6c-3.9-0.6-7.1-1.7-9.6-3.3c-2.5-1.6-4.4-3.5-5.7-5.6c-1.3-2.1-2.7-5.3-4.4-9.7
			c-2.3-6.3-4.7-12.7-7-19c-2.3-6.1-3.5-10.7-3.6-13.6c-0.1-3,1.5-6.1,5-9.4c3.5-3.3,8.6-5.8,15.4-7.7c5.1-1.4,9.6-2.1,13.8-2.1
			c1.3,0,2.5,0.1,3.8,0.2c2.3,0.3,4.4,0.8,6.1,1.4l0.1-1c1.1-7.3,2.6-17.2-3.6-21.8l-1.6-1.2c-5-3.8-9.7-7.3-15.6-7.3
			c-3.4,0-7.1,1.2-11.2,3.6l-0.8,0.5c-13.2,7.8-40.9,23.9-64.8,23.9H230c1.5,2.9,5.3,10.4,9.6,20.6c6.5-1.6,13-3.2,19.5-4.8
			c13,20,26.1,40,39.1,59.9c-7.9,1.9-15.7,3.9-23.6,5.8c-2-3.7-3.9-7.4-5.9-11.1c-2.8,0.7-5.5,1.4-8.2,2.1c1.1,3.9,2.2,7.8,3.3,11.7
			c-1,0.3-2.1,0.5-3.2,0.8c1.7,7.8,1.2,12-2.3,14.2c-0.8,0.5-1.7,1-2.7,1.6c-6.2,3.8-16.5,10-16.4,14.1l-1.6,0.3
			c-0.1-0.3-2.7-8.8,18-18.5c3.5-1.6,4.2-4.7-0.4-19.2c-5.1-16-16.9-51-25.2-68.3l-0.4-0.8c-7-14.8-12.1-25.4-21.5-25.4
			c-1.5,0-3.1,0.3-4.9,0.8c-13.7,4.2-74.7,37.4-96.4,53.1c2.1,2.2,8.6,9.7,15.6,25.3c7.6,16.9,17.3,46.9,20.5,94.1
			c10.2-9,75-64.8,106.7-64.8C251.8,573.9,254.1,574.3,256,574.9 M122,526.6c-2.5,0.7-5.1-0.8-5.7-3.3c-0.7-2.5,0.8-5.1,3.3-5.8
			c2.5-0.7,5.1,0.8,5.7,3.3C126,523.4,124.5,526,122,526.6 M152.7,621.9c-2.5,0.7-5.1-0.8-5.8-3.3c-0.7-2.5,0.8-5.1,3.3-5.8
			c2.5-0.7,5.1,0.8,5.7,3.3C156.7,618.6,155.2,621.2,152.7,621.9 M185.8,578.5c-6.5,4.2-12.8,9-18.8,14.5
			c-9-21.7-17.9-43.5-26.9-65.1c10.3-8.7,21.5-15.8,33.3-21.6c1.8,4.3,3.5,8.5,5.2,12.8c-4.8,2.4-9.5,5-14.1,7.9
			c1.7,4.1,3.3,8.2,5,12.2c4.1-2.6,8.3-4.9,12.5-7.1c1.7,4.1,3.4,8.1,5,12.2c-4.3,2.2-8.4,4.6-12.5,7.2
			C178.4,560.4,182.1,569.4,185.8,578.5 M212.3,566.6c-8.8-21.3-17.5-42.7-26.3-64c7-3.2,14.3-6.1,21.6-8.7
			c7,17,13.9,33.9,20.9,50.9c4.4-1.6,8.9-3.1,13.5-4.6c1.7,4.2,3.5,8.5,5.2,12.7C235.2,556.7,223.5,561.2,212.3,566.6"/>
		<path fill="#FFF2DB" d="M330.3,513.2c-0.5-2.1-0.9-4.2-1.3-6.5c-2.4,0.7-4.7,1.5-7,2.2c-1.3,0.4-2.5,0.7-3.7,1
			c-0.7-2-1.5-3.9-2.2-5.8c-1.4-3.6-2.4-5.9-3.2-6.7c-0.8-0.8-2-1-3.6-0.5c-1.4,0.4-2.2,1-2.4,2c-0.2,0.9,0.3,3,1.5,6.3
			c3.8,10.3,7.6,20.5,11.5,30.8c1.1,2.9,2,4.7,2.9,5.5c0.9,0.8,2,0.9,3.5,0.5c1.7-0.4,2.6-1.2,2.8-2.5c0.2-1.2-0.2-3.3-1.4-6.3
			c-0.9-2.5-1.9-5.1-2.8-7.6c-1.5,0.4-3,0.9-4.6,1.3c-1.2-3.2-2.4-6.5-3.6-9.7c2.4-0.6,4.8-1.3,7.1-2
			C325.9,514.5,328.1,513.8,330.3,513.2"/>
		<path fill="#FFF2DB" d="M263.5,541.7c-4.1-6.9-8.9-15.4-14.4-25.7c2.6,12.7,4.8,21.9,6.5,27.6C258.2,543,260.8,542.3,263.5,541.7"
			/>
	</g>
	<g>
		<path fill="#FFF2DB" d="M1207.8,1222.5 M1207.8,1222.5c-2.5,0.7-5.1-0.8-5.7-3.3c-0.7-2.5,0.8-5.1,3.3-5.8"/>
	</g>
</g>
<g id="Layer_2">
	<g>
		<g>
			<path fill="#FFF2DB" d="M874.4,344.9c29.1,29.6,51.4,42.2,74.9,42.2c35.8,0,73.3-30.7,135.9-81l2.3-1.8l0.3-0.8l-0.8-0.5
				c-110.4-5.4-161-79.2-174-101.7l-0.5-0.5l-0.8,0.3c-14.6,12.5-30.7,22-45,30.4c-22.7,13.3-40.6,23.8-42.4,40.9
				C822.2,289.5,837.8,311.9,874.4,344.9 M1093.1,80.5v-0.8c-1.5-2-2-3.8-2-5.4l-0.8-0.8c-14.8-3.1-28.9-4.9-41.6-4.9
				c-81.5,0-107.3,63.6-130.3,119.6l-2.8,6.9v0.8c5.6,10.5,15.8,26.3,32.4,42.7l0.5,0.3l0.5-0.5c57.7-93.8,94-141.3,143.1-157.4
				L1093.1,80.5 M1082.8,297.4l0.8-0.3c59-70.5,54.4-160.4,37-203.9l-1-0.5c-4.1,0-8.9-1.3-13.8-3.6c-2.6-1.3-5.1-2.6-7.4-4.3
				l-0.8-0.3c-44.2,13-77.9,49.8-144.6,157.6l0.3,1C977.3,265.7,1019.2,293.3,1082.8,297.4 M1126.8,90.4l-1,0.8l-0.3,1
				c17.1,43.2,22,133.1-34.7,204.4v0.8l0.8,0.5l8.4,0.3h5.1c43.9-5.6,76.6-30.7,81.8-62.3c8.7-95-0.3-101.7-58.5-145.4H1126.8
				 M1097.4,78.7c1.5,1.8,4.1,3.6,6.6,5.1l3.1,1.5c4.3,2,8.7,3.1,12,3.1c1.8,0,3.1-0.3,3.8-0.8l0.8-0.8c0.5-0.8,0-2.3-2-4.6
				c-2.3-2.6-5.9-5.1-10-6.9c-4.3-2-8.7-3.1-12-3.1c-2.8,0-4.3,0.8-4.6,1.5l0.3,1.8C1095.6,76.4,1096.1,77.4,1097.4,78.7
				 M563.4,42.7c4.3,24.8,24.8,42.2,50.1,42.2v0.3v-0.3c25.3,0,45.7-17.4,50.1-42.2l-5.4-1.8c-3.8,22.5-22.5,38.8-44.5,38.8
				s-40.6-16.4-44.5-38.8L563.4,42.7 M709.8,106.3c0,19.9,7.2,35,10.2,40.9l56.7-0.8l14.6-57.2c-14.1-5.1-66.2-26.6-70.5-28.1
				C717.2,68.5,709.8,83.8,709.8,106.3 M517.4,106.3c0-22.5-7.7-38.3-11.2-45.5l-0.5,0.3c-17.1,6.9-57.7,23.5-70,28.1l14.6,57.2
				l56.7,0.8C510,141.3,517.4,126,517.4,106.3 M716.7,59.5l-49.1-15.6c-4.9,26.6-27.1,45.2-54.2,45.2c-27.3,0-49.6-18.7-54.4-45.2
				l-48.8,15.6c5.4,10.7,11.2,25.8,11.2,46.8c0,21.2-7.7,37-11,42.9v207.5H716V149.5c-3.3-5.6-11-21.7-11-43.2
				C705.2,83,712.9,67.2,716.7,59.5 M578.8,55.2c7.4,12.5,20.4,20.2,34.5,20.2c14.3,0,27.1-7.4,34.7-20.2
				c-7.4,2.8-19.2,6.1-34.7,6.1C597.9,61.3,586.2,58,578.8,55.2 M653.4,41.9c-2.6,1.3-5.1,2.6-7.9,3.3c-6.6,2.3-17.6,5.4-31.9,5.4
				c-20.2,0-34.2-5.9-39.9-8.7c0.5,2.3,1.3,4.9,2.3,7.2c5.9,2.8,18.9,7.7,37.6,7.7s31.7-4.9,37.8-7.9
				C652.1,47,652.9,44.5,653.4,41.9"/>
		</g>
	</g>
</g>
</svg>
