<?xml version="1.0" encoding="utf-8"?>
<!-- Generator: Adobe Illustrator 18.0.0, SVG Export Plug-In . SVG Version: 6.00 Build 0)  -->
<!DOCTYPE svg PUBLIC "-//W3C//DTD SVG 1.1//EN" "http://www.w3.org/Graphics/SVG/1.1/DTD/svg11.dtd">
<svg version="1.1" id="Layer_1" xmlns="http://www.w3.org/2000/svg" xmlns:xlink="http://www.w3.org/1999/xlink" x="0px" y="0px"
	 viewBox="0 0 276.5 210.6" enable-background="new 0 0 276.5 210.6" xml:space="preserve">
<g>
	<path fill="#00A8A6" d="M255.6,79.7c-1-4.5-2.7-8.7-5-12.5c-3.4-5.7-8-10.5-13.2-14.5c-2.4-1.9-4.9-3.6-7.6-5.1
		c0.6-0.7,1.1-1.5,1.6-2.3c0.7-1.3,1.3-2.7,1.8-4c0.1-0.2,0.1-0.3,0.2-0.5c0.4-1.4,0.7-2.7,0.9-4c0.4-3.1-0.4-6-2.3-8.3
		c-0.7-0.8-1.5-1.6-2.4-2.1c-0.8-1.3-1.9-2.5-3.3-3.4l0,0c-1.6-1.1-3.5-1.9-5.6-2.3c-1.3-0.3-2.6-0.4-4-0.5l0,0
		c-1.5-0.1-2.9,0-4.1,0.3c-0.6,0.1-1.1,0.3-1.6,0.4c-2.3,0.8-4,2.2-5.3,3.8l-0.2-0.1l-0.7-0.4l-0.8,0.2L173.4,31l-5.2-3.6
		c-7.2-4.9-15.1-8.6-23.5-10.6c-8.3-2-17-2.2-25.8-0.3c-8.8,1.9-16.6,5.8-23.3,11c-6.7,5.3-12.4,11.9-16.9,19.4l-3.3,5.4L42,59.6
		l-0.5,0.6c-0.4,0.5-0.7,1-0.9,1.6c-0.4,1-0.7,2-0.9,3.1c-0.3,1.6-0.5,3.3-0.6,4.8c-0.1,1.5,0,2.9,0.1,3.9l0,0l0.6,6.1L36,84.3
		l-0.1,0.2c-5.2,6.3-9.9,13.5-12.8,21.4c-1.5,3.9-2.5,8-2.9,12.2c-0.4,4.2-0.2,8.5,0.7,12.8c1,4.6,2.8,8.8,5.1,12.6
		c3.5,5.7,8.2,10.6,13.5,14.7c5.3,4.1,11.2,7.4,17.1,10l3.9,1.7l2.4,3.5v0c0.2,0.3,0.5,0.6,0.8,1c0.4,0.6,1,1.2,1.6,1.8
		c0.3,0.3,0.6,0.6,0.9,0.9c0.3,0.3,0.7,0.5,1.1,0.8l0.7,0.4l12.1-2.6l3,0.6l0,0c4.9,0.9,9.9,1.6,14.9,2l0,0l4.2,0.4l3.4,2.5
		c7.5,5.6,15.8,9.9,24.7,12.3c8.8,2.4,18.2,2.8,27.6,0.8c9.4-2,17.7-6.4,24.8-12.2c7.1-5.8,12.9-13.2,17.3-21.5l2-3.7l3.7-2.1l0,0
		l0,0c4.4-2.5,8.6-5.1,12.7-8l2.4-1.7l10.2-2.2l0.5-0.7c0.3-0.4,0.5-0.8,0.7-1.2c0.3-0.6,0.5-1.2,0.7-1.8c0.2-0.6,0.3-1.1,0.4-1.5
		l0,0l0.9-3.9l2.7-2.9c6.2-6.6,11.9-14.4,15.7-23.1c1.9-4.3,3.2-8.9,3.8-13.5C256.8,89.4,256.7,84.6,255.6,79.7 M90.2,53.9
		L90.2,53.9c3.6-5.9,8-11.2,13.2-15.4c5.3-4.2,11.4-7.3,18.3-8.8c6.9-1.5,13.8-1.2,20.3,0.4c6.5,1.6,12.7,4.6,18.4,8.5l10.1,6.9
		l23.1-5c-0.2,0.5-0.3,0.9-0.5,1.4c0,0.1-0.1,0.3-0.1,0.4c0,0.1,0,0.2-0.1,0.3l-22.8,5l-10.7-7.4c-11-7.5-24-11.5-37.3-8.6
		c-13.3,2.9-23.5,11.9-30.3,23.3l-3.3,5.6l-0.1,0h0c-0.1,0-0.2,0-0.3,0c-0.6,0-1.2,0-1.7,0L90.2,53.9 M173.2,51.3
		c-1.9,1.6-3.1,3.8-4.1,5.8c-1.2-0.4-2.5-0.7-3.8-0.9c-0.5-0.1-1-0.1-1.5-0.2l-10.4-7.2c-6.7-4.6-17.2-9.5-29-7
		c-11.8,2.6-19.3,11.4-23.5,18.4l-2.1,3.5c-1.6-1.1-3.4-1.9-5.3-2.5l0,0l0,0c-0.1,0-0.2-0.1-0.4-0.1l2.5-4.1
		c4.8-8,13.5-18.2,27.5-21.3c14-3,26.1,2.6,33.9,7.9l10.7,7.3l1.6,1.1l1.9-0.4L173.2,51.3 M36.3,109.1c2.4-5.9,6.1-11.4,10-16
		l7.6-9.1l-1.2-12.9L76.3,66c-0.5,0.7-1,1.4-1.6,2.2l-20.2,4.4l1.2,12l-8.1,9.7c-3.7,4.5-7.4,9.8-9.7,15.6c-1,0.5-1.9,1.2-2.7,2
		C35.5,110.9,35.9,110,36.3,109.1 M66.2,82.8c-2,3.8-4.2,8-6.4,12.5c-0.4,0.8-0.8,1.6-1.1,2.3l-2.9,3.5c-1.7,2-3.2,4.1-4.5,6.2
		c-0.4,0.1-0.8,0.1-1.2,0.2c-1.5,0.2-3,0.5-4.3,0.7c-1.2,0.2-1.9,0.2-2.1,0.2l-0.2,0c2.3-4.6,5.2-8.5,7.5-11.3l8.1-9.7l1.2-1.4
		l-0.2-1.8l-0.8-8.1l12.1-2.6c-1.3,2.2-2.6,4.6-4.1,7.3L66.1,81L66.2,82.8 M42.2,142.6c-1.5-1.6-2.9-3.3-4.1-5.2
		c-1.9-2.9-3.3-6-4-9.5c-0.2-0.8-0.3-1.5-0.4-2.3c0.6,1.2,1.4,2.4,2.4,3.6c0.1,0.1,0.2,0.2,0.3,0.3c1.2,4,3.4,7.6,6.2,10.7
		C42.5,141.1,42.3,141.8,42.2,142.6 M58.9,153.8c-1,0.4-1.9,0.6-2.8,0.8c-0.9,0.2-1.8,0.3-2.7,0.3c-0.2,0-0.5,0-0.7,0
		c-2.4-0.1-4.6-1.2-6.1-2.9c-1.4-1.6-2.1-3.7-2-6c0.1-3.2,0.9-7.2,2.3-12c0.1-0.3,0.2-0.5,0.2-0.8c-1.4-0.3-2.9-0.9-4.3-1.8
		c-1.8-1.1-3.3-2.5-4.6-4c-1.8-2-2.9-4.2-3.2-6.5c-0.4-2.5,0.2-4.8,1.8-6.7c1.3-1.6,3.1-2.6,5.2-3.1c0.5-0.1,1.1-0.2,1.7-0.2l0.2,0
		c0.4,0,1.2-0.1,2.5-0.3c1.3-0.2,2.8-0.4,4.3-0.7c1.1-0.2,2.3-0.4,3.5-0.6c0.3-0.1,0.6-0.1,1-0.2c0.5-0.1,1-0.2,1.4-0.3
		c1.8-4.1,3.8-8.3,5.8-12.4c2.6-5.2,5-10,7.3-14.2c2.3-4.3,4.4-8,6.3-10.9c2.7-4.2,4.3-6.1,6.2-7.2l0.1-0.1c0.8-0.4,1.6-0.7,2.5-0.9
		c1-0.2,2.1-0.3,3.3-0.2c0.1,0,0.2,0,0.3,0c1.5,0.1,3,0.4,4.5,0.8l0,0c1.8,0.5,3.4,1.3,4.8,2.3c3.2,2.3,4.6,6.1,3.6,9.8l0,0l0,0l0,0
		l0,0c-0.3,1-0.6,2.1-0.8,3.1c1.5-1.1,3.2-1.8,5.1-2.2c0.5-0.1,0.9-0.2,1.4-0.2c1.2-0.1,2.5-0.2,3.7-0.1c0.9,0,1.9,0.2,2.8,0.3
		c2,0.4,3.9,1,5.6,1.8c0.3-0.6,0.7-1.1,1-1.7c1.7-2.6,3.4-4.6,5.2-6.1c1.6-1.4,3.7-2.4,6-2.8c0.5-0.1,0.9-0.2,1.4-0.2
		c1.2-0.1,2.5-0.2,3.7-0.1c0.9,0,1.9,0.2,2.8,0.3c2,0.4,3.8,0.9,5.5,1.7c0.3-0.5,0.7-1.1,1-1.6c1.7-2.6,3.6-4.8,5.6-6.4l0.1-0.1
		c1.6-1.2,3.5-2.1,5.7-2.6c0.5-0.1,1-0.2,1.4-0.2c1.4-0.2,2.8-0.2,4.1-0.1l0,0c0.7,0,1.5,0.1,2.2,0.2c2,0.3,3.8,0.8,5.5,1.6
		c0.3-0.7,0.6-1.4,0.9-2c1.4-2.9,3.1-5.7,6.4-6.8c0.4-0.1,0.9-0.3,1.3-0.4c1-0.2,2.1-0.3,3.4-0.2c0.1,0,0.2,0,0.3,0
		c1.1,0.1,2.3,0.2,3.4,0.4c1.6-2.3,3.4-3.9,5.7-4.7l0.1,0c0.4-0.1,0.8-0.3,1.3-0.3c0.6-0.1,1.2-0.2,1.8-0.2c0.1-1,0.3-2.1,0.6-3.2
		c0-0.1,0.1-0.2,0.1-0.3c0.5-1.5,1.1-3,1.9-4.2c1.4-2.2,3.4-3.7,6.1-4.7l0.2-0.1c0.6-1.5,1.3-2.8,1.9-4c1.4-2.7,3.1-5.3,6.2-6.4
		c0.4-0.1,0.8-0.3,1.3-0.3c1-0.2,2.2-0.3,3.5-0.2l0,0c1.2,0.1,2.4,0.2,3.6,0.5c1.8,0.4,3.3,1,4.7,1.9v0l0,0c1.2,0.8,2.2,1.9,2.8,3.1
		c0.9,0.5,1.7,1.1,2.3,1.9c1.4,1.7,2.1,4,1.7,6.3c-0.2,1.1-0.4,2.3-0.8,3.6c0,0.1-0.1,0.3-0.1,0.4c-0.5,1.3-1,2.5-1.7,3.7
		c-1.4,2.5-3.5,4.3-6.3,5.3l0,0c-1.2,3.7-2.4,7.4-3.5,11.1c-1.4,4.7-2.6,9-3.5,12.7c-0.4,1.7-0.8,3.2-1.1,4.6
		c0.3,0.3,0.7,0.7,0.9,1.1c1,1.4,1.4,3.1,1.3,4.8c-0.1,1.3-0.4,2.3-0.6,2.8l0,0l-0.1,0.2c-0.4,1-0.8,2.1-1.3,3.3
		c-0.5,1.3-1.1,2.5-1.8,3.7c0.5,0.5,1,1.1,1.4,1.7c0.1,0.2,0.2,0.4,0.4,0.6c0.8,1.5,1.1,3.3,1,5.3c-0.1,1.2-0.3,2.5-0.6,3.8
		c-0.3,1.2-0.7,2.4-1.1,3.5c-0.1,0.2-0.2,0.4-0.2,0.6c0.3,1,0.5,2.1,0.5,3.2c0.1,2.3-0.4,4.7-1.5,7.3c-0.9,2.2-2.2,4.3-3.8,6.1
		c-1.4,1.6-3.3,2.7-5.7,3.4c-0.3,0.1-0.6,0.1-0.9,0.2c-1.4,0.3-2.8,0.4-4.3,0.3l-0.2,0c-0.9-0.1-1.8-0.2-2.7-0.4
		c-1.2,1.9-2.6,3.2-4.2,4.2l-0.2,0.1c-0.8,0.5-1.8,0.8-2.8,1c-0.5,0.1-1,0.2-1.6,0.2c-0.9,0.1-1.8,0.1-2.8,0.1c-0.3,0-0.6,0-0.9-0.1
		c-0.1,0-0.2,0-0.3,0c0.2,1.1,0.3,2.3,0.1,3.5c-0.2,1.4-0.8,2.7-1.7,3.8c-0.5,1.6-2,4.5-6.2,5.8c-0.4,0.1-0.8,0.2-1.3,0.3
		c-0.2,0-0.3,0.1-0.5,0.1c-0.2,0.1-0.4,0.1-0.7,0.2c-0.9,0.2-1.7,0.3-2.5,0.3l-0.3,0.2c-1,0.7-1.9,1.4-2.8,2.2
		c-1.2,1-2.3,1.9-3.1,2.7l0,0l0,0c-1.1,1-2.4,1.7-3.9,2c-0.7,0.1-1.3,0.2-2,0.2c-1.3-0.1-2.6-0.4-3.8-1.1l0,0
		c-0.5-0.3-1-0.6-1.4-0.9c-0.4,0.2-0.9,0.4-1.4,0.5l0,0l0,0c-1.2,0.3-2.6,0.8-4.1,1.3c-1.6,0.6-3.2,1.2-4.7,1.9
		c-1.5,0.7-2.9,1.4-4.1,2.1c-1.3,0.8-1.8,1.2-1.9,1.4l-0.1,0.1l0,0c-1.3,1.3-2.8,2.1-4.5,2.4c-0.7,0.1-1.4,0.2-2.1,0.2
		c-1-0.1-2-0.3-2.9-0.7c-1.8-0.8-3.3-2.2-4.4-4c-0.7-1.2-1.2-2.6-1.4-4c-0.3-2.1,0-4.1,0.9-5.8c0.1-0.1,0.2-0.3,0.2-0.4l0,0
		c0.8-1.3,1.9-2.5,3.4-3.8c0-0.1,0-0.3,0.1-0.4c0.3-1.9,0.7-4.1,1.1-6.4c0.4-2.3,0.9-4.7,1.5-7c0.3-1.4,0.6-2.8,1-4.1l-0.2,0
		c-1.2,0.2-2.4,0.2-3.6,0.1c-0.4,0-0.9-0.1-1.3-0.1c-1.7-0.2-3.3-0.6-4.8-1.2c-0.6-0.2-1.2-0.5-1.8-0.9c-0.4,0.6-0.8,1.1-1.1,1.6
		c-1.2,1.6-2.4,3.1-3.7,4.4c-1.5,1.6-3,2.7-4.5,3.5c-0.1,0-0.2,0.1-0.3,0.1l0,0c-0.9,0.4-2,0.8-3.2,1c-0.5,0.1-1,0.2-1.5,0.2
		c-1.2,0.2-2.4,0.2-3.6,0.1c-0.4,0-0.9-0.1-1.3-0.1c-0.9-0.1-1.8-0.3-2.7-0.5c-0.1,0.1-0.1,0.2-0.2,0.4c-0.6,1.2-1.3,2.4-2,3.3
		c-1.9,2.6-4.2,3.5-5.8,3.9l-0.2,0c-1.1,0.2-2.3,0.3-3.6,0.3c-0.4,0-0.8,0-1.1,0c-0.7,0-1.4-0.1-2.1-0.2c-1.6-0.2-3-0.6-4.4-1.3
		c-2.1-1-3.6-2.4-4.6-4.3c-0.4-0.7-0.7-1.5-1-2.4c-0.7,3-1.4,6.1-2,9.2l0,0.1c-0.6,2.4-2.1,4.6-4.6,6.4
		C62.2,152.3,60.6,153.1,58.9,153.8 M230.2,85.3c-1.2-5.7-6.3-10.4-11.3-13.8c0.5-2,1.1-4.1,1.7-6.3c6.8,4.2,13.8,10.4,15.6,18.8
		c1.1,5.2,0.2,11-2.8,17.3c-3.1,6.6-7.8,12.2-11.2,15.8l-5.6,5.9l-0.8,0.9l-0.3,1.2l-0.2,0.7l-2.2,0.5l-0.9,0.2l-0.7,0.5l-0.1,0
		c1.6-1.9,2.9-4.1,3.9-6.4c1-2.5,1.6-4.9,1.7-7.2l0.6-0.6c4.4-4.7,7.9-9.6,10.1-14.2C230.2,93.5,231,89.1,230.2,85.3 M205.7,131.1
		c-3.2,2.2-6.6,4.4-10.1,6.4l-7.5,4.3l-1.1,0.6l-0.6,1.1l-4.1,7.6c-3.3,6.1-7.4,11.3-12.1,15.3c-5,4.3-10.7,7.1-16.8,8.5
		c-6.1,1.3-12.4,1.1-18.8-0.7c-5.9-1.7-11.8-4.7-17.3-8.9l-6.9-5.2l-1-0.8l-1.3-0.1l-8.6-0.8c-4.4-0.4-8.8-1-13-1.8l-6-1.1l-0.9-0.2
		l-0.9,0.2l-3.6,0.8l-0.9-1.3l-0.7-1l-1.2-0.5l-4.8-2.1c1.6-1.6,2.6-3.4,3.2-5.4l4.1,1.8l2.8,1.2l0.2,0.3l1.6-0.4l2.1,0.4l6,1.1
		c4,0.7,8.1,1.3,12.4,1.7l8.6,0.8l3,0.3l2.4,1.8l5.3,4c0.2,0.5,0.4,1,0.7,1.4c1.3,2.3,3.2,4,5.6,5.1c1.2,0.5,2.5,0.9,3.9,0.9
		c0.6,0,1.3,0,1.9-0.1c1.6,0.7,3.2,1.2,4.8,1.7c5.4,1.5,10.7,1.7,15.8,0.6c5.1-1.1,9.8-3.5,14.1-7.1c3.5-3,6.6-6.7,9.3-11.2
		c0.1,0,0.2-0.1,0.3-0.1c3.8-1.2,6.6-3.7,7.8-7.1c1-1.3,1.6-2.9,1.9-4.6c0.1-0.4,0.1-0.8,0.1-1.2c0.5,0,1,0,1.4-0.1
		c0.7-0.1,1.3-0.2,1.8-0.3c1.3-0.3,2.5-0.7,3.5-1.3l0,0c0.1-0.1,0.2-0.1,0.3-0.2l0,0c1.5-0.9,2.8-2.1,4-3.6c0.5,0.1,0.9,0.1,1.4,0.1
		l0.2,0c1.7,0.1,3.4,0,5-0.4c0.3-0.1,0.7-0.1,1-0.2C204.7,131.4,205.2,131.3,205.7,131.1 M242.6,93.5c-0.6,3.6-1.8,7.1-3.4,10.4
		c-3.2,6.6-7.8,12.6-12.3,17.4l-5.2,5.6l-1,4.1l-5.7,1.2l-4.7,3.3c-3.7,2.6-7.6,5.1-11.6,7.3l-7.1,4l-3.9,7.1
		c-3.5,6.5-8,12.4-13.5,17.1c-5.5,4.7-12.1,8.2-19.5,9.8c-7.5,1.6-14.9,1.2-21.8-0.8c-7-2-13.5-5.5-19.4-9.9l-6.5-4.9l-8.1-0.7
		c-4.6-0.4-9.1-1-13.6-1.9l0,0l-5.7-1.1l-7.4,1.6l-3-4.3l-7.4-3.3l0,0l0,0c-0.1-0.1-0.3-0.1-0.4-0.2c0.7-0.3,1.4-0.7,2-1.1l7,3.1
		l2.6,3.7l6.5-1.4l6,1.1c4.4,0.8,8.9,1.4,13.4,1.8l8.6,0.8l6.9,5.2c11.4,8.6,25.4,13.5,39.7,10.4c14.3-3.1,25-13.3,31.8-25.9
		l4.1-7.6l7.5-4.3c3.9-2.2,7.7-4.6,11.4-7.2l5-3.5l4.9-1.1l0.8-3.5l5.6-5.9c8.9-9.4,18.1-23.5,15.2-37.1
		c-2.1-9.8-10.1-17.1-18.7-22.2c0.2-0.6,0.4-1.2,0.6-1.8c1.8,1.1,3.6,2.2,5.3,3.5c4.1,3,7.8,6.6,10.6,10.8c1.8,2.8,3.2,5.9,4,9.3
		C243.2,86.3,243.2,90,242.6,93.5"/>
	<polyline fill="#00A8A6" points="198.7,142.9 198.7,142.9 198.7,142.9 198.7,142.9 	"/>
	<polyline fill="#00A8A6" points="236.7,130.6 236.7,130.6 236.6,130.6 236.7,130.6 	"/>
	<path fill="#00A8A6" d="M172.9,111.5c-0.6,0.9-1.3,2.1-1.8,3.5c-0.6,1.4-1.1,2.9-1.5,4.5c-0.4,1.6-0.8,3.2-1.1,4.6
		c-0.3,1.4-0.4,2.6-0.5,3.5c-0.1,1,0,1.5,0.2,1.6c0.1,0.1,0.3-0.3,0.6-1.1c0.3-0.8,0.7-1.8,1.2-3c0.5-1.2,1-2.5,1.5-4
		c0.5-1.4,1-2.8,1.5-4.1c0.3-1.3,0.6-2.6,1-3.8c0.3-1.2,0.6-2.3,0.9-3.2C174.2,110.1,173.5,110.5,172.9,111.5"/>
	<path fill="#00A8A6" d="M157.5,126.5c0.4-1.8,0.8-3.5,1-5.1c0.3-1.6,0.4-2.9,0.5-4c0-1.1-0.1-1.6-0.4-1.7c-0.3,0-0.7,0.4-1.2,1.4
		c-0.4,1-0.9,2.2-1.4,3.7c-0.5,1.5-0.9,3.2-1.3,5c-0.4,1.8-0.8,3.5-1,5.1c-0.3,1.6-0.4,2.9-0.4,4c0,1.1,0.1,1.7,0.4,1.8
		c0.3,0.1,0.6-0.4,1.1-1.4c0.4-1,0.9-2.3,1.4-3.8C156.7,130,157.1,128.3,157.5,126.5"/>
	<path fill="#00A8A6" d="M189.5,104.6c-0.3,0-0.7,0.4-1.2,1.4c-0.4,1-0.9,2.2-1.4,3.7c-0.5,1.5-0.9,3.2-1.3,5
		c-0.4,1.8-0.8,3.5-1,5.1c-0.3,1.6-0.4,2.9-0.4,4c0,1.1,0.1,1.7,0.4,1.8c0.3,0.1,0.6-0.4,1.1-1.4c0.4-1,0.9-2.3,1.4-3.8
		c0.5-1.5,0.9-3.2,1.3-5c0.4-1.8,0.8-3.5,1.1-5.1c0.3-1.6,0.4-2.9,0.5-4C189.9,105.2,189.8,104.6,189.5,104.6"/>
	<path fill="#00A8A6" d="M76.8,110.9c0.1,0,0.3-0.1,0.4-0.2c0.1-0.1,0.3-0.2,0.4-0.2c0.5-4.6,1.1-9.2,1.8-13.8
		c0.7-4.7,1.5-9,2.3-12.9c-3,5.7-5.6,11-7.7,15.9c-2.1,4.9-3.9,9.5-5.3,13.9c1.8-0.5,3.4-0.9,4.8-1.4
		C75,111.7,76.1,111.3,76.8,110.9"/>
	<path fill="#00A8A6" d="M156.2,89.4c1-1.4,2-3.1,3-5.1c1-2,2-4.1,2.8-6.4c0.9-2.3,1.5-4.4,1.9-6.3c0.2-0.9,0.2-1.4,0.1-1.5
		c-0.1-0.1-0.5,0.2-1.2,1.1c-0.8,1.2-1.7,2.6-2.7,4.3c-1,1.7-1.9,3.5-2.7,5.5c-0.9,1.9-1.6,3.9-2.3,5.8c-0.7,1.9-1.2,3.7-1.5,5.3
		C154.3,91.7,155.2,90.9,156.2,89.4"/>
	<path fill="#00A8A6" d="M65.2,144c0.9-4,1.8-8,2.7-11.9c0.8-3.3,1.7-6.7,2.7-10.2c0.7-0.3,1.5-0.7,2.2-1c-0.1,2.2-0.1,4.2-0.1,6
		c0,4.5,0.6,7.4,1.7,9.4c0.6,1.2,1.7,2.2,3.1,2.9c1,0.5,2.2,0.8,3.4,1c0.6,0.1,1.2,0.1,1.9,0.2c0.3,0,0.7,0,1,0c0.3,0,0.5,0,0.8,0
		c0.1,0,0.2,0,0.3,0c0.2,0,0.3,0,0.5,0c0.1,0,0.2,0,0.3,0c0.1,0,0.3,0,0.4-0.1c0.1,0,0.2,0,0.3,0c0.1,0,0.2,0,0.3-0.1l0.2,0
		c1.1-0.2,2.6-0.9,3.9-2.6c0.6-0.8,1.2-1.8,1.7-2.8c0.5-1,0.9-2,1.2-3.2c0.3,0.2,0.7,0.3,1,0.5c1.2,0.5,2.6,0.8,4,1
		c0.4,0,0.7,0.1,1.1,0.1c1,0.1,2,0,3-0.1c0.2,0,0.4-0.1,0.6-0.1l0.2,0c0.1,0,0.3,0,0.4-0.1l0.1,0l0.1,0c0.2,0,0.3-0.1,0.5-0.1l0.2,0
		c0.2-0.1,0.4-0.1,0.5-0.2l0.1,0c0.1,0,0.3-0.1,0.4-0.1l0.2-0.1c0.2-0.1,0.3-0.1,0.5-0.2l0.2-0.1c1.2-0.6,2.4-1.6,3.7-2.9
		c1.1-1.2,2.3-2.5,3.4-4c1.1-1.5,2.1-3.1,3-4.8c0.9,1.3,2.2,2.2,3.8,2.9c1.2,0.5,2.6,0.8,4,1c0.4,0,0.7,0.1,1.1,0.1c1,0.1,2,0,3-0.1
		c0.2,0,0.4-0.1,0.6-0.1l0.2,0c0.1,0,0.3,0,0.4-0.1l0.1,0l0.1,0c0.2,0,0.3-0.1,0.5-0.1l0.1,0c0.2-0.1,0.4-0.1,0.6-0.2l0.1,0
		c0.1,0,0.3-0.1,0.4-0.2l0.1-0.1c0.2-0.1,0.3-0.1,0.5-0.2l0.2-0.1c0.5-0.3,1-0.6,1.5-1l0,0.1c-0.3,1-0.6,2.1-0.9,3.3
		c-0.6,2.2-1.1,4.5-1.6,6.8c-0.5,2.3-1,4.6-1.4,6.9c-0.4,2.3-0.8,4.4-1.1,6.3l0,0.3c0,0.4,0,0.8,0,1.2c-0.2,0.1-0.3,0.3-0.5,0.4
		c-1.6,1.3-2.7,2.5-3.5,3.7l-0.1,0.2c-0.6,1-0.7,2.2-0.5,3.7c0.2,1,0.5,2,1,2.9c0.7,1.2,1.7,2.1,2.9,2.6c0.6,0.2,1.2,0.4,1.8,0.4
		l0.2,0h0.1l0.3,0h0c0.1,0,0.2,0,0.3,0l0.1,0c0.2,0,0.4-0.1,0.6-0.1l0.1,0l0.2-0.1l0.1,0l0.2-0.1l0.1,0c0.2-0.1,0.4-0.2,0.7-0.3
		l0.1-0.1l0.2-0.2l0.1-0.1l0.2-0.2l0.1-0.1c0.1-0.1,0.2-0.2,0.3-0.3l0,0c0.4-0.4,1.2-1.1,2.6-1.9c1.4-0.8,2.9-1.6,4.4-2.3
		c1.6-0.7,3.3-1.4,4.9-2c1.7-0.6,3.1-1.1,4.4-1.4l0,0c0.9-0.2,1.8-0.8,2.5-1.6c0.2,0.2,0.4,0.4,0.6,0.6l0,0c0.7,0.7,1.5,1.3,2.3,1.7
		l0,0c0.8,0.4,1.6,0.7,2.4,0.7c0.2,0,0.4,0,0.6,0l0.2,0c0.1,0,0.3,0,0.4-0.1l0.1,0l0.1,0c0.2,0,0.3-0.1,0.5-0.1l0.1,0
		c0.2-0.1,0.4-0.1,0.5-0.2l0.1-0.1c0.1-0.1,0.3-0.1,0.4-0.2l0.1-0.1c0.2-0.1,0.3-0.2,0.4-0.4l0,0c0.9-0.9,2-1.8,3.3-2.9
		c1-0.8,2-1.6,3-2.3c0.3-0.2,0.7-0.5,1-0.7l0.2-0.1c0.1,0,0.2,0,0.3,0c0.2,0,0.4,0,0.6,0l0.2,0c0.2,0,0.4,0,0.5,0l0,0
		c0.2,0,0.4,0,0.6-0.1l0.1,0c0.2,0,0.3-0.1,0.5-0.1l0,0l0,0c0.1,0,0.2,0,0.3-0.1l0.1,0c0.1,0,0.2,0,0.3-0.1c0.1,0,0.2,0,0.3,0l0,0
		l0.2,0l0.1,0l0.2,0l0.2-0.1c0.1,0,0.3-0.1,0.5-0.1c3-0.9,3.8-2.8,4.1-3.9c0-0.1,0-0.2,0.1-0.3c0.8-0.7,1.2-1.7,1.4-2.8
		c0.2-1.1,0-2.3-0.4-3.4c0.2-1.1,0.4-2.4,0.6-3.6c0.2,0.1,0.4,0.2,0.7,0.2c0.9,0.3,1.9,0.5,2.9,0.6c0.2,0,0.5,0,0.8,0.1
		c0.8,0,1.5,0,2.3-0.1c0.2,0,0.4,0,0.6-0.1l0.2,0c0.1,0,0.3,0,0.4-0.1l0.1,0l0,0c0.2,0,0.3-0.1,0.5-0.1l0.1,0c0.1,0,0.3-0.1,0.4-0.1
		l0.1-0.1c0.1,0,0.2-0.1,0.3-0.1l0.1-0.1c0.1-0.1,0.3-0.1,0.4-0.2l0.1-0.1c1.3-0.8,2.4-1.9,3.4-3.6c0.3-0.5,0.6-1.1,1-1.7l0.1,0.1
		c1.3,0.6,2.8,0.9,4.3,1l0.1,0c0.3,0,0.7,0,1,0c0.1,0,0.2,0,0.3,0c0.2,0,0.5,0,0.7,0c0.1,0,0.2,0,0.3,0c0.2,0,0.4-0.1,0.6-0.1
		c0.1,0,0.2,0,0.3-0.1l0.2,0l0,0l0,0c0.2,0,0.4-0.1,0.6-0.1c1.8-0.5,3.1-1.2,4.1-2.3c1.4-1.6,2.5-3.3,3.3-5.2c0.9-2.1,1.3-4,1.2-5.9
		c0-1.3-0.3-2.4-0.9-3.4c0.3-0.5,0.6-1,0.8-1.7c0.4-1,0.7-2,1-3c0.3-1.1,0.4-2.1,0.5-3.1c0.1-1.5-0.1-2.7-0.6-3.7
		c-0.1-0.1-0.1-0.2-0.2-0.4c-0.6-0.9-1.5-1.7-2.7-2.4l0,0c-0.1-0.1-0.2-0.1-0.3-0.2c0.5-0.7,1-1.4,1.5-2.2c0.7-1.1,1.3-2.3,1.8-3.6
		c0.5-1.2,0.9-2.2,1.2-3.2l0-0.1c0.3-0.8,1-2.8-0.3-4.7c-0.5-0.7-1.1-1.2-1.9-1.6c0.4-2,0.9-4.2,1.5-6.8c0.9-3.8,2.1-8.1,3.6-12.9
		c1.3-4.2,2.6-8.4,4.1-12.7l1.6-0.5c1.9-0.7,3.5-2,4.5-3.7c0.6-1,1.1-2.1,1.5-3.3l0.1-0.2c0.3-1.1,0.6-2.1,0.7-3.1
		c0.2-1.4-0.2-2.7-1-3.8c-0.6-0.7-1.4-1.2-2.3-1.5c-0.3-1.1-1.1-2.2-2.2-2.9l0,0c-1-0.7-2.1-1.1-3.5-1.4c-1-0.2-2-0.3-3.1-0.4h0h0
		c-0.3,0-0.6,0-0.9,0l-0.2,0c-0.2,0-0.4,0-0.7,0l-0.2,0c-0.3,0-0.5,0.1-0.7,0.1l-0.1,0c-0.2,0.1-0.5,0.1-0.7,0.2
		c-1.9,0.7-3.2,2.4-4.4,4.8c-0.7,1.4-1.5,3.1-2.3,5.1l-1.6,0.5c-1.9,0.7-3.4,1.8-4.4,3.3c-0.6,1-1.2,2.2-1.6,3.4l0,0.2
		c-0.4,1.3-0.5,2.6-0.5,3.7c0,0.8,0.2,1.6,0.5,2.3c-0.7-0.1-1.5-0.2-2.2-0.3h0l0,0c-0.3,0-0.6,0-0.9,0l-0.2,0c-0.2,0-0.4,0-0.7,0
		l-0.2,0c-0.3,0-0.5,0.1-0.7,0.1l-0.1,0c-0.2,0.1-0.5,0.1-0.7,0.2l-0.1,0c-1.8,0.6-3.2,2.1-5.3,5.5c-0.6-0.2-1.2-0.4-1.9-0.6l0,0
		c-1-0.2-2-0.4-3.1-0.4l-0.3,0c-0.2,0-0.4,0-0.6,0l-0.2,0c-0.2,0-0.3,0-0.5,0l-0.1,0c-0.2,0-0.4,0-0.6,0.1l-0.1,0
		c-0.1,0-0.3,0-0.4,0.1l-0.1,0c-0.1,0-0.2,0-0.3,0.1l-0.1,0c-0.1,0-0.3,0.1-0.4,0.1c-2,0.7-3.2,2.6-4.5,5.1
		c-0.7,1.5-1.5,3.4-2.4,5.5c-0.6-0.6-1.4-1.2-2.4-1.7c-1.5-0.8-3.2-1.3-5.1-1.6c-0.6-0.1-1.3-0.2-1.9-0.2c-1.2-0.1-2.4,0-3.6,0.1
		c-0.4,0-0.7,0.1-1.1,0.2l-0.1,0l-0.3,0.1l-0.3,0.1c-0.2,0-0.4,0.1-0.5,0.1l-0.2,0c-0.2,0.1-0.4,0.1-0.7,0.2l-0.2,0.1
		c-0.2,0.1-0.3,0.1-0.5,0.2l-0.2,0.1c-0.1,0.1-0.3,0.1-0.4,0.2l-0.2,0.1c-0.1,0.1-0.3,0.2-0.4,0.2l-0.2,0.1
		c-0.2,0.1-0.3,0.2-0.5,0.4l-0.1,0.1c-1.7,1.4-3.4,3.3-5,5.7c-0.9,1.4-1.8,2.9-2.6,4.4c-0.6-0.6-1.4-1.1-2.4-1.6
		c-1.5-0.7-3.1-1.2-4.8-1.5c-0.8-0.1-1.6-0.2-2.4-0.3c-1-0.1-2.1,0-3.1,0.1c-0.3,0-0.7,0.1-1,0.2l-0.1,0c-0.1,0-0.2,0.1-0.3,0.1
		l-0.2,0.1c-0.2,0.1-0.4,0.1-0.6,0.2l-0.1,0c-0.2,0.1-0.5,0.2-0.7,0.2l-0.2,0.1c-0.2,0.1-0.3,0.1-0.4,0.2l-0.2,0.1
		c-0.1,0.1-0.3,0.1-0.4,0.2l-0.2,0.1c-0.1,0.1-0.3,0.2-0.4,0.3l-0.2,0.1c-0.2,0.1-0.4,0.3-0.5,0.4c-1.6,1.3-3.1,3.1-4.6,5.4
		c-0.9,1.4-1.8,3-2.6,4.6c-0.6-0.6-1.5-1.2-2.5-1.7c-1.5-0.7-3.1-1.2-4.8-1.5c-0.8-0.1-1.6-0.2-2.4-0.3c-1-0.1-2.1,0-3.2,0.1
		c-0.3,0-0.7,0.1-1,0.2l-0.1,0c-0.1,0-0.2,0.1-0.3,0.1l-0.2,0.1c-0.2,0.1-0.4,0.1-0.6,0.2l-0.1,0c-0.2,0.1-0.4,0.2-0.7,0.2l-0.2,0.1
		c-0.1,0.1-0.3,0.1-0.4,0.2l-0.2,0.1c-0.1,0.1-0.3,0.1-0.4,0.2l-0.2,0.1l-0.1,0.1l-0.3,0.2l-0.2,0.1c-0.2,0.1-0.4,0.3-0.5,0.4
		c-1.6,1.3-3.1,3.1-4.6,5.4C96,89.3,95,91.1,94,93c0.4-2.2,0.8-4.5,1.3-6.8C96.1,82.3,97,78.6,98,75l0,0c0.6-2.4-0.2-4.8-2.3-6.3
		c-1.1-0.8-2.4-1.4-3.8-1.8h0c-1.3-0.4-2.6-0.6-3.8-0.7l-0.2,0c-0.2,0-0.4,0-0.7,0l-0.2,0c-0.1,0-0.3,0-0.4,0l-0.2,0
		c-0.1,0-0.2,0-0.3,0l-0.2,0c-0.1,0-0.2,0-0.3,0.1l-0.1,0l-0.2,0l-0.2,0l-0.3,0.1l-0.2,0.1c-0.1,0-0.2,0.1-0.3,0.1l-0.1,0.1
		c-0.1,0.1-0.3,0.1-0.4,0.2l-0.1,0c-1.2,0.7-2.4,1.9-5.1,6.1c-1.8,2.8-3.9,6.5-6.2,10.7c-2.2,4.2-4.7,9-7.3,14.2
		c-2.3,4.6-4.4,9.2-6.4,13.8c-1,0.2-2,0.4-3.1,0.7c-0.4,0.1-0.8,0.2-1.1,0.2c-0.1,0-0.2,0-0.3,0.1c-0.3,0.1-0.6,0.1-0.8,0.2
		c-0.1,0-0.2,0-0.3,0.1c-0.3,0.1-0.6,0.1-0.8,0.1l-0.3,0c-0.4,0.1-0.7,0.1-1.1,0.2c-1.5,0.2-3,0.5-4.3,0.7c-1.2,0.2-2.1,0.3-2.9,0.3
		l-0.1,0c-0.2,0-0.5,0-0.7,0.1l-0.2,0h0c-0.1,0-0.3,0.1-0.4,0.1l-0.2,0c-0.1,0-0.3,0.1-0.4,0.1l-0.2,0.1c-0.1,0.1-0.3,0.1-0.4,0.2
		l-0.1,0l-0.2,0.1v0c-0.1,0.1-0.2,0.1-0.3,0.2l-0.1,0.1c-0.1,0.1-0.2,0.2-0.3,0.2l-0.1,0.1c-0.1,0.1-0.2,0.2-0.3,0.3l-0.1,0.1
		c-0.1,0.1-0.3,0.3-0.4,0.4c-0.9,1.1-1.3,2.6-1.1,4.1c0.3,1.7,1.1,3.3,2.5,4.9c1.1,1.3,2.4,2.4,3.9,3.3c1.5,0.9,2.8,1.4,4.2,1.5
		c0.2,0,0.3,0,0.5,0l0.1,0c0.1,0,0.2,0,0.3,0l0.1,0c0.2,0,0.3,0,0.5-0.1h0c0.2,0,0.3-0.1,0.5-0.1c0.3-0.1,0.6-0.2,1-0.3
		c-0.6,1.8-1.2,3.6-1.7,5.4c-1.3,4.6-2,8.3-2.1,11.2c-0.1,1.4,0.3,2.7,1.2,3.6c0.6,0.7,1.8,1.7,3.8,1.8c0.1,0,0.3,0,0.5,0
		c0.2,0,0.3,0,0.5,0l0.2,0l0,0c0.1,0,0.2,0,0.3,0l0.2,0c0.1,0,0.2,0,0.3,0l0.2,0c0.1,0,0.2,0,0.3-0.1c0.1,0,0.2,0,0.3-0.1l0.2-0.1
		c0.1,0,0.2-0.1,0.3-0.1l0.2-0.1c0.1,0,0.3-0.1,0.4-0.1l0.2-0.1c0.2-0.1,0.4-0.1,0.6-0.2c1.5-0.6,2.8-1.3,4.1-2.2
		C63.7,147.2,64.7,145.7,65.2,144L65.2,144 M149.8,146.3c0,0.6-0.2,0.9-0.5,1c-1.4,0.4-3,0.9-4.7,1.5c-1.8,0.6-3.5,1.3-5.3,2.1
		c-1.7,0.8-3.3,1.6-4.8,2.5c-1.5,0.9-2.7,1.7-3.5,2.6c-0.4,0.4-0.8,0.6-1.2,0.4c-0.4-0.2-0.7-0.5-0.9-0.9c-0.2-0.4-0.4-0.9-0.5-1.4
		c-0.1-0.5-0.1-0.9,0.1-1.1c0.5-0.8,1.4-1.7,2.6-2.7c1.2-1,2.6-2,4.1-2.9c-0.6-0.1-1.1-0.3-1.5-0.5c-0.4-0.3-0.6-0.6-0.6-1
		c0.3-1.8,0.6-3.8,1-6.1c0.4-2.2,0.9-4.5,1.4-6.8c0.5-2.3,1-4.5,1.6-6.7c0.6-2.2,1.1-4.1,1.6-5.8c0.2-0.6,0.2-0.9,0.1-1
		c-0.1-0.1-0.2-0.1-0.4-0.1c-0.2,0.1-0.4,0.1-0.6,0.2c-0.2,0.1-0.4,0.1-0.4,0c-0.1-0.1,0-0.3,0.1-0.7c0.2-0.4,0.4-0.8,0.8-1.2
		c0.3-0.4,0.7-0.9,1.2-1.4c0.5-0.5,1-0.8,1.6-1c0.2-0.1,0.6-0.1,1.2,0c0.6,0.1,1.1,0.2,1.6,0.5c0.5,0.2,0.9,0.5,1.3,0.8
		c0.3,0.3,0.4,0.7,0.3,1c-0.8,2.1-1.6,4.4-2.3,6.8c-0.7,2.4-1.4,4.9-2,7.4c-0.6,2.5-1.1,4.9-1.6,7.2c-0.5,2.4-0.9,4.5-1.3,6.4
		c1.2-0.6,2.3-1.3,3.4-1.8c1.1-0.6,2.1-1.1,3-1.4c0.9-0.4,1.7-0.7,2.3-0.8c0.6-0.2,1.1-0.2,1.2-0.1c0.3,0.2,0.6,0.6,0.9,1.2
		c0.3,0.6,0.5,1.3,0.6,2C149.8,145.1,149.9,145.7,149.8,146.3 M152.9,138.5c-0.8-0.1-1.5-0.2-2.2-0.4c-0.7-0.2-1.1-0.5-1.3-0.8
		c-0.4-0.7-0.7-1.7-0.8-2.9c-0.1-1.2-0.1-2.6,0-4.1c0.1-1.5,0.4-3.1,0.7-4.7c0.3-1.6,0.8-3.2,1.3-4.6c0.5-1.4,1.1-2.7,1.7-3.8
		c0.6-1.1,1.3-1.9,2-2.4c0.5-0.3,1.2-0.5,2-0.6c0.8-0.1,1.6,0,2.4,0.1c0.8,0.1,1.6,0.4,2.3,0.7c0.7,0.3,1.2,0.8,1.5,1.3
		c0.4,0.6,0.5,1.5,0.6,2.7c0,1.2,0,2.6-0.2,4c-0.2,1.5-0.5,3-0.9,4.7c-0.4,1.6-0.9,3.2-1.5,4.6c-0.6,1.4-1.2,2.7-1.8,3.7
		c-0.7,1.1-1.3,1.8-2,2.2c-0.3,0.2-0.8,0.3-1.5,0.3C154.4,138.6,153.7,138.6,152.9,138.5 M178.6,113.4c-0.3,1.4-0.6,2.8-0.9,4.2
		c-0.2,1.2-0.4,2.3-0.6,3.3l0-0.1c0,0-1.3,8.6-2.3,14.2c0.2,0.2,0.3,0.5,0.5,0.7c0.2,0.4,0.3,0.8,0.2,1.2c-0.1,0.4-0.4,0.7-0.9,0.8
		l-0.2,0c-0.2,1.1-0.3,1.8-0.3,2c-0.2,0.9-2.3,1.1-2.3,1.1s-2.1,0.6-2.9,0.1c0-0.2,0-0.3,0-0.5c-0.1,0.1-0.2,0.1-0.3,0.2
		c-0.7,0.4-1.3,0.9-2,1.3c-0.4,0.3-0.7,0.5-1.1,0.8c-1.1,0.8-2.1,1.6-3.2,2.4c-1.4,1.1-2.6,2.2-3.5,3.1c-0.2,0.2-0.5,0.2-1-0.1
		c-0.4-0.2-0.9-0.6-1.4-1.1c-0.5-0.5-0.9-0.9-1.2-1.5c-0.3-0.5-0.5-1-0.5-1.3c0-0.2,0.3-0.5,0.7-1c0.4-0.4,1-0.9,1.8-1.5
		c0.7-0.5,1.6-1.1,2.6-1.7c0.5-0.3,1-0.6,1.5-0.9c1.4-0.8,3.1-1.7,4.7-2.5c0.7-0.4,1.5-0.7,2.1-1c0.4-0.2,0.8-0.4,1.2-0.5l0.2-0.1
		c0.2-1.2,0.4-2.4,0.6-3.7c0.4-2.2,0.8-4.5,1.2-6.7c-0.4,1.1-0.8,2.2-1.3,3.3c-0.4,1.1-0.8,2.1-1.2,2.9c-0.3,0.7-0.6,1.3-0.9,1.8
		l-0.7,1.1l-0.1,0.1c-0.3,0.1-0.7,0.2-1.1,0.1c-0.4,0-0.8-0.1-1.2-0.3c-0.4-0.1-0.7-0.3-1-0.6c-0.3-0.2-0.5-0.5-0.6-0.7
		c-0.2-0.5-0.3-1.4-0.3-2.6c0-1.2,0.1-2.7,0.4-4.3c0.2-1.6,0.6-3.3,1-5.1c0.4-1.8,1-3.6,1.6-5.2c0.6-1.7,1.3-3.2,2.1-4.5
		c0.8-1.4,1.7-2.4,2.7-3c0.3-0.2,0.6-0.3,1-0.3c0.4,0,0.8,0.1,1.2,0.2c0.4,0.1,0.8,0.2,1.2,0.4c0.4,0.2,0.8,0.3,1,0.4
		c0.3-0.8,0.5-1.4,0.8-1.9c0.3-0.5,0.5-0.8,0.7-0.8c0.2-0.1,0.6-0.2,1.1-0.2c0.5,0,0.9,0,1.4,0.1c0.5,0.1,0.8,0.2,1.1,0.4
		c0.3,0.2,0.4,0.4,0.2,0.7c-0.3,0.6-0.6,1.5-0.9,2.7C179.3,110.7,179,112,178.6,113.4 M192.8,116.5c-0.4,1.6-0.9,3.2-1.5,4.6
		c-0.6,1.4-1.2,2.7-1.8,3.7c-0.7,1.1-1.3,1.8-2,2.2c-0.3,0.2-0.8,0.3-1.5,0.4c-0.7,0.1-1.5,0.1-2.2,0c-0.8-0.1-1.5-0.2-2.2-0.4
		c-0.7-0.2-1.1-0.5-1.3-0.8c-0.4-0.7-0.7-1.7-0.8-2.9c-0.1-1.2-0.1-2.6,0-4.1c0.1-1.5,0.4-3.1,0.7-4.7c0.3-1.6,0.8-3.2,1.3-4.6
		c0.5-1.4,1.1-2.7,1.7-3.8c0.6-1.1,1.3-1.9,2-2.4c0.5-0.3,1.2-0.5,2-0.6c0.8-0.1,1.6,0,2.4,0.1c0.8,0.1,1.6,0.4,2.3,0.7
		c0.7,0.4,1.2,0.8,1.5,1.3c0.4,0.6,0.5,1.5,0.6,2.7c0,1.2,0,2.5-0.2,4C193.5,113.3,193.2,114.9,192.8,116.5 M208.5,101
		c0,0.7-0.2,1.5-0.4,2.4c-0.2,0.8-0.5,1.6-0.8,2.4c-0.3,0.8-0.7,1.4-1.1,1.8c-0.3,0.3-0.7,0.6-1.3,0.8c-0.5,0.2-1,0.3-1.5,0.4
		c-0.5,0.1-0.9,0.1-1.2,0c-0.3-0.1-0.4-0.3-0.3-0.6c0.3-0.7,0.6-1.4,0.9-2.1c0.3-0.7,0.6-1.5,0.8-2.2c0.2-0.7,0.5-1.4,0.6-2
		c0.2-0.6,0.3-1.2,0.4-1.6c0.1-0.5,0.1-0.8,0-0.9c-0.1-0.1-0.3,0.1-0.6,0.7c-0.1,0.2-0.3,0.6-0.6,1.3c-0.3,0.6-0.6,1.4-1,2.2
		c-0.3,0.8-0.7,1.7-1,2.6c-0.3,0.9-0.5,1.7-0.7,2.3c-0.2,0.7-0.2,1.2-0.1,1.6c0.1,0.4,0.3,0.5,0.7,0.3c1.9-0.7,3.3-0.8,4.2-0.2
		c0.9,0.5,1.3,1.4,1.3,2.6c0,1.2-0.3,2.6-0.9,4.1c-0.6,1.5-1.5,2.9-2.6,4.1c-0.4,0.5-1.1,0.8-2,1c-0.9,0.3-1.9,0.3-3,0.3
		c-1-0.1-2-0.3-2.9-0.7c-0.9-0.4-1.5-0.9-1.8-1.7c-0.3-0.7-0.3-1.6-0.1-2.7c0.2-1.1,0.6-1.9,1.2-2.5c0.3-0.3,0.8-0.6,1.4-0.8
		c0.6-0.2,1.2-0.3,1.7-0.3c0.5,0,1,0.1,1.3,0.2c0.3,0.2,0.4,0.5,0.2,0.9c-0.2,0.6-0.4,1.4-0.6,2.2c-0.2,0.8-0.3,1.5-0.3,2.1
		c0,0.6,0,1,0.1,1.2c0.1,0.2,0.3,0,0.6-0.5c0.1-0.2,0.3-0.6,0.6-1.1c0.3-0.5,0.6-1.1,0.8-1.8c0.3-0.7,0.5-1.3,0.8-2
		c0.2-0.7,0.4-1.2,0.5-1.7c0.1-0.5,0-0.9-0.1-1.1c-0.1-0.3-0.5-0.3-0.9-0.1c-1.5,0.6-2.6,0.8-3.4,0.7c-0.8-0.1-1.4-0.5-1.7-1.1
		c-0.4-0.7-0.5-1.7-0.3-2.9c0.2-1.3,0.6-2.6,1.1-3.9c0.5-1.4,1.2-2.7,1.9-3.9c0.7-1.2,1.4-2.1,2.1-2.7c0.5-0.4,1.1-0.6,1.8-0.6
		c0.8,0,1.5,0.1,2.3,0.3c0.8,0.2,1.5,0.5,2.1,0.8c0.6,0.3,1,0.7,1.2,1C208.5,99.7,208.6,100.2,208.5,101 M203.7,48.1
		c-0.9,0.3-1.4,0.1-1.4-0.7c0-0.8,0.1-1.7,0.4-2.6c0.3-0.9,0.6-1.7,1.1-2.4c0.5-0.7,1.2-1.3,2.2-1.6l3.4-1.2c1-2.7,2-4.8,2.8-6.5
		c0.9-1.7,1.6-2.6,2.1-2.8c0.4-0.2,1.1-0.2,1.9-0.2c0.8,0,1.7,0.2,2.5,0.3c0.8,0.2,1.5,0.4,2,0.8c0.5,0.3,0.7,0.8,0.5,1.3l-1.5,3.5
		l3.3-1.1c1-0.4,1.5-0.2,1.4,0.5c-0.1,0.7-0.3,1.5-0.6,2.4c-0.3,0.9-0.8,1.8-1.2,2.7c-0.5,0.9-1.2,1.5-2.2,1.8l-3.5,1.2
		c-1.7,5-3.3,9.9-4.8,14.7c-1.5,4.9-2.7,9.2-3.6,13.1c-0.9,3.9-1.6,7.1-2.1,9.6c-0.4,2.5-0.4,3.8,0,4c0.1,0,0.3-0.1,0.7-0.5
		c0.4-0.4,0.8-0.7,1.2-1c0.4-0.3,0.7-0.4,1-0.5c0.2,0,0.2,0.4,0,1.1c-0.3,0.9-0.7,1.9-1.2,3c-0.4,1.1-0.9,2.1-1.5,3
		c-0.6,0.9-1.1,1.7-1.7,2.4c-0.6,0.7-1.1,1.1-1.6,1.3c-0.6,0.2-1.2,0.2-1.9,0.1c-0.7-0.1-1.4-0.3-2.1-0.6c-0.7-0.3-1.3-0.6-1.8-1.1
		c-0.5-0.5-0.8-0.9-1-1.4c-0.3-0.9-0.2-3,0.3-6.1c0.5-3.1,1.3-6.8,2.3-11c1-4.2,2.2-8.7,3.6-13.4c1.4-4.7,2.7-9.2,4.1-13.4
		L203.7,48.1 M172.3,77.6c1-3.3,2-6.3,3-9.1c1-2.8,2-5.1,2.9-6.9c0.9-1.8,1.6-2.8,2.1-3c0.5-0.2,1.1-0.2,2-0.2
		c0.9,0,1.7,0.1,2.6,0.3c0.8,0.2,1.5,0.5,2.1,0.8c0.5,0.3,0.7,0.7,0.4,1.2c-0.5,1-1.2,2.5-2.1,4.6c-0.9,2.1-1.9,4.6-3,7.4
		c-1.1,2.9-2.2,6.1-3.4,9.7c-1.2,3.6-2.2,7.3-3.1,11.3c1.3-4.2,2.8-8.5,4.5-13.1c1.8-4.6,3.5-8.8,5.4-12.7c1.8-3.9,3.5-7.2,5.1-9.8
		c1.6-2.6,2.8-4.1,3.6-4.4l0.1,0c0.4-0.2,1.1-0.2,1.9-0.2c0.8,0,1.6,0.2,2.4,0.4c0.8,0.2,1.4,0.5,1.9,0.8c0.5,0.3,0.6,0.7,0.4,1.2
		c-0.2,0.6-0.7,1.9-1.3,3.7c-0.6,1.9-1.4,4.1-2.2,6.5c-0.8,2.5-1.6,5-2.4,7.8c-0.8,2.7-1.5,5.2-2.1,7.5c-0.6,2.3-1,4.3-1.2,5.8
		c-0.3,1.6-0.2,2.5,0.1,2.6c0.1,0,0.3-0.1,0.7-0.5c0.4-0.4,0.8-0.7,1.2-1c0.4-0.3,0.7-0.4,1-0.5c0.2,0,0.2,0.4,0,1.1
		c-0.3,0.9-0.7,1.9-1.2,3c-0.4,1.1-0.9,2.1-1.5,3c-0.6,0.9-1.1,1.7-1.7,2.4c-0.6,0.7-1.1,1.1-1.6,1.3c-0.6,0.2-1.2,0.2-2,0.1
		c-0.7-0.1-1.4-0.3-2.1-0.6c-0.7-0.3-1.3-0.6-1.8-1.1c-0.5-0.5-0.8-0.9-1-1.4c-0.3-0.9-0.3-2.3-0.1-4.3c0.2-2,0.6-4.2,1.2-6.8
		c0.6-2.5,1.2-5.2,2-8.1c0.8-2.9,1.6-5.7,2.5-8.3c-1.2,2.4-2.4,5.1-3.6,8.1c-1.2,3-2.4,6-3.5,9.1c-1.1,3.1-2.1,6.1-3,9
		c-0.9,2.9-1.6,5.5-2.1,7.8c-0.1,0.2-0.2,0.4-0.2,0.7c-0.1,0.6-0.5,0.9-1.2,0.9c-0.7,0-1.5-0.2-2.3-0.6c-0.8-0.4-1.6-0.9-2.4-1.5
		c-0.7-0.6-1.2-1.1-1.3-1.6c-0.3-1-0.3-2.7,0-5.1c0.4-2.4,0.9-5.1,1.6-8.1C170.4,84,171.3,80.9,172.3,77.6 M148.2,78.9
		c1.1-2.5,2.3-4.8,3.6-6.8c1.3-2,2.7-3.6,4.1-4.8c0.9-0.7,2-1.1,3.5-1.3c1.5-0.2,2.9-0.2,4.4,0c1.4,0.2,2.7,0.6,3.8,1.2
		c1.1,0.6,1.8,1.3,2,2.1c0.3,1,0.2,2.7-0.2,5.1c-0.4,2.4-1,4.9-2,7.5c-0.9,2.7-2,5.2-3.2,7.5c-1.3,2.4-2.6,4-4.1,5
		c-0.9,0.6-2.1,0.8-3.4,0.6c-1.3-0.2-2.6-0.6-3.7-1c-0.6,3.8-0.7,6.8-0.4,9.2c0.3,2.4,1.4,3.3,3.1,2.9c0.5-0.2,1.2-0.6,1.9-1.3
		c0.8-0.7,1.6-1.5,2.5-2.5c0.9-1,1.8-2.2,2.8-3.5c1-1.3,2-2.6,3-4c0.6-1,1.1-1.4,1.4-1.3c0.3,0.1,0.2,0.7-0.1,1.7
		c-0.6,1.6-1.4,3.3-2.3,4.9c-0.9,1.6-1.8,3.1-2.8,4.5c-1,1.4-2,2.6-3,3.6c-1,1-2,1.7-2.8,2.1c-0.6,0.3-1.4,0.5-2.4,0.6
		c-1,0.1-2.1,0.1-3.1,0c-1-0.1-2-0.4-2.9-0.7c-0.9-0.4-1.6-0.9-2-1.5c-1-1.7-1.7-3.8-2-6.2c-0.3-2.4-0.3-4.9,0-7.6
		c0.3-2.7,0.8-5.4,1.6-8.2C146.2,84.1,147.1,81.4,148.2,78.9 M122.8,87.6c1.1-2.5,2.3-4.7,3.5-6.6c1.3-2,2.5-3.5,3.8-4.5
		c0.8-0.7,2-1.2,3.4-1.4c1.5-0.2,2.9-0.1,4.3,0.1c1.4,0.3,2.7,0.6,3.8,1.2c1.1,0.5,1.8,1.2,2.1,2c0.3,0.9,0.4,2.3,0.3,3.9
		c0,0.9-0.1,1.9-0.3,2.9c-1.3,7-5.6,6.8-8.5,7.8c-1.6,0.5-1.6-0.5-1.2-1.7c0.4-0.8,0.8-1.6,1.1-2.5c0.6-1.5,1.2-2.9,1.7-4.3
		c0.5-1.4,0.9-2.7,1.1-3.9c0.2-0.9,0.2-1.4,0-1.5c-0.1-0.1-0.5,0.2-1.2,1.2c-1.2,1.6-2.4,3.6-3.5,6.1c-1.1,2.4-2.1,5-3,7.7
		c-0.9,2.7-1.6,5.4-2.2,8c-0.6,2.7-1,5-1.1,7.1c-0.1,2.1,0,3.7,0.5,4.8c0.4,1.2,1.2,1.6,2.3,1.3c0.7-0.2,1.6-0.7,2.5-1.6
		c0.9-0.9,1.9-1.9,2.8-3.1c0.9-1.1,1.8-2.3,2.7-3.5c0.9-1.2,1.6-2.2,2.2-3c0.8-1.1,1.3-1.5,1.6-1.3c0.2,0.2,0.2,0.8-0.2,1.8
		c-0.7,1.6-1.5,3.2-2.4,4.8c-0.9,1.6-1.8,3.1-2.8,4.4c-1,1.3-2,2.5-3,3.5c-1,1-1.9,1.7-2.7,2.2c-0.6,0.3-1.4,0.5-2.4,0.6
		c-1,0.1-2.1,0.1-3.1,0c-1-0.1-2-0.4-2.9-0.7c-0.9-0.4-1.6-0.9-2-1.5c-1-1.6-1.7-3.7-2-6.1c-0.3-2.4-0.2-5,0.1-7.7
		c0.4-2.7,0.9-5.5,1.8-8.3C120.7,92.7,121.7,90,122.8,87.6 M94.1,104.4c0.8-2.8,1.8-5.4,2.9-7.9c1.1-2.5,2.3-4.7,3.5-6.6
		c1.3-2,2.5-3.5,3.8-4.5c0.8-0.7,2-1.2,3.4-1.4c1.5-0.2,2.9-0.1,4.3,0.1c1.4,0.3,2.7,0.7,3.8,1.2c1.1,0.5,1.8,1.2,2.1,2
		c0.3,0.9,0.4,2.3,0.3,3.9c0,0.7-0.1,1.5-0.2,2.2c-1.2,7.8-5.6,7.6-8.7,8.6c-1.6,0.5-1.6-0.5-1.3-1.7c0.4-0.9,0.8-1.7,1.2-2.6
		c0.6-1.4,1.2-2.9,1.7-4.3c0.5-1.4,0.9-2.7,1.1-3.9c0.1-0.9,0.2-1.4,0-1.5c-0.1-0.1-0.5,0.2-1.2,1.2c-1.2,1.6-2.4,3.6-3.5,6.1
		c-1.1,2.4-2.1,5-3,7.7c-0.9,2.7-1.6,5.4-2.2,8c-0.6,2.7-0.9,5-1.1,7.1c-0.1,2.1,0,3.7,0.5,4.8c0.4,1.1,1.2,1.6,2.3,1.3
		c0.7-0.2,1.6-0.7,2.5-1.6c0.9-0.9,1.9-1.9,2.8-3.1c0.9-1.1,1.8-2.3,2.7-3.6c0.9-1.2,1.6-2.2,2.2-3c0.8-1.1,1.3-1.5,1.6-1.3
		c0.2,0.2,0.2,0.8-0.2,1.8c-0.7,1.6-1.5,3.2-2.4,4.8c-0.9,1.6-1.8,3.1-2.8,4.4c-1,1.3-2,2.5-3,3.5c-1,1-1.9,1.7-2.7,2.2
		c-0.6,0.3-1.4,0.5-2.4,0.6c-1,0.1-2.1,0.1-3.1,0c-1-0.1-2-0.4-2.9-0.7c-0.9-0.4-1.6-0.9-2-1.5c-1-1.6-1.7-3.7-1.9-6.1
		c-0.3-2.4-0.2-5,0.1-7.7C92.7,110,93.3,107.2,94.1,104.4 M61.1,143.1c-0.2,0.6-0.7,1.3-1.7,2c-1,0.7-2,1.3-3.2,1.7
		c-1.1,0.4-2.1,0.6-3,0.7c-0.9,0-1.3-0.3-1.2-1c0.1-2.6,0.8-6.1,2-10.3c1.2-4.3,2.8-8.9,4.8-13.9c-2.2,0.9-4.1,1.7-5.7,2.4
		c-1.7,0.7-2.9,1.1-3.5,1.3c-0.7,0.2-1.7,0-2.8-0.7c-1.2-0.7-2.2-1.6-3-2.6c-0.8-1-1.3-1.9-1.5-2.8c-0.1-0.9,0.4-1.4,1.7-1.4
		c0.9,0,2.1-0.1,3.4-0.3c1.3-0.2,2.8-0.4,4.4-0.7c1.6-0.2,3.2-0.6,4.9-0.9c1.7-0.4,3.4-0.7,5.2-1.1c2.2-5.2,4.6-10.4,7.1-15.6
		c2.6-5.2,4.9-9.8,7.2-14c2.2-4.2,4.3-7.7,6-10.5c1.8-2.8,3-4.3,3.7-4.7c0.4-0.2,1-0.3,2-0.2c1,0.1,2,0.2,3,0.5
		c1,0.3,1.8,0.7,2.5,1.2c0.7,0.5,0.9,1.1,0.8,1.9c-1,3.6-1.9,7.4-2.7,11.5c-0.8,4-1.5,8-2.2,11.9c-0.6,3.9-1.1,7.7-1.5,11.3
		c-0.4,3.6-0.7,6.8-0.8,9.6c-0.1,2.8-0.2,5.1-0.1,6.8c0.1,1.8,0.3,2.7,0.6,2.8c0.1,0,0.3-0.1,0.7-0.4c0.4-0.3,0.8-0.5,1.1-0.8
		c0.4-0.2,0.7-0.4,1-0.3c0.3,0,0.3,0.4,0.2,1.1c-0.1,0.9-0.4,1.8-0.6,2.7c-0.3,0.9-0.6,1.8-1,2.6c-0.4,0.8-0.8,1.5-1.3,2.1
		c-0.5,0.6-1,1-1.5,1.1c-0.6,0.1-1.3,0.2-2.1,0.2c-0.8,0-1.6-0.1-2.4-0.2c-0.8-0.1-1.5-0.3-2.1-0.6c-0.6-0.3-1.1-0.7-1.3-1.1
		c-0.8-1.3-1.2-3.8-1.2-7.5c0-3.7,0.2-8,0.6-12.8c-0.9,0.4-2.2,1.1-4.1,2c-1.8,0.9-3.9,1.8-6.1,2.8c-1.3,4.2-2.4,8.3-3.3,12.3
		C62.9,135.1,62,139.1,61.1,143.1"/>
	<path fill="#00A8A6" d="M42.4,114.4c0.1,0,0.2,0,0.3-0.1h0C42.6,114.4,42.5,114.4,42.4,114.4"/>
	<path fill="#FCB615" d="M198.2,132.2l-0.2,0c-0.5,0-0.9-0.1-1.4-0.1c-1.2,1.5-2.5,2.7-4,3.6l0,0c-0.1,0.1-0.2,0.1-0.3,0.2l0,0
		c-1.1,0.6-2.2,1-3.5,1.3c-0.6,0.1-1.2,0.2-1.8,0.3c-0.5,0-0.9,0.1-1.4,0.1c0,0.4-0.1,0.8-0.1,1.2c-0.3,1.7-0.9,3.2-1.9,4.6
		c-1.2,3.4-3.9,5.9-7.8,7.1c-0.1,0-0.2,0.1-0.3,0.1c-2.7,4.4-5.8,8.2-9.3,11.2c-4.3,3.6-9,6-14.1,7.1c-5.1,1.1-10.4,0.9-15.8-0.6
		c-1.6-0.5-3.2-1-4.8-1.7c-0.6,0.1-1.3,0.1-1.9,0.1c-1.3-0.1-2.6-0.4-3.9-0.9c-2.3-1-4.3-2.8-5.6-5.1c-0.3-0.5-0.5-0.9-0.7-1.4
		l-5.3-4l-2.4-1.8l-3-0.3l-8.6-0.8c-4.2-0.4-8.4-0.9-12.4-1.7l-6-1.1l-2.1-0.4l-1.6,0.4l-0.2-0.3l-2.8-1.2l-4.1-1.8
		c-0.6,2-1.6,3.8-3.2,5.4l4.8,2.1l1.2,0.5l0.7,1l0.9,1.3l3.6-0.8l0.9-0.2l0.9,0.2l6,1.1c4.2,0.8,8.5,1.4,13,1.8l8.6,0.8l1.3,0.1
		l1,0.8l6.9,5.2c5.6,4.2,11.4,7.2,17.3,8.9c6.4,1.8,12.7,2,18.8,0.7c6.1-1.3,11.8-4.2,16.8-8.5c4.7-4,8.8-9.1,12.1-15.3l4.1-7.6
		l0.6-1.1l1.1-0.6l7.5-4.3c3.5-2,6.9-4.1,10.1-6.4c-0.5,0.2-1,0.3-1.5,0.5c-0.3,0.1-0.7,0.2-1,0.2
		C201.6,132.1,199.9,132.3,198.2,132.2"/>
	<path fill="#FCB615" d="M71.4,73.4l-12.1,2.6l0.8,8.1l0.2,1.8l-1.2,1.4L51,97.1c-2.3,2.8-5.2,6.7-7.5,11.3l0.2,0
		c0.3,0,0.9,0,2.1-0.2c1.3-0.2,2.8-0.4,4.3-0.7c0.4-0.1,0.8-0.1,1.2-0.2c1.3-2,2.8-4.1,4.5-6.2l2.9-3.5c0.4-0.8,0.8-1.6,1.1-2.3
		c2.2-4.5,4.4-8.7,6.4-12.5L66.1,81l1.3-0.3C68.8,78,70.1,75.6,71.4,73.4"/>
	<path fill="#FCB615" d="M167.7,51.1L157,43.7c-7.7-5.3-19.9-11-33.9-7.9c-14,3-22.7,13.2-27.5,21.3l-2.5,4.1c0.1,0,0.2,0.1,0.4,0.1
		l0,0l0,0c2,0.6,3.8,1.4,5.3,2.5l2.1-3.5c4.2-7,11.7-15.8,23.5-18.4c11.8-2.6,22.3,2.4,29,7l10.4,7.2c0.5,0,1,0.1,1.5,0.2
		c1.3,0.2,2.6,0.5,3.8,0.9c1-2,2.3-4.2,4.1-5.8l-2.1,0.5l-1.9,0.4L167.7,51.1"/>
	<path fill="#FCB615" d="M217.7,112.8l-0.6,0.6c-0.1,2.3-0.6,4.8-1.7,7.2c-1,2.3-2.3,4.4-3.9,6.4l0.1,0l0.7-0.5l0.9-0.2l2.2-0.5
		l0.2-0.7l0.3-1.2l0.8-0.9l5.6-5.9c3.4-3.6,8.1-9.3,11.2-15.8c3-6.3,3.9-12.1,2.8-17.3c-1.8-8.4-8.9-14.6-15.6-18.8
		c-0.6,2.2-1.2,4.4-1.7,6.3c5,3.4,10,8,11.3,13.8c0.8,3.8,0,8.3-2.3,13.3C225.7,103.1,222.1,108.1,217.7,112.8"/>
	<path fill="#FFF2DB" d="M88.1,60.3c0.1,0,0.2,0,0.3,0h0l0.1,0l3.3-5.6c6.9-11.4,17.1-20.4,30.3-23.3c13.2-2.9,26.3,1.1,37.3,8.6
		l10.7,7.4l22.8-5l0.1-0.3c0-0.1,0.1-0.3,0.1-0.4c0.1-0.5,0.3-0.9,0.5-1.4l-23.1,5l-10.1-6.9c-5.6-3.9-11.9-6.8-18.4-8.5
		c-6.5-1.6-13.4-1.9-20.3-0.4c-6.9,1.5-13.1,4.6-18.3,8.8c-5.3,4.2-9.7,9.5-13.2,15.3l0,0l-3.9,6.4C86.9,60.3,87.5,60.3,88.1,60.3"
		/>
	<path fill="#FFF2DB" d="M47.6,94.3l8.1-9.7l-1.2-12l20.2-4.4c0.6-0.8,1.1-1.6,1.6-2.2l-23.7,5.2L53.8,84l-7.6,9.1
		c-3.8,4.6-7.5,10-10,16c-0.4,0.9-0.7,1.9-1,2.8c0.8-0.8,1.7-1.5,2.7-2C40.3,104.1,43.9,98.8,47.6,94.3"/>
	<path fill="#FFF2DB" d="M36.1,129.2c-1-1.1-1.8-2.3-2.4-3.6c0.1,0.8,0.2,1.5,0.4,2.3c0.7,3.4,2.2,6.6,4,9.5
		c1.2,1.8,2.6,3.6,4.1,5.2c0.1-0.7,0.2-1.5,0.4-2.3c-2.8-3.2-5-6.7-6.2-10.7C36.3,129.4,36.2,129.3,36.1,129.2"/>
	<path fill="#FFF2DB" d="M242.4,82.6c-0.7-3.4-2.1-6.5-4-9.3c-2.8-4.2-6.5-7.8-10.6-10.8c-1.7-1.3-3.5-2.4-5.3-3.5
		c-0.2,0.6-0.4,1.2-0.6,1.8c8.6,5.1,16.5,12.5,18.7,22.2c3,13.6-6.3,27.7-15.2,37.1l-5.6,5.9l-0.8,3.5l-4.9,1.1l-5,3.5
		c-3.7,2.6-7.5,5-11.4,7.2l-7.5,4.3l-4.1,7.6c-6.8,12.6-17.5,22.8-31.8,25.9c-14.3,3.1-28.3-1.7-39.7-10.4l-6.9-5.2l-8.6-0.8
		c-4.5-0.4-9-1-13.4-1.8l-6-1.1l-6.5,1.4l-2.6-3.7l-7-3.1c-0.7,0.4-1.3,0.8-2,1.1c0.1,0.1,0.3,0.1,0.4,0.2l0,0l0,0l7.4,3.3l3,4.3
		l7.4-1.6l5.7,1.1l0,0c4.5,0.8,9,1.5,13.6,1.9l8.1,0.7l6.5,4.9c5.9,4.4,12.4,7.9,19.4,9.9c7,2,14.4,2.4,21.8,0.8
		c7.5-1.6,14-5.1,19.5-9.8c5.5-4.7,10-10.6,13.5-17.1l3.9-7.1l7.1-4l0,0l0,0c4-2.2,7.8-4.7,11.6-7.3l4.7-3.3l5.7-1.2l1-4.1l5.2-5.6
		c4.5-4.8,9.2-10.8,12.3-17.4c1.6-3.3,2.8-6.8,3.4-10.4C243.2,90,243.2,86.3,242.4,82.6"/>
	<path fill="#FFF2DB" d="M68.3,144.8l0-0.1c0.7-3.1,1.4-6.2,2-9.2c0.3,0.9,0.6,1.7,1,2.4c1,1.9,2.5,3.3,4.6,4.3
		c1.3,0.6,2.8,1.1,4.4,1.3c0.7,0.1,1.4,0.1,2.1,0.2c0.4,0,0.8,0,1.1,0c1.3,0,2.5-0.1,3.6-0.3l0.2,0c1.6-0.3,3.9-1.3,5.9-3.9
		c0.7-1,1.4-2.1,2-3.3c0.1-0.1,0.1-0.2,0.2-0.4c0.9,0.2,1.8,0.4,2.7,0.5c0.4,0,0.9,0.1,1.3,0.1c1.2,0.1,2.4,0,3.6-0.1
		c0.5-0.1,1-0.1,1.5-0.2c1.2-0.2,2.2-0.6,3.2-1l0,0c0.1,0,0.2-0.1,0.3-0.1c1.5-0.8,2.9-1.9,4.5-3.5c1.3-1.3,2.5-2.8,3.7-4.4
		c0.4-0.5,0.8-1.1,1.1-1.6c0.6,0.3,1.2,0.6,1.8,0.9c1.5,0.6,3.1,1,4.8,1.2c0.4,0.1,0.9,0.1,1.3,0.1c1.2,0.1,2.4,0,3.6-0.1l0.2,0
		c-0.3,1.4-0.7,2.7-1,4.1c-0.5,2.3-1,4.7-1.5,7c-0.4,2.3-0.8,4.5-1.1,6.4c0,0.1,0,0.3-0.1,0.4c-1.5,1.3-2.6,2.6-3.4,3.8l0,0
		c-0.1,0.1-0.2,0.3-0.2,0.4c-0.9,1.7-1.2,3.6-0.9,5.8c0.2,1.4,0.7,2.8,1.4,4c1,1.8,2.5,3.2,4.4,4c0.9,0.4,1.9,0.7,2.9,0.7
		c0.7,0,1.4,0,2.1-0.2c1.7-0.3,3.2-1.2,4.5-2.4l0,0l0.1-0.1c0.1-0.1,0.7-0.6,1.9-1.4c1.3-0.7,2.7-1.5,4.1-2.1
		c1.5-0.7,3.1-1.3,4.7-1.9c1.6-0.6,3-1,4.1-1.3l0,0l0,0c0.5-0.1,1-0.3,1.4-0.5c0.5,0.3,0.9,0.6,1.4,0.9l0,0c1.2,0.7,2.5,1,3.8,1.1
		c0.7,0,1.4,0,2-0.2c1.5-0.3,2.8-1,3.9-2l0,0l0,0c0.8-0.8,1.9-1.7,3.1-2.7c0.9-0.7,1.9-1.5,2.8-2.2l0.3-0.2c0.8,0,1.7-0.1,2.5-0.3
		c0.2,0,0.4-0.1,0.7-0.2c0.2,0,0.3-0.1,0.5-0.1c0.4-0.1,0.9-0.2,1.3-0.3c4.2-1.3,5.7-4.2,6.2-5.8c0.9-1.1,1.4-2.4,1.7-3.8
		c0.2-1.1,0.2-2.3-0.1-3.5c0.1,0,0.2,0,0.3,0c0.3,0,0.6,0.1,0.9,0.1c0.9,0,1.9,0,2.8-0.1c0.6-0.1,1.1-0.1,1.6-0.2
		c1.1-0.2,2-0.5,2.8-1l0.2-0.1c1.6-1,3-2.3,4.2-4.2c0.9,0.2,1.8,0.3,2.7,0.4l0.2,0c1.5,0.1,2.9,0,4.3-0.3c0.3-0.1,0.6-0.1,0.9-0.2
		c2.4-0.6,4.3-1.7,5.7-3.4c1.6-1.8,2.9-3.9,3.8-6.1c1.1-2.5,1.6-5,1.5-7.2c0-1.1-0.2-2.2-0.5-3.2c0.1-0.2,0.2-0.4,0.2-0.6
		c0.5-1.1,0.9-2.3,1.1-3.5c0.3-1.3,0.5-2.6,0.6-3.8c0.1-2-0.2-3.8-1-5.3c-0.1-0.2-0.2-0.4-0.4-0.6c-0.4-0.6-0.8-1.2-1.4-1.7
		c0.7-1.1,1.3-2.4,1.8-3.7c0.5-1.2,0.9-2.3,1.3-3.3l0.1-0.2l0,0c0.2-0.5,0.5-1.5,0.6-2.8c0.1-1.7-0.4-3.4-1.3-4.8
		c-0.3-0.4-0.6-0.8-0.9-1.1c0.3-1.4,0.7-3,1.1-4.6c0.9-3.7,2.1-8,3.5-12.7c1.1-3.6,2.3-7.3,3.5-11.1l0,0c2.7-0.9,4.9-2.8,6.3-5.3
		c0.6-1.2,1.2-2.4,1.7-3.7c0-0.1,0.1-0.3,0.1-0.4c0.4-1.3,0.7-2.5,0.8-3.6c0.3-2.3-0.3-4.6-1.7-6.3c-0.6-0.8-1.4-1.4-2.3-1.9
		c-0.6-1.2-1.6-2.3-2.8-3.1l0,0v0c-1.3-0.9-2.9-1.5-4.7-1.9c-1.2-0.2-2.4-0.4-3.6-0.5l0,0c-1.3-0.1-2.4,0-3.5,0.2
		c-0.4,0.1-0.9,0.2-1.3,0.4c-3.1,1.1-4.9,3.7-6.2,6.4c-0.6,1.1-1.2,2.5-1.8,4l-0.2,0.1c-2.7,0.9-4.7,2.5-6.1,4.7
		c-0.8,1.3-1.5,2.7-1.9,4.2c0,0.1-0.1,0.2-0.1,0.3c-0.3,1.1-0.5,2.2-0.6,3.2c-0.6,0-1.2,0.1-1.8,0.2c-0.4,0.1-0.9,0.2-1.3,0.3
		l-0.1,0c-2.3,0.8-4,2.5-5.7,4.7c-1.1-0.2-2.3-0.4-3.4-0.4c-0.1,0-0.2,0-0.3,0c-1.3,0-2.4,0-3.4,0.2c-0.4,0.1-0.9,0.2-1.3,0.4
		c-3.2,1.1-5,3.9-6.4,6.8c-0.3,0.6-0.6,1.3-0.9,2c-1.7-0.8-3.5-1.3-5.5-1.6c-0.7-0.1-1.5-0.2-2.2-0.2h0c-1.4-0.1-2.8,0-4.1,0.1
		c-0.5,0.1-1,0.1-1.4,0.2c-2.2,0.5-4.1,1.3-5.7,2.6l-0.1,0.1c-2,1.6-3.9,3.8-5.6,6.5c-0.3,0.5-0.7,1-1,1.6c-1.7-0.8-3.5-1.3-5.5-1.7
		c-0.9-0.2-1.9-0.3-2.8-0.3c-1.2-0.1-2.5,0-3.7,0.1c-0.5,0.1-1,0.1-1.4,0.2c-2.3,0.5-4.3,1.4-6,2.8c-1.8,1.5-3.5,3.5-5.2,6.1
		c-0.4,0.5-0.7,1.1-1,1.7c-1.7-0.8-3.6-1.4-5.6-1.8c-0.9-0.2-1.9-0.3-2.8-0.3c-1.2-0.1-2.5,0-3.7,0.1c-0.5,0.1-1,0.1-1.4,0.2
		c-1.9,0.4-3.7,1.1-5.1,2.2c0.3-1.1,0.5-2.1,0.8-3.1l0,0l0,0l0,0l0,0c1-3.7-0.4-7.5-3.6-9.8c-1.4-1-3-1.8-4.8-2.3l0,0
		c-1.5-0.4-3-0.7-4.5-0.8c-0.1,0-0.2,0-0.3,0c-1.2-0.1-2.3,0-3.3,0.2c-0.9,0.2-1.7,0.5-2.5,0.9L82,64.1c-1.9,1.1-3.5,3-6.2,7.2
		c-1.9,2.9-4,6.6-6.3,10.9c-2.3,4.2-4.7,9-7.3,14.2c-2,4.1-4,8.3-5.8,12.4c-0.5,0.1-0.9,0.2-1.4,0.3c-0.3,0.1-0.6,0.1-1,0.2
		c-1.2,0.3-2.4,0.5-3.5,0.6c-1.5,0.2-3,0.5-4.3,0.7c-1.3,0.2-2,0.2-2.5,0.3l-0.2,0c-0.6,0-1.2,0.1-1.7,0.2c-2.1,0.4-3.9,1.5-5.2,3.1
		c-1.5,1.9-2.1,4.3-1.8,6.7c0.4,2.3,1.4,4.5,3.2,6.5c1.3,1.5,2.9,2.8,4.6,4c1.5,0.9,2.9,1.5,4.3,1.8c-0.1,0.3-0.2,0.5-0.2,0.8
		c-1.4,4.8-2.1,8.7-2.3,12c-0.1,2.2,0.6,4.3,2,6c1.5,1.7,3.7,2.8,6.1,2.9c0.2,0,0.5,0,0.7,0c0.9,0,1.8-0.1,2.7-0.3
		c0.9-0.2,1.9-0.5,2.8-0.8c1.7-0.7,3.4-1.5,4.9-2.6C66.2,149.4,67.8,147.2,68.3,144.8 M61.8,148.5c-1.3,0.9-2.7,1.7-4.1,2.2
		c-0.2,0.1-0.4,0.1-0.6,0.2l-0.2,0.1c-0.1,0-0.3,0.1-0.4,0.1l-0.2,0.1c-0.1,0-0.2,0.1-0.3,0.1l-0.2,0.1c-0.1,0-0.2,0.1-0.3,0.1
		c-0.1,0-0.2,0-0.3,0.1l-0.2,0c-0.1,0-0.2,0-0.3,0l-0.2,0c-0.1,0-0.2,0-0.3,0l-0.1,0l-0.2,0c-0.2,0-0.3,0-0.5,0c-0.2,0-0.3,0-0.5,0
		c-2-0.1-3.2-1-3.8-1.8c-0.9-1-1.3-2.3-1.2-3.6c0.1-3,0.8-6.7,2.1-11.2c0.5-1.7,1.1-3.5,1.7-5.4c-0.4,0.1-0.7,0.2-1,0.3
		c-0.2,0.1-0.3,0.1-0.5,0.1h0c-0.1,0-0.3,0.1-0.5,0.1l-0.1,0c-0.1,0-0.2,0-0.3,0l-0.1,0c-0.2,0-0.3,0-0.5,0
		c-1.3-0.1-2.7-0.6-4.2-1.5c-1.5-1-2.8-2.1-3.9-3.3c-1.4-1.6-2.2-3.2-2.5-4.9c-0.2-1.5,0.1-3,1.1-4.1c0.1-0.1,0.2-0.3,0.4-0.4
		l0.1-0.1c0.1-0.1,0.2-0.2,0.3-0.3l0.1-0.1c0.1-0.1,0.2-0.2,0.3-0.2l0.1-0.1c0.1-0.1,0.2-0.1,0.3-0.2v0l0.2-0.1l0.1,0
		c0.1-0.1,0.3-0.1,0.4-0.2l0.2-0.1c0.1,0,0.3-0.1,0.4-0.1l0.2,0c0.1,0,0.3-0.1,0.4-0.1h0l0.2,0c0.2,0,0.4-0.1,0.7-0.1l0.1,0
		c0.7,0,1.7-0.1,2.9-0.3c1.3-0.2,2.8-0.4,4.3-0.7c0.3-0.1,0.7-0.1,1-0.2l0.3,0c0.3,0,0.5-0.1,0.8-0.1c0.1,0,0.2,0,0.3-0.1
		c0.3-0.1,0.6-0.1,0.8-0.2c0.1,0,0.2,0,0.3-0.1c0.4-0.1,0.8-0.2,1.1-0.2c1.1-0.2,2.1-0.5,3.1-0.7c2-4.6,4.1-9.2,6.4-13.8
		c2.6-5.2,5-10,7.3-14.2c2.3-4.3,4.4-7.9,6.2-10.7c2.7-4.2,3.9-5.4,5.1-6.1l0.1,0c0.1-0.1,0.3-0.1,0.4-0.2l0.1-0.1
		c0.1,0,0.2-0.1,0.3-0.1l0.2-0.1l0.3-0.1l0.2,0l0.2,0l0.1,0c0.1,0,0.2,0,0.3-0.1l0.2,0c0.1,0,0.2,0,0.3,0l0.2,0c0.1,0,0.3,0,0.4,0
		l0.2,0c0.2,0,0.4,0,0.7,0l0.2,0c1.3,0.1,2.6,0.3,3.8,0.7h0c1.4,0.4,2.7,1,3.8,1.8c2.1,1.5,3,3.9,2.3,6.3l0,0
		c-1,3.5-1.9,7.3-2.7,11.2c-0.5,2.3-0.9,4.5-1.3,6.8c0.9-1.9,1.9-3.8,3-5.4c1.5-2.3,3-4.1,4.6-5.4c0.2-0.1,0.3-0.3,0.5-0.4l0.2-0.1
		c0.1-0.1,0.2-0.1,0.3-0.2l0.1-0.1l0.2-0.1c0.1-0.1,0.3-0.1,0.4-0.2l0.2-0.1c0.1-0.1,0.3-0.1,0.4-0.2l0.2-0.1
		c0.2-0.1,0.4-0.2,0.7-0.2l0.1,0c0.2-0.1,0.4-0.1,0.6-0.2l0.2-0.1c0.1,0,0.2-0.1,0.3-0.1l0.1,0c0.3-0.1,0.7-0.1,1-0.2
		c1.1-0.1,2.1-0.2,3.2-0.1c0.8,0,1.6,0.1,2.4,0.3c1.8,0.3,3.4,0.8,4.8,1.5c1.1,0.5,1.9,1.1,2.5,1.7c0.8-1.7,1.7-3.2,2.6-4.6
		c1.5-2.3,3-4.1,4.6-5.4c0.2-0.1,0.4-0.3,0.5-0.4l0.2-0.1c0.1-0.1,0.3-0.2,0.4-0.3l0.2-0.1c0.1-0.1,0.3-0.1,0.4-0.2l0.2-0.1
		c0.1-0.1,0.3-0.1,0.4-0.2l0.2-0.1c0.2-0.1,0.4-0.2,0.7-0.2l0.1,0c0.2-0.1,0.4-0.1,0.6-0.2l0.2-0.1c0.1,0,0.2-0.1,0.3-0.1l0.1,0
		c0.3-0.1,0.7-0.1,1-0.2c1-0.1,2.1-0.2,3.1-0.1c0.8,0,1.6,0.1,2.4,0.3c1.8,0.3,3.4,0.8,4.8,1.5c1,0.5,1.8,1,2.4,1.6
		c0.8-1.6,1.7-3.1,2.6-4.4c1.6-2.4,3.2-4.3,5-5.7l0.1-0.1c0.2-0.1,0.3-0.3,0.5-0.4l0.2-0.1c0.1-0.1,0.3-0.2,0.4-0.2l0.2-0.1
		c0.1-0.1,0.3-0.1,0.4-0.2l0.2-0.1c0.2-0.1,0.3-0.1,0.5-0.2l0.2-0.1c0.2-0.1,0.4-0.2,0.7-0.2l0.2,0c0.2-0.1,0.3-0.1,0.5-0.1l0.3-0.1
		l0.3-0.1l0.1,0c0.3-0.1,0.7-0.1,1.1-0.2c1.2-0.1,2.4-0.2,3.6-0.1c0.6,0,1.3,0.1,1.9,0.2c1.9,0.3,3.6,0.8,5.1,1.6
		c1,0.5,1.8,1.1,2.4,1.7c0.8-2.1,1.6-4,2.4-5.5c1.2-2.6,2.5-4.4,4.5-5.1c0.1,0,0.3-0.1,0.4-0.1l0.1,0c0.1,0,0.2-0.1,0.3-0.1l0.1,0
		c0.1,0,0.3-0.1,0.4-0.1l0.1,0c0.2,0,0.4,0,0.6-0.1l0.1,0c0.2,0,0.3,0,0.5,0l0.2,0c0.2,0,0.4,0,0.6,0l0.3,0c1,0.1,2.1,0.2,3.1,0.4
		l0,0c0.7,0.2,1.3,0.3,1.9,0.6c2.1-3.3,3.6-4.8,5.3-5.5l0.1,0c0.2-0.1,0.5-0.1,0.7-0.2l0.1,0c0.2-0.1,0.5-0.1,0.7-0.1l0.2,0
		c0.2,0,0.4,0,0.7,0l0.2,0c0.3,0,0.6,0,0.9,0l0,0h0c0.8,0,1.5,0.1,2.2,0.3c-0.3-0.7-0.5-1.4-0.5-2.3c0-1.1,0.2-2.4,0.5-3.7l0-0.2
		c0.4-1.3,0.9-2.4,1.6-3.4c1-1.5,2.4-2.6,4.4-3.3l1.6-0.5c0.8-2,1.6-3.7,2.3-5.1c1.2-2.4,2.5-4.1,4.4-4.8c0.2-0.1,0.5-0.1,0.7-0.2
		l0.1,0l0.1,0c0.2,0,0.4-0.1,0.7-0.1l0.2,0c0.2,0,0.4,0,0.7,0l0.2,0c0.3,0,0.6,0,0.9,0h0h0c1,0.1,2.1,0.2,3.1,0.4
		c1.3,0.3,2.5,0.8,3.5,1.4l0,0c1.1,0.8,1.8,1.8,2.2,2.9c0.9,0.3,1.7,0.8,2.3,1.5c0.8,1,1.2,2.4,1,3.8c-0.1,0.9-0.4,1.9-0.7,3.1
		l-0.1,0.2c-0.4,1.1-0.9,2.2-1.5,3.3c-1,1.8-2.5,3.1-4.5,3.7l-1.6,0.5c-1.4,4.3-2.8,8.5-4.1,12.7c-1.4,4.8-2.6,9.1-3.6,12.9
		c-0.6,2.6-1.1,4.9-1.5,6.8c0.8,0.3,1.4,0.8,1.9,1.6c1.3,1.9,0.6,4,0.3,4.7l0,0.1c-0.4,1-0.8,2-1.2,3.2c-0.5,1.3-1.1,2.5-1.8,3.6
		c-0.5,0.8-1,1.5-1.5,2.2c0.1,0.1,0.2,0.1,0.3,0.2l0,0c1.2,0.7,2.1,1.5,2.7,2.4c0.1,0.1,0.1,0.2,0.2,0.4c0.5,1,0.7,2.2,0.6,3.7
		c-0.1,1-0.2,2.1-0.5,3.1c-0.3,1-0.6,2.1-1,3c-0.3,0.6-0.5,1.2-0.8,1.7c0.5,1,0.8,2.2,0.9,3.4c0.1,1.8-0.4,3.8-1.2,5.9
		c-0.8,1.9-1.9,3.7-3.3,5.2c-1,1.1-2.3,1.9-4.1,2.3c-0.2,0.1-0.4,0.1-0.6,0.1l0,0l0,0l-0.2,0c-0.1,0-0.2,0-0.3,0.1
		c-0.2,0-0.4,0.1-0.6,0.1c-0.1,0-0.2,0-0.3,0c-0.2,0-0.5,0-0.7,0c-0.1,0-0.2,0-0.3,0c-0.3,0-0.7,0-1,0l-0.1,0c-1.5-0.1-3-0.4-4.3-1
		l-0.1-0.1c-0.3,0.6-0.6,1.2-1,1.7c-1,1.7-2.1,2.8-3.4,3.6l-0.1,0.1c-0.1,0.1-0.3,0.1-0.4,0.2l-0.1,0.1c-0.1,0-0.2,0.1-0.3,0.1
		l-0.1,0.1c-0.1,0-0.2,0.1-0.4,0.1l-0.1,0c-0.2,0-0.3,0.1-0.5,0.1l0,0l-0.1,0c-0.1,0-0.3,0-0.4,0.1l-0.2,0c-0.2,0-0.4,0.1-0.6,0.1
		c-0.7,0.1-1.5,0.1-2.3,0c-0.3,0-0.5,0-0.8-0.1c-1-0.1-2-0.3-2.9-0.6c-0.2-0.1-0.5-0.1-0.7-0.2c-0.2,1.2-0.4,2.4-0.6,3.6
		c0.5,1.1,0.6,2.3,0.4,3.4c-0.2,1.1-0.7,2-1.4,2.8c0,0.2,0,0.2-0.1,0.3c-0.2,1.1-1.1,3-4.1,3.9c-0.2,0-0.3,0.1-0.5,0.1l-0.2,0
		l-0.2,0.1l-0.1,0l-0.2,0l0,0c-0.1,0-0.2,0-0.3,0c-0.1,0-0.2,0-0.3,0.1l-0.1,0c-0.1,0-0.2,0-0.3,0.1l0,0l0,0c-0.1,0-0.3,0.1-0.5,0.1
		l-0.1,0c-0.2,0-0.4,0.1-0.6,0.1l0,0c-0.2,0-0.4,0-0.5,0l-0.2,0c-0.2,0-0.4,0-0.6,0c-0.1,0-0.2,0-0.3,0l-0.2,0.1
		c-0.3,0.2-0.7,0.5-1,0.7c-1,0.7-2,1.5-3,2.3c-1.3,1.1-2.4,2-3.3,2.9l0,0c-0.1,0.1-0.3,0.3-0.4,0.4l-0.1,0.1
		c-0.1,0.1-0.2,0.2-0.4,0.2l-0.1,0.1c-0.2,0.1-0.3,0.2-0.5,0.2l-0.1,0c-0.2,0.1-0.3,0.1-0.5,0.1l-0.1,0l-0.1,0c-0.1,0-0.3,0-0.4,0.1
		l-0.2,0c-0.2,0-0.4,0-0.6,0c-0.8,0-1.6-0.3-2.4-0.7l0,0c-0.8-0.4-1.5-1-2.3-1.7l0,0c-0.2-0.2-0.4-0.4-0.6-0.6
		c-0.7,0.9-1.6,1.4-2.5,1.6l0,0c-1.3,0.3-2.8,0.8-4.4,1.4c-1.7,0.6-3.3,1.3-4.9,2c-1.6,0.7-3.1,1.5-4.4,2.3
		c-1.5,0.8-2.2,1.5-2.6,1.9l0,0c-0.1,0.1-0.2,0.2-0.3,0.3l-0.1,0.1l-0.2,0.2l-0.1,0.1l-0.2,0.2l-0.1,0.1c-0.2,0.1-0.4,0.2-0.7,0.3
		l-0.1,0l-0.2,0.1l-0.1,0l-0.2,0.1l-0.1,0c-0.2,0.1-0.4,0.1-0.6,0.1l-0.1,0c-0.1,0-0.2,0-0.3,0h0l-0.3,0h-0.1l-0.2,0
		c-0.6,0-1.2-0.2-1.8-0.4c-1.2-0.5-2.2-1.4-2.9-2.6c-0.5-0.9-0.8-1.8-1-2.9c-0.2-1.4,0-2.6,0.5-3.7l0.1-0.2c0.7-1.2,1.9-2.4,3.5-3.7
		c0.2-0.1,0.3-0.3,0.5-0.4c-0.1-0.4-0.1-0.8,0-1.2l0-0.3c0.3-1.9,0.6-4,1.1-6.3c0.4-2.3,0.9-4.6,1.4-6.9c0.5-2.3,1.1-4.6,1.6-6.8
		c0.3-1.2,0.6-2.3,0.9-3.3l0-0.1c-0.5,0.4-1,0.7-1.5,1l-0.2,0.1c-0.2,0.1-0.3,0.1-0.5,0.2l-0.1,0.1c-0.1,0.1-0.3,0.1-0.4,0.2l-0.1,0
		c-0.2,0.1-0.4,0.1-0.6,0.2l-0.1,0c-0.2,0-0.3,0.1-0.5,0.1l-0.1,0l-0.1,0c-0.1,0-0.3,0-0.4,0.1l-0.2,0c-0.2,0-0.4,0.1-0.6,0.1
		c-1,0.1-2,0.2-3,0.1c-0.4,0-0.7,0-1.1-0.1c-1.4-0.2-2.7-0.5-4-1c-1.6-0.6-2.9-1.6-3.8-2.9c-0.9,1.7-2,3.3-3,4.8
		c-1.1,1.5-2.2,2.9-3.4,4c-1.3,1.3-2.5,2.3-3.7,2.9l-0.2,0.1c-0.2,0.1-0.3,0.1-0.5,0.2l-0.2,0.1c-0.1,0-0.3,0.1-0.4,0.1l-0.1,0
		c-0.2,0.1-0.4,0.1-0.5,0.2l-0.2,0c-0.2,0-0.3,0.1-0.5,0.1l-0.1,0l-0.1,0c-0.1,0-0.3,0-0.4,0.1l-0.2,0c-0.2,0-0.4,0.1-0.6,0.1
		c-1,0.1-2,0.2-3,0.1c-0.4,0-0.7,0-1.1-0.1c-1.4-0.2-2.7-0.5-4-1c-0.4-0.1-0.7-0.3-1-0.5c-0.3,1.1-0.8,2.2-1.2,3.2
		c-0.5,1-1.1,2-1.7,2.8c-1.3,1.8-2.9,2.4-3.9,2.6l-0.2,0c-0.1,0-0.2,0-0.3,0.1c-0.1,0-0.2,0-0.3,0c-0.1,0-0.3,0-0.4,0.1
		c-0.1,0-0.2,0-0.3,0c-0.2,0-0.3,0-0.5,0c-0.1,0-0.2,0-0.3,0c-0.3,0-0.5,0-0.8,0c-0.3,0-0.7,0-1,0c-0.6,0-1.3-0.1-1.9-0.2
		c-1.2-0.2-2.4-0.5-3.4-1c-1.4-0.7-2.5-1.7-3.1-2.9c-1.1-2-1.7-4.9-1.7-9.4c0-1.9,0-3.9,0.1-6c-0.7,0.3-1.4,0.7-2.2,1
		c-1,3.5-2,6.9-2.7,10.2c-0.9,3.9-1.8,7.9-2.7,11.9l0,0.1C64.7,145.7,63.7,147.2,61.8,148.5"/>
	<path fill="#FFF2DB" d="M149.1,142.4c-0.3-0.6-0.5-1-0.9-1.2c-0.2-0.1-0.6,0-1.2,0.1c-0.6,0.2-1.4,0.4-2.3,0.8
		c-0.9,0.4-1.9,0.9-3,1.4c-1.1,0.6-2.3,1.2-3.4,1.8c0.4-1.9,0.8-4,1.3-6.4c0.5-2.4,1-4.8,1.6-7.2c0.6-2.5,1.2-4.9,2-7.4
		c0.7-2.4,1.5-4.7,2.3-6.8c0.1-0.4,0-0.7-0.3-1c-0.3-0.3-0.8-0.6-1.3-0.8c-0.5-0.2-1-0.4-1.6-0.5c-0.6-0.1-1-0.1-1.2,0
		c-0.6,0.2-1.1,0.6-1.6,1c-0.5,0.5-0.9,0.9-1.2,1.4c-0.3,0.4-0.6,0.9-0.8,1.2c-0.2,0.4-0.2,0.6-0.1,0.7c0.1,0.1,0.2,0.1,0.4,0
		c0.2-0.1,0.4-0.2,0.6-0.2c0.2-0.1,0.3,0,0.4,0.1c0.1,0.1,0.1,0.4-0.1,1c-0.5,1.7-1.1,3.7-1.6,5.8c-0.6,2.2-1.1,4.4-1.6,6.7
		c-0.5,2.3-1,4.5-1.4,6.8c-0.4,2.2-0.8,4.3-1,6.1c0,0.4,0.2,0.8,0.6,1c0.4,0.3,1,0.4,1.5,0.5c-1.6,1-2.9,2-4.1,2.9
		c-1.2,1-2.1,1.9-2.6,2.7c-0.1,0.2-0.1,0.6-0.1,1.1c0.1,0.5,0.2,1,0.5,1.4c0.2,0.4,0.6,0.7,0.9,0.9c0.4,0.2,0.8,0,1.2-0.4
		c0.8-0.8,2-1.7,3.5-2.6c1.5-0.9,3.1-1.7,4.8-2.5c1.7-0.8,3.5-1.5,5.3-2.1c1.8-0.6,3.4-1.1,4.7-1.5c0.3-0.1,0.5-0.4,0.5-1
		c0-0.6,0-1.2-0.1-1.9C149.6,143.7,149.4,143.1,149.1,142.4"/>
	<path fill="#FFF2DB" d="M156.6,138.2c0.7-0.4,1.4-1.1,2-2.2c0.7-1.1,1.3-2.3,1.8-3.7c0.6-1.4,1-2.9,1.5-4.6
		c0.4-1.6,0.7-3.2,0.9-4.7c0.2-1.5,0.3-2.8,0.2-4c0-1.2-0.2-2.1-0.6-2.7c-0.3-0.5-0.8-0.9-1.5-1.3c-0.7-0.3-1.5-0.6-2.3-0.7
		c-0.8-0.1-1.6-0.2-2.4-0.1c-0.8,0.1-1.5,0.3-2,0.6c-0.7,0.5-1.4,1.3-2,2.4c-0.6,1.1-1.2,2.4-1.7,3.8c-0.5,1.4-0.9,3-1.3,4.6
		c-0.3,1.6-0.6,3.2-0.7,4.7c-0.1,1.5-0.1,2.9,0,4.1c0.1,1.2,0.4,2.2,0.8,2.9c0.2,0.3,0.6,0.6,1.3,0.8c0.7,0.2,1.4,0.3,2.2,0.4
		c0.8,0.1,1.5,0.1,2.2,0C155.8,138.4,156.3,138.3,156.6,138.2 M153.8,136.7c-0.3-0.1-0.4-0.7-0.4-1.8c0-1.1,0.2-2.4,0.4-4
		c0.3-1.6,0.6-3.3,1-5.1c0.4-1.8,0.9-3.4,1.3-5c0.5-1.5,0.9-2.8,1.4-3.7c0.4-1,0.8-1.4,1.2-1.4c0.3,0,0.4,0.6,0.4,1.7
		c0,1.1-0.2,2.4-0.5,4c-0.3,1.6-0.6,3.3-1,5.1c-0.4,1.8-0.9,3.5-1.3,5c-0.5,1.5-0.9,2.8-1.4,3.8C154.4,136.4,154,136.8,153.8,136.7"
		/>
	<path fill="#FFF2DB" d="M193.9,107.8c0-1.2-0.2-2.1-0.6-2.7c-0.3-0.5-0.8-0.9-1.5-1.3c-0.7-0.3-1.5-0.6-2.3-0.7
		c-0.8-0.1-1.6-0.2-2.4-0.1c-0.8,0.1-1.5,0.3-2,0.6c-0.7,0.5-1.4,1.3-2,2.4c-0.6,1.1-1.2,2.4-1.7,3.8c-0.5,1.4-0.9,3-1.3,4.6
		c-0.3,1.6-0.6,3.2-0.7,4.7c-0.1,1.5-0.1,2.9,0,4.1c0.1,1.2,0.4,2.2,0.8,2.9c0.2,0.3,0.7,0.6,1.3,0.8c0.7,0.2,1.4,0.3,2.2,0.4
		c0.8,0.1,1.5,0.1,2.2,0c0.7-0.1,1.2-0.2,1.5-0.3c0.7-0.4,1.4-1.1,2-2.2c0.7-1.1,1.3-2.3,1.8-3.7c0.6-1.4,1-2.9,1.5-4.6
		c0.4-1.6,0.7-3.2,0.9-4.7C193.9,110.4,194,109,193.9,107.8 M189.9,106.3c0,1.1-0.2,2.4-0.5,4c-0.3,1.6-0.6,3.3-1.1,5.1
		c-0.4,1.8-0.9,3.5-1.3,5c-0.5,1.5-0.9,2.8-1.4,3.8c-0.4,1-0.8,1.4-1.1,1.3c-0.3-0.1-0.4-0.7-0.4-1.8c0-1.1,0.2-2.4,0.4-4
		c0.3-1.6,0.6-3.3,1-5.1c0.4-1.8,0.9-3.4,1.3-5c0.5-1.5,0.9-2.8,1.4-3.7c0.4-1,0.8-1.4,1.2-1.4C189.8,104.6,189.9,105.2,189.9,106.3
		"/>
	<path fill="#FFF2DB" d="M207.1,98.3c-0.6-0.3-1.3-0.6-2.1-0.8c-0.8-0.2-1.6-0.3-2.3-0.3c-0.8,0-1.4,0.2-1.8,0.6
		c-0.7,0.6-1.3,1.5-2.1,2.7c-0.7,1.2-1.4,2.5-1.9,3.9c-0.5,1.4-0.9,2.7-1.1,3.9c-0.2,1.3-0.1,2.2,0.3,2.9c0.4,0.6,0.9,1,1.7,1.1
		c0.8,0.1,1.9-0.1,3.4-0.7c0.5-0.2,0.8-0.2,0.9,0.1c0.1,0.3,0.2,0.6,0.1,1.1c-0.1,0.5-0.2,1.1-0.5,1.7c-0.2,0.7-0.5,1.3-0.8,2
		c-0.3,0.7-0.5,1.2-0.8,1.8c-0.3,0.5-0.5,0.9-0.6,1.1c-0.3,0.6-0.5,0.7-0.6,0.5c-0.1-0.2-0.2-0.6-0.1-1.2c0-0.6,0.1-1.3,0.3-2.1
		c0.2-0.8,0.4-1.5,0.6-2.2c0.2-0.5,0.1-0.8-0.2-0.9c-0.3-0.2-0.8-0.2-1.3-0.2c-0.5,0-1.1,0.1-1.7,0.3c-0.6,0.2-1.1,0.5-1.4,0.8
		c-0.6,0.6-1,1.4-1.2,2.5c-0.2,1.1-0.1,2,0.1,2.7c0.3,0.8,0.9,1.3,1.8,1.7c0.9,0.4,1.9,0.6,2.9,0.7c1,0.1,2,0,3-0.3
		c0.9-0.2,1.6-0.6,2-1.1c1.1-1.2,2-2.6,2.6-4.1c0.6-1.5,0.9-2.9,0.9-4.1c0-1.2-0.5-2.1-1.3-2.6c-0.8-0.5-2.2-0.5-4.2,0.2
		c-0.4,0.2-0.7,0.1-0.7-0.3c-0.1-0.4,0-0.9,0.1-1.6c0.2-0.7,0.4-1.5,0.7-2.3c0.3-0.9,0.6-1.7,1-2.6c0.3-0.8,0.7-1.6,1-2.2
		c0.3-0.6,0.5-1.1,0.6-1.3c0.3-0.5,0.5-0.8,0.6-0.7c0.1,0.1,0.1,0.4,0,0.9c-0.1,0.4-0.2,1-0.4,1.6c-0.2,0.6-0.4,1.3-0.6,2
		c-0.2,0.7-0.5,1.5-0.8,2.2c-0.3,0.7-0.6,1.5-0.9,2.1c-0.1,0.3,0,0.5,0.3,0.6c0.3,0.1,0.7,0.1,1.2,0c0.5-0.1,1-0.2,1.5-0.4
		c0.5-0.2,0.9-0.5,1.3-0.8c0.4-0.4,0.8-1,1.1-1.8c0.3-0.8,0.6-1.6,0.8-2.4c0.2-0.8,0.3-1.6,0.4-2.4c0-0.7,0-1.3-0.2-1.6
		C208.1,99,207.7,98.7,207.1,98.3"/>
	<path fill="#FFF2DB" d="M180.5,106.9c0.1-0.3,0.1-0.5-0.2-0.7c-0.3-0.2-0.7-0.3-1.1-0.4c-0.5-0.1-0.9-0.1-1.4-0.1
		c-0.5,0-0.8,0.1-1.1,0.2c-0.2,0.1-0.4,0.4-0.7,0.8c-0.3,0.5-0.5,1.1-0.8,1.9c-0.3-0.1-0.6-0.3-1-0.4c-0.4-0.2-0.8-0.3-1.2-0.4
		c-0.4-0.1-0.8-0.2-1.2-0.2c-0.4,0-0.7,0.1-1,0.3c-1,0.7-1.9,1.7-2.7,3c-0.8,1.4-1.5,2.9-2.1,4.5c-0.6,1.7-1.1,3.4-1.6,5.2
		c-0.4,1.8-0.8,3.5-1,5.1c-0.2,1.6-0.3,3-0.4,4.3c0,1.2,0.1,2.1,0.3,2.6c0.1,0.2,0.3,0.5,0.6,0.7c0.3,0.2,0.6,0.4,1,0.6
		c0.4,0.1,0.8,0.2,1.2,0.3c0.4,0,0.8,0,1.1-0.1l0.1-0.1l0.7-1.1c0.3-0.5,0.6-1.1,0.9-1.8c0.4-0.9,0.8-1.8,1.2-2.9
		c0.4-1.1,0.8-2.2,1.3-3.3c-0.5,2.3-0.9,4.5-1.2,6.7c-0.2,1.3-0.4,2.5-0.6,3.7l-0.2,0.1c-0.4,0.2-0.8,0.3-1.2,0.5
		c-0.6,0.3-1.3,0.7-2.1,1c-1.6,0.8-3.3,1.7-4.7,2.5c-0.5,0.3-1,0.6-1.5,0.9c-1,0.6-1.9,1.2-2.6,1.7c-0.7,0.5-1.3,1-1.8,1.5
		c-0.4,0.4-0.7,0.8-0.7,1c0,0.4,0.2,0.8,0.5,1.3c0.3,0.5,0.7,1,1.2,1.5c0.5,0.5,0.9,0.8,1.4,1.1c0.5,0.2,0.8,0.3,1,0.1
		c1-0.9,2.2-2,3.5-3.1c1-0.8,2.1-1.7,3.2-2.4c0.4-0.3,0.7-0.5,1.1-0.8c0.7-0.5,1.3-0.9,2-1.3c0.1-0.1,0.2-0.1,0.3-0.2
		c0,0.2,0,0.3,0,0.5c0.9,0.5,2.9-0.1,2.9-0.1s2.1-0.2,2.3-1.1c0-0.2,0.2-0.9,0.3-2l0.2,0c0.5-0.1,0.9-0.4,0.9-0.8
		c0.1-0.4,0-0.8-0.2-1.2c-0.1-0.2-0.3-0.5-0.5-0.7c0.9-5.6,2.3-14.2,2.3-14.2l0,0.1c0.2-1,0.4-2.1,0.6-3.3c0.3-1.4,0.6-2.9,0.9-4.2
		c0.3-1.4,0.7-2.7,1-3.8C179.9,108.4,180.2,107.5,180.5,106.9 M173.9,113.3c-0.3,1.2-0.6,2.5-1,3.8c-0.5,1.3-1,2.6-1.5,4.1
		c-0.5,1.4-1,2.8-1.5,4c-0.5,1.2-0.9,2.2-1.2,3c-0.3,0.8-0.5,1.1-0.6,1.1c-0.2-0.1-0.3-0.6-0.2-1.6c0.1-1,0.2-2.1,0.5-3.5
		c0.3-1.4,0.6-2.9,1.1-4.6c0.4-1.6,0.9-3.1,1.5-4.5c0.6-1.4,1.2-2.5,1.8-3.5c0.6-0.9,1.3-1.4,2-1.4
		C174.5,111,174.2,112.1,173.9,113.3"/>
	<path fill="#FFF2DB" d="M73.3,116c1.8-0.9,3.2-1.5,4.1-2c-0.4,4.8-0.6,9.1-0.6,12.8c0,3.7,0.4,6.2,1.2,7.5c0.2,0.4,0.6,0.8,1.3,1.1
		c0.6,0.3,1.3,0.5,2.1,0.6c0.8,0.1,1.6,0.2,2.4,0.2c0.8,0,1.5-0.1,2.1-0.2c0.5-0.1,1-0.5,1.5-1.1c0.5-0.6,0.9-1.3,1.3-2.1
		c0.4-0.8,0.7-1.7,1-2.6c0.3-0.9,0.5-1.8,0.7-2.7c0.1-0.7,0.1-1.1-0.2-1.1c-0.3,0-0.6,0.1-1,0.3c-0.4,0.2-0.8,0.5-1.1,0.8
		c-0.4,0.3-0.6,0.4-0.7,0.4c-0.3-0.1-0.5-1-0.6-2.8c-0.1-1.8-0.1-4,0.1-6.8c0.1-2.8,0.4-6,0.8-9.6c0.4-3.6,0.9-7.4,1.5-11.3
		c0.6-3.9,1.3-7.9,2.2-12c0.8-4,1.7-7.9,2.7-11.5c0.2-0.7-0.1-1.4-0.8-1.9c-0.7-0.5-1.5-0.9-2.5-1.2c-1-0.3-2-0.5-3-0.5
		c-1-0.1-1.7,0-2,0.2c-0.7,0.4-1.9,2-3.7,4.7c-1.8,2.8-3.8,6.3-6,10.5c-2.2,4.2-4.6,8.9-7.2,14c-2.5,5.2-4.9,10.3-7.1,15.6
		c-1.7,0.4-3.5,0.8-5.2,1.1c-1.7,0.4-3.3,0.7-4.9,0.9c-1.6,0.2-3,0.5-4.4,0.7c-1.3,0.2-2.5,0.3-3.4,0.3c-1.3,0.1-1.8,0.5-1.7,1.4
		c0.1,0.9,0.6,1.8,1.5,2.8c0.8,1,1.9,1.8,3,2.6c1.2,0.7,2.1,1,2.8,0.7c0.7-0.2,1.8-0.6,3.5-1.3c1.7-0.7,3.6-1.5,5.7-2.4
		c-2,5-3.6,9.6-4.8,13.9c-1.2,4.3-1.9,7.7-2,10.3c-0.1,0.7,0.3,1,1.2,1c0.9,0,1.9-0.2,3-0.7c1.1-0.4,2.2-1,3.2-1.7
		c1-0.7,1.6-1.4,1.7-2c0.9-4,1.8-8,2.7-12c0.9-4,2-8.1,3.3-12.3C69.4,117.8,71.4,116.9,73.3,116 M74.1,99.6
		c2.1-4.9,4.7-10.2,7.7-15.9c-0.8,3.9-1.6,8.2-2.3,12.9c-0.7,4.7-1.3,9.3-1.8,13.8c-0.1,0-0.3,0.1-0.4,0.2c-0.1,0.1-0.3,0.2-0.4,0.2
		c-0.7,0.4-1.8,0.8-3.2,1.3c-1.4,0.5-3,0.9-4.8,1.4C70.2,109.1,72,104.5,74.1,99.6"/>
	<path fill="#FFF2DB" d="M92.3,120.5c0.3,2.4,0.9,4.5,2,6.1c0.4,0.7,1.1,1.2,2,1.5c0.9,0.4,1.9,0.6,2.9,0.7c1,0.1,2.1,0.1,3.1,0
		c1-0.1,1.8-0.3,2.4-0.6c0.8-0.4,1.7-1.1,2.7-2.2c1-1,2-2.2,3-3.5c1-1.3,1.9-2.8,2.8-4.4c0.9-1.6,1.7-3.2,2.4-4.8
		c0.4-1,0.5-1.5,0.2-1.8c-0.2-0.2-0.8,0.2-1.6,1.3c-0.6,0.8-1.3,1.8-2.2,3c-0.9,1.2-1.8,2.4-2.7,3.6c-0.9,1.1-1.9,2.2-2.8,3.1
		c-0.9,0.9-1.8,1.5-2.5,1.6c-1.1,0.3-1.9-0.1-2.3-1.3c-0.4-1.1-0.6-2.8-0.5-4.8c0.1-2.1,0.5-4.4,1.1-7.1c0.6-2.7,1.3-5.3,2.2-8
		c0.9-2.7,1.9-5.3,3-7.7c1.1-2.4,2.3-4.5,3.5-6.1c0.7-0.9,1.1-1.3,1.2-1.2c0.1,0.1,0.1,0.7-0.1,1.5c-0.3,1.2-0.6,2.5-1.1,3.9
		c-0.5,1.4-1.1,2.8-1.7,4.3c-0.4,0.9-0.8,1.7-1.2,2.6c-0.4,1.2-0.3,2.2,1.3,1.7c3.1-1.1,7.5-0.8,8.7-8.6c0.1-0.8,0.1-1.5,0.2-2.2
		c0.1-1.7,0-3-0.3-3.9c-0.3-0.8-1-1.5-2.1-2c-1.1-0.5-2.4-0.9-3.8-1.2c-1.4-0.3-2.8-0.3-4.3-0.1c-1.5,0.2-2.6,0.6-3.4,1.4
		c-1.2,1-2.5,2.5-3.8,4.5c-1.3,2-2.5,4.2-3.5,6.6c-1.1,2.5-2,5.1-2.9,7.9c-0.8,2.8-1.4,5.6-1.8,8.3C92,115.5,92,118,92.3,120.5"/>
	<path fill="#FFF2DB" d="M118,111.5c0.3,2.4,0.9,4.5,2,6.1c0.4,0.7,1.1,1.2,2,1.5c0.9,0.4,1.9,0.6,2.9,0.7c1,0.1,2.1,0.1,3.1,0
		c1-0.1,1.8-0.3,2.4-0.6c0.8-0.4,1.7-1.1,2.7-2.2c1-1,2-2.2,3-3.5c1-1.3,1.9-2.8,2.8-4.4c0.9-1.6,1.7-3.2,2.4-4.8
		c0.4-1,0.5-1.5,0.2-1.8c-0.2-0.2-0.8,0.2-1.6,1.3c-0.6,0.8-1.3,1.8-2.2,3c-0.9,1.2-1.8,2.4-2.7,3.5c-0.9,1.1-1.9,2.2-2.8,3.1
		c-0.9,0.9-1.8,1.5-2.5,1.6c-1.1,0.3-1.9-0.1-2.3-1.3c-0.4-1.1-0.6-2.7-0.5-4.8c0.1-2.1,0.5-4.4,1.1-7.1c0.6-2.7,1.3-5.3,2.2-8
		c0.9-2.7,1.9-5.2,3-7.7c1.1-2.4,2.3-4.5,3.5-6.1c0.7-0.9,1.1-1.3,1.2-1.2c0.1,0.1,0.1,0.7,0,1.5c-0.3,1.2-0.6,2.5-1.1,3.9
		c-0.5,1.4-1.1,2.8-1.7,4.3c-0.4,0.8-0.8,1.7-1.1,2.5c-0.4,1.2-0.3,2.3,1.2,1.7c3-1,7.2-0.8,8.5-7.8c0.1-1,0.2-2,0.3-2.9
		c0.1-1.7,0-3-0.3-3.9c-0.3-0.8-1-1.5-2.1-2c-1.1-0.5-2.4-0.9-3.8-1.2c-1.4-0.3-2.8-0.3-4.3-0.1c-1.4,0.2-2.6,0.6-3.4,1.4
		c-1.3,1-2.5,2.5-3.8,4.5c-1.3,2-2.5,4.2-3.5,6.6c-1.1,2.5-2,5.1-2.9,7.9c-0.8,2.8-1.4,5.6-1.8,8.3
		C117.8,106.5,117.7,109.1,118,111.5"/>
	<path fill="#FFF2DB" d="M143.8,102.6c0.3,2.4,0.9,4.5,2,6.2c0.4,0.7,1.1,1.2,2,1.5c0.9,0.4,1.9,0.6,2.9,0.7c1,0.1,2.1,0.1,3.1,0
		c1-0.1,1.8-0.3,2.4-0.6c0.8-0.4,1.7-1.1,2.8-2.1c1-1,2-2.2,3-3.6c1-1.4,1.9-2.9,2.8-4.5c0.9-1.6,1.6-3.2,2.3-4.9
		c0.4-1,0.4-1.6,0.1-1.7c-0.3-0.1-0.7,0.3-1.4,1.3c-1,1.4-2,2.7-3,4c-1,1.3-1.9,2.5-2.8,3.5c-0.9,1-1.7,1.9-2.5,2.5
		c-0.8,0.7-1.4,1.1-1.9,1.3c-1.7,0.4-2.7-0.5-3.1-2.9c-0.3-2.4-0.2-5.4,0.4-9.2c1.1,0.4,2.4,0.8,3.7,1c1.3,0.2,2.5,0.1,3.4-0.6
		c1.5-1,2.9-2.6,4.1-5c1.3-2.4,2.3-4.9,3.2-7.5c0.9-2.7,1.6-5.2,2-7.5c0.4-2.4,0.5-4.1,0.2-5.1c-0.2-0.8-0.8-1.5-2-2.1
		c-1.1-0.6-2.4-1-3.8-1.2c-1.4-0.2-2.9-0.2-4.4,0c-1.5,0.2-2.7,0.6-3.5,1.3c-1.4,1.2-2.8,2.8-4.1,4.8c-1.3,2-2.5,4.3-3.6,6.8
		c-1.1,2.5-2.1,5.2-2.8,8c-0.8,2.8-1.3,5.5-1.6,8.2C143.5,97.7,143.5,100.2,143.8,102.6 M155.1,86.8c0.7-1.9,1.4-3.8,2.3-5.8
		c0.9-1.9,1.8-3.8,2.7-5.5c1-1.7,1.9-3.2,2.7-4.3c0.7-0.8,1.1-1.2,1.2-1.1c0.1,0.1,0.1,0.6-0.1,1.5c-0.4,1.9-1,4-1.9,6.3
		c-0.9,2.3-1.8,4.4-2.8,6.4c-1,2-2,3.7-3,5.1c-1,1.4-1.9,2.3-2.6,2.6C153.9,90.5,154.4,88.7,155.1,86.8"/>
	<path fill="#FFF2DB" d="M168.1,95.2c-0.3,2.4-0.4,4.1,0,5.1c0.1,0.5,0.6,1,1.3,1.6c0.7,0.6,1.5,1.1,2.4,1.5
		c0.8,0.4,1.6,0.6,2.3,0.6c0.7,0,1.1-0.3,1.2-0.9c0-0.3,0.1-0.6,0.2-0.7c0.5-2.3,1.2-4.8,2.1-7.8c0.9-2.9,1.9-5.9,3-9
		c1.1-3.1,2.3-6.1,3.5-9.1c1.2-3,2.4-5.6,3.6-8.1c-0.9,2.7-1.7,5.5-2.5,8.3c-0.8,2.9-1.5,5.6-2,8.1c-0.6,2.5-0.9,4.8-1.2,6.8
		c-0.2,2-0.2,3.4,0.1,4.3c0.2,0.5,0.5,0.9,1,1.4c0.5,0.5,1.1,0.8,1.8,1.1c0.7,0.3,1.4,0.5,2.1,0.6c0.7,0.1,1.4,0.1,2-0.1
		c0.5-0.2,1.1-0.6,1.6-1.3c0.6-0.7,1.1-1.5,1.7-2.4c0.6-0.9,1.1-1.9,1.5-3c0.4-1.1,0.8-2.1,1.2-3c0.3-0.8,0.3-1.1,0-1.1
		c-0.2,0-0.6,0.2-1,0.5c-0.4,0.3-0.8,0.6-1.2,1c-0.4,0.4-0.6,0.5-0.7,0.5c-0.3-0.2-0.4-1.1-0.1-2.6c0.3-1.6,0.7-3.5,1.2-5.8
		c0.6-2.3,1.2-4.8,2.1-7.5c0.8-2.7,1.6-5.3,2.4-7.8c0.8-2.5,1.5-4.6,2.2-6.5c0.6-1.9,1.1-3.1,1.3-3.7c0.2-0.4,0.1-0.8-0.4-1.2
		c-0.5-0.3-1.1-0.6-1.9-0.8c-0.8-0.2-1.6-0.3-2.4-0.4c-0.8,0-1.5,0-1.9,0.2l-0.1,0c-0.8,0.3-2,1.7-3.6,4.4c-1.6,2.6-3.3,5.9-5.1,9.8
		c-1.8,3.9-3.6,8.1-5.4,12.7c-1.8,4.6-3.3,9-4.5,13.1c0.9-4,1.9-7.7,3.1-11.3c1.2-3.6,2.3-6.8,3.4-9.7c1.1-2.9,2.1-5.4,3-7.4
		c0.9-2.1,1.6-3.6,2.1-4.6c0.3-0.5,0.2-0.9-0.4-1.2c-0.5-0.3-1.2-0.6-2.1-0.8c-0.8-0.2-1.7-0.3-2.6-0.3c-0.9,0-1.5,0-2,0.2
		c-0.5,0.2-1.2,1.2-2.1,3c-0.9,1.8-1.8,4.1-2.9,6.9c-1,2.8-2,5.8-3,9.1c-1,3.3-1.8,6.4-2.5,9.5C169,90.1,168.5,92.8,168.1,95.2"/>
	<path fill="#FFF2DB" d="M199.1,73.8c-1,4.2-1.8,7.9-2.3,11c-0.5,3.1-0.6,5.2-0.3,6.1c0.1,0.5,0.5,0.9,1,1.4
		c0.5,0.5,1.1,0.8,1.8,1.1c0.7,0.3,1.4,0.5,2.1,0.6c0.7,0.1,1.4,0.1,1.9-0.1c0.5-0.2,1.1-0.6,1.6-1.3c0.6-0.7,1.1-1.5,1.7-2.4
		c0.6-0.9,1.1-1.9,1.5-3c0.4-1.1,0.8-2.1,1.2-3c0.3-0.8,0.3-1.1,0-1.1c-0.2,0-0.6,0.2-1,0.5c-0.4,0.3-0.8,0.6-1.2,1
		c-0.4,0.4-0.6,0.5-0.7,0.5c-0.4-0.2-0.4-1.5,0-4c0.4-2.5,1.1-5.7,2.1-9.6c0.9-3.9,2.1-8.3,3.6-13.1c1.5-4.9,3.1-9.8,4.8-14.7
		l3.5-1.2c1-0.3,1.7-0.9,2.2-1.8c0.5-0.9,0.9-1.8,1.2-2.7c0.3-0.9,0.5-1.7,0.6-2.4c0.1-0.7-0.4-0.9-1.4-0.5l-3.3,1.1l1.5-3.5
		c0.2-0.5,0-0.9-0.5-1.3c-0.5-0.3-1.2-0.6-2-0.8c-0.8-0.2-1.6-0.3-2.5-0.3c-0.8,0-1.5,0-1.9,0.2c-0.5,0.2-1.2,1.1-2.1,2.8
		c-0.9,1.7-1.8,3.8-2.8,6.5l-3.4,1.2c-1,0.4-1.8,0.9-2.2,1.6c-0.5,0.7-0.8,1.5-1.1,2.4c-0.3,1-0.4,1.9-0.4,2.6c0,0.8,0.4,1,1.4,0.7
		l3.1-1.1c-1.4,4.2-2.8,8.6-4.1,13.4C201.3,65.1,200.1,69.6,199.1,73.8"/>
</g>
</svg>
