<?xml version="1.0" encoding="utf-8"?>
<!-- Generator: Adobe Illustrator 18.0.0, SVG Export Plug-In . SVG Version: 6.00 Build 0)  -->
<!DOCTYPE svg PUBLIC "-//W3C//DTD SVG 1.1//EN" "http://www.w3.org/Graphics/SVG/1.1/DTD/svg11.dtd">
<svg version="1.1" id="Layer_1" xmlns="http://www.w3.org/2000/svg" xmlns:xlink="http://www.w3.org/1999/xlink" x="0px" y="0px"
	 viewBox="0 236 960 86" enable-background="new 0 236 960 86" xml:space="preserve">
<g id="Layer_1_1_">
	<polyline fill="#007E7D" points="-389.3,803 -1348,803 -1348,242.9 -389.3,242.9 -389.3,803 	"/>
	<g>
		<path fill="#00A8A6" d="M-117.4,453.7c-1-4.5-2.7-8.7-5-12.5c-3.4-5.7-8-10.5-13.2-14.5c-2.4-1.9-4.9-3.6-7.6-5.1
			c0.6-0.7,1.1-1.5,1.6-2.3c0.7-1.3,1.3-2.7,1.8-4c0.1-0.2,0.1-0.3,0.2-0.5c0.4-1.4,0.7-2.7,0.9-4c0.4-3.1-0.4-6-2.3-8.3
			c-0.7-0.8-1.5-1.6-2.4-2.1c-0.8-1.3-1.9-2.5-3.3-3.4l0,0c-1.6-1.1-3.5-1.9-5.6-2.3c-1.3-0.3-2.6-0.4-4-0.5l0,0
			c-1.5-0.1-2.9,0-4.1,0.3c-0.6,0.1-1.1,0.3-1.6,0.4c-2.3,0.8-4,2.2-5.3,3.8l-0.2-0.1l-0.7-0.4l-0.8,0.2l-30.7,6.7l-5.2-3.6
			c-7.2-4.9-15.1-8.6-23.5-10.6c-8.3-2-17-2.2-25.8-0.3c-8.8,1.9-16.6,5.8-23.3,11c-6.7,5.3-12.4,11.9-16.9,19.4l-3.3,5.4l-33.3,7.3
			l-0.5,0.6c-0.4,0.5-0.7,1-0.9,1.6c-0.4,1-0.7,2-0.9,3.1c-0.3,1.6-0.5,3.3-0.6,4.8s0,2.9,0.1,3.9l0,0l0.6,6.1l-3.8,4.6l-0.1,0.2
			c-5.2,6.3-9.9,13.5-12.8,21.4c-1.5,3.9-2.5,8-2.9,12.2c-0.4,4.2-0.2,8.5,0.7,12.8c1,4.6,2.8,8.8,5.1,12.6
			c3.5,5.7,8.2,10.6,13.5,14.7c5.3,4.1,11.2,7.4,17.1,10l3.9,1.7l2.4,3.5l0,0c0.2,0.3,0.5,0.6,0.8,1c0.4,0.6,1,1.2,1.6,1.8
			c0.3,0.3,0.6,0.6,0.9,0.9s0.7,0.5,1.1,0.8l0.7,0.4l12.1-2.6l3,0.6l0,0c4.9,0.9,9.9,1.6,14.9,2l0,0l4.2,0.4l3.4,2.5
			c7.5,5.6,15.8,9.9,24.7,12.3c8.8,2.4,18.2,2.8,27.6,0.8c9.4-2,17.7-6.4,24.8-12.2c7.1-5.8,12.9-13.2,17.3-21.5l2-3.7l3.7-2.1l0,0
			l0,0c4.4-2.5,8.6-5.1,12.7-8l2.4-1.7l10.2-2.2l0.5-0.7c0.3-0.4,0.5-0.8,0.7-1.2c0.3-0.6,0.5-1.2,0.7-1.8c0.2-0.6,0.3-1.1,0.4-1.5
			l0,0l0.9-3.9l2.7-2.9c6.2-6.6,11.9-14.4,15.7-23.1c1.9-4.3,3.2-8.9,3.8-13.5C-116.2,463.4-116.3,458.5-117.4,453.7 M-282.8,427.9
			L-282.8,427.9c3.6-5.9,8-11.2,13.2-15.4c5.3-4.2,11.4-7.3,18.3-8.8c6.9-1.5,13.8-1.2,20.3,0.4c6.5,1.6,12.7,4.6,18.4,8.5l10.1,6.9
			l23.1-5c-0.2,0.5-0.3,0.9-0.5,1.4c0,0.1-0.1,0.3-0.1,0.4c0,0.1,0,0.2-0.1,0.3l-22.8,5l-10.7-7.4c-11-7.5-24-11.5-37.3-8.6
			s-23.5,11.9-30.3,23.3l-3.3,5.6h-0.1l0,0c-0.1,0-0.2,0-0.3,0c-0.6,0-1.2,0-1.7,0L-282.8,427.9 M-199.8,425.2
			c-1.9,1.6-3.1,3.8-4.1,5.8c-1.2-0.4-2.5-0.7-3.8-0.9c-0.5-0.1-1-0.1-1.5-0.2l-10.4-7.2c-6.7-4.6-17.2-9.5-29-7
			c-11.8,2.6-19.3,11.4-23.5,18.4l-2.1,3.5c-1.6-1.1-3.4-1.9-5.3-2.5l0,0l0,0c-0.1,0-0.2-0.1-0.4-0.1l2.5-4.1
			c4.8-8,13.5-18.2,27.5-21.3c14-3,26.1,2.6,33.9,7.9l10.7,7.3l1.6,1.1l1.9-0.4L-199.8,425.2 M-336.7,483c2.4-5.9,6.1-11.4,10-16
			l7.6-9.1l-1.2-12.9l23.7-5.2c-0.5,0.7-1,1.4-1.6,2.2l-20.2,4.4l1.2,12l-8.1,9.7c-3.7,4.5-7.4,9.8-9.7,15.6c-1,0.5-1.9,1.2-2.7,2
			C-337.5,484.9-337.1,484-336.7,483 M-306.8,456.8c-2,3.8-4.2,8-6.4,12.5c-0.4,0.8-0.8,1.6-1.1,2.3l-2.9,3.5
			c-1.7,2-3.2,4.1-4.5,6.2c-0.4,0.1-0.8,0.1-1.2,0.2c-1.5,0.2-3,0.5-4.3,0.7c-1.2,0.2-1.9,0.2-2.1,0.2h-0.2
			c2.3-4.6,5.2-8.5,7.5-11.3l8.1-9.7l1.2-1.4l-0.2-1.8l-0.8-8.1l12.1-2.6c-1.3,2.2-2.6,4.6-4.1,7.3l-1.3,0.3L-306.8,456.8
			 M-330.8,516.5c-1.5-1.6-2.9-3.3-4.1-5.2c-1.9-2.9-3.3-6-4-9.5c-0.2-0.8-0.3-1.5-0.4-2.3c0.6,1.2,1.4,2.4,2.4,3.6
			c0.1,0.1,0.2,0.2,0.3,0.3c1.2,4,3.4,7.6,6.2,10.7C-330.5,515-330.7,515.8-330.8,516.5 M-314.1,527.8c-1,0.4-1.9,0.6-2.8,0.8
			c-0.9,0.2-1.8,0.3-2.7,0.3c-0.2,0-0.5,0-0.7,0c-2.4-0.1-4.6-1.2-6.1-2.9c-1.4-1.6-2.1-3.7-2-6c0.1-3.2,0.9-7.2,2.3-12
			c0.1-0.3,0.2-0.5,0.2-0.8c-1.4-0.3-2.9-0.9-4.3-1.8c-1.8-1.1-3.3-2.5-4.6-4c-1.8-2-2.9-4.2-3.2-6.5c-0.4-2.5,0.2-4.8,1.8-6.7
			c1.3-1.6,3.1-2.6,5.2-3.1c0.5-0.1,1.1-0.2,1.7-0.2h0.2c0.4,0,1.2-0.1,2.5-0.3s2.8-0.4,4.3-0.7c1.1-0.2,2.3-0.4,3.5-0.6
			c0.3-0.1,0.6-0.1,1-0.2c0.5-0.1,1-0.2,1.4-0.3c1.8-4.1,3.8-8.3,5.8-12.4c2.6-5.2,5-10,7.3-14.2c2.3-4.3,4.4-8,6.3-10.9
			c2.7-4.2,4.3-6.1,6.2-7.2l0.1-0.1c0.8-0.4,1.6-0.7,2.5-0.9c1-0.2,2.1-0.3,3.3-0.2c0.1,0,0.2,0,0.3,0c1.5,0.1,3,0.4,4.5,0.8l0,0
			c1.8,0.5,3.4,1.3,4.8,2.3c3.2,2.3,4.6,6.1,3.6,9.8l0,0l0,0l0,0l0,0c-0.3,1-0.6,2.1-0.8,3.1c1.5-1.1,3.2-1.8,5.1-2.2
			c0.5-0.1,0.9-0.2,1.4-0.2c1.2-0.1,2.5-0.2,3.7-0.1c0.9,0,1.9,0.2,2.8,0.3c2,0.4,3.9,1,5.6,1.8c0.3-0.6,0.7-1.1,1-1.7
			c1.7-2.6,3.4-4.6,5.2-6.1c1.6-1.4,3.7-2.4,6-2.8c0.5-0.1,0.9-0.2,1.4-0.2c1.2-0.1,2.5-0.2,3.7-0.1c0.9,0,1.9,0.2,2.8,0.3
			c2,0.4,3.8,0.9,5.5,1.7c0.3-0.5,0.7-1.1,1-1.6c1.7-2.6,3.6-4.8,5.6-6.4l0.1-0.1c1.6-1.2,3.5-2.1,5.7-2.6c0.5-0.1,1-0.2,1.4-0.2
			c1.4-0.2,2.8-0.2,4.1-0.1l0,0c0.7,0,1.5,0.1,2.2,0.2c2,0.3,3.8,0.8,5.5,1.6c0.3-0.7,0.6-1.4,0.9-2c1.4-2.9,3.1-5.7,6.4-6.8
			c0.4-0.1,0.9-0.3,1.3-0.4c1-0.2,2.1-0.3,3.4-0.2c0.1,0,0.2,0,0.3,0c1.1,0.1,2.3,0.2,3.4,0.4c1.6-2.3,3.4-3.9,5.7-4.7h0.1
			c0.4-0.1,0.8-0.3,1.3-0.3c0.6-0.1,1.2-0.2,1.8-0.2c0.1-1,0.3-2.1,0.6-3.2c0-0.1,0.1-0.2,0.1-0.3c0.5-1.5,1.1-3,1.9-4.2
			c1.4-2.2,3.4-3.7,6.1-4.7l0.2-0.1c0.6-1.5,1.3-2.8,1.8-4c1.4-2.7,3.1-5.3,6.2-6.4c0.4-0.1,0.8-0.3,1.3-0.3c1-0.2,2.2-0.3,3.5-0.2
			l0,0c1.2,0.1,2.4,0.2,3.6,0.5c1.8,0.4,3.3,1,4.7,1.9l0,0l0,0c1.2,0.8,2.2,1.9,2.8,3.1c0.9,0.5,1.7,1.1,2.3,1.9
			c1.4,1.7,2.1,4,1.7,6.3c-0.2,1.1-0.4,2.3-0.8,3.6c0,0.1-0.1,0.3-0.1,0.4c-0.5,1.3-1,2.5-1.7,3.7c-1.4,2.5-3.5,4.3-6.3,5.3l0,0
			c-1.2,3.7-2.4,7.4-3.5,11.1c-1.4,4.7-2.6,9-3.5,12.7c-0.4,1.7-0.8,3.2-1.1,4.6c0.3,0.3,0.7,0.7,0.9,1.1c1,1.4,1.4,3.1,1.3,4.8
			c-0.1,1.3-0.4,2.3-0.6,2.8l0,0l-0.1,0.2c-0.4,1-0.8,2.1-1.3,3.3c-0.5,1.3-1.1,2.5-1.8,3.7c0.5,0.5,1,1.1,1.4,1.7
			c0.1,0.2,0.2,0.4,0.4,0.6c0.8,1.5,1.1,3.3,1,5.3c-0.1,1.2-0.3,2.5-0.6,3.8c-0.3,1.2-0.7,2.4-1.1,3.5c-0.1,0.2-0.2,0.4-0.2,0.6
			c0.3,1,0.5,2.1,0.5,3.2c0.1,2.3-0.4,4.7-1.5,7.3c-0.9,2.2-2.2,4.3-3.8,6.1c-1.4,1.6-3.3,2.7-5.7,3.4c-0.3,0.1-0.6,0.1-0.9,0.2
			c-1.4,0.3-2.8,0.4-4.3,0.3h-0.2c-0.9-0.1-1.8-0.2-2.7-0.4c-1.2,1.9-2.6,3.2-4.2,4.2l-0.2,0.1c-0.8,0.5-1.8,0.8-2.8,1
			c-0.5,0.1-1,0.2-1.6,0.2c-0.9,0.1-1.8,0.1-2.8,0.1c-0.3,0-0.6,0-0.9-0.1c-0.1,0-0.2,0-0.3,0c0.2,1.1,0.3,2.3,0.1,3.5
			c-0.2,1.4-0.8,2.7-1.7,3.8c-0.5,1.6-2,4.5-6.2,5.8c-0.4,0.1-0.8,0.2-1.3,0.3c-0.2,0-0.3,0.1-0.5,0.1c-0.2,0.1-0.4,0.1-0.7,0.2
			c-0.9,0.2-1.7,0.3-2.5,0.3l-0.3,0.2c-1,0.7-1.9,1.4-2.8,2.2c-1.2,1-2.3,1.9-3.1,2.7l0,0l0,0c-1.1,1-2.4,1.7-3.9,2
			c-0.7,0.1-1.3,0.2-2,0.2c-1.3-0.1-2.6-0.4-3.8-1.1l0,0c-0.5-0.3-1-0.6-1.4-0.9c-0.4,0.2-0.9,0.4-1.4,0.5l0,0l0,0
			c-1.2,0.3-2.6,0.8-4.1,1.3c-1.6,0.6-3.2,1.2-4.7,1.9c-1.5,0.7-2.9,1.4-4.1,2.1c-1.3,0.8-1.8,1.2-1.9,1.4l-0.1,0.1l0,0
			c-1.3,1.3-2.8,2.1-4.5,2.4c-0.7,0.1-1.4,0.2-2.1,0.2c-1-0.1-2-0.3-2.9-0.7c-1.8-0.8-3.3-2.2-4.4-4c-0.7-1.2-1.2-2.6-1.4-4
			c-0.3-2.1,0-4.1,0.9-5.8c0.1-0.1,0.2-0.3,0.2-0.4l0,0c0.8-1.3,1.9-2.5,3.4-3.8c0-0.1,0-0.3,0.1-0.4c0.3-1.9,0.7-4.1,1.1-6.4
			c0.4-2.3,0.9-4.7,1.5-7c0.3-1.4,0.6-2.8,1-4.1h-0.2c-1.2,0.2-2.4,0.2-3.6,0.1c-0.4,0-0.9-0.1-1.3-0.1c-1.7-0.2-3.3-0.6-4.8-1.2
			c-0.6-0.2-1.2-0.5-1.8-0.9c-0.4,0.6-0.8,1.1-1.1,1.6c-1.2,1.6-2.4,3.1-3.7,4.4c-1.5,1.6-3,2.7-4.5,3.5c-0.1,0-0.2,0.1-0.3,0.1l0,0
			c-0.9,0.4-2,0.8-3.2,1c-0.5,0.1-1,0.2-1.5,0.2c-1.2,0.2-2.4,0.2-3.6,0.1c-0.4,0-0.9-0.1-1.3-0.1c-0.9-0.1-1.8-0.3-2.7-0.5
			c-0.1,0.1-0.1,0.2-0.2,0.4c-0.6,1.2-1.3,2.4-2,3.3c-1.9,2.6-4.2,3.5-5.8,3.9h-0.2c-1.1,0.2-2.3,0.3-3.6,0.3c-0.4,0-0.8,0-1.1,0
			c-0.7,0-1.4-0.1-2.1-0.2c-1.6-0.2-3-0.6-4.4-1.3c-2.1-1-3.6-2.4-4.6-4.3c-0.4-0.7-0.7-1.5-1-2.4c-0.7,3-1.4,6.1-2,9.2v0.1
			c-0.6,2.4-2.1,4.6-4.6,6.4C-310.8,526.2-312.4,527-314.1,527.8 M-142.8,459.2c-1.2-5.7-6.3-10.4-11.3-13.8c0.5-2,1.1-4.1,1.7-6.3
			c6.8,4.2,13.8,10.4,15.6,18.8c1.1,5.2,0.2,11-2.8,17.3c-3.1,6.6-7.8,12.2-11.2,15.8l-5.6,5.9l-0.8,0.9l-0.3,1.2l-0.2,0.7l-2.2,0.5
			l-0.9,0.2l-0.7,0.5h-0.1c1.6-1.9,2.9-4.1,3.9-6.4c1-2.5,1.6-4.9,1.7-7.2l0.6-0.6c4.4-4.7,7.9-9.6,10.1-14.2
			C-142.8,467.5-142,463-142.8,459.2 M-167.3,505c-3.2,2.2-6.6,4.4-10.1,6.4l-7.5,4.3l-1.1,0.6l-0.6,1.1l-4.1,7.6
			c-3.3,6.1-7.4,11.3-12.1,15.3c-5,4.3-10.7,7.1-16.8,8.5c-6.1,1.3-12.4,1.1-18.8-0.7c-5.9-1.7-11.8-4.7-17.3-8.9l-6.9-5.2l-1-0.8
			l-1.3-0.1l-8.6-0.8c-4.4-0.4-8.8-1-13-1.8l-6-1.1l-0.9-0.2l-0.9,0.2l-3.6,0.8l-0.9-1.3l-0.7-1l-1.2-0.5l-4.8-2.1
			c1.6-1.6,2.6-3.4,3.2-5.4l4.1,1.8l2.8,1.2l0.2,0.3l1.6-0.4l2.1,0.4l6,1.1c4,0.7,8.1,1.3,12.4,1.7l8.6,0.8l3,0.3l2.4,1.8l5.3,4
			c0.2,0.5,0.4,1,0.7,1.4c1.3,2.3,3.2,4,5.6,5.1c1.2,0.5,2.5,0.9,3.9,0.9c0.6,0,1.3,0,1.9-0.1c1.6,0.7,3.2,1.2,4.8,1.7
			c5.4,1.5,10.7,1.7,15.8,0.6c5.1-1.1,9.8-3.5,14.1-7.1c3.5-3,6.6-6.7,9.3-11.2c0.1,0,0.2-0.1,0.3-0.1c3.8-1.2,6.6-3.7,7.8-7.1
			c1-1.3,1.6-2.9,1.9-4.6c0.1-0.4,0.1-0.8,0.1-1.2c0.5,0,1,0,1.4-0.1c0.7-0.1,1.3-0.2,1.8-0.3c1.3-0.3,2.5-0.7,3.5-1.3l0,0
			c0.1-0.1,0.2-0.1,0.3-0.2l0,0c1.5-0.9,2.8-2.1,4-3.6c0.5,0.1,0.9,0.1,1.4,0.1h0.2c1.7,0.1,3.4,0,5-0.4c0.3-0.1,0.7-0.1,1-0.2
			C-168.3,505.3-167.8,505.2-167.3,505 M-130.4,467.5c-0.6,3.6-1.8,7.1-3.4,10.4c-3.2,6.6-7.8,12.6-12.3,17.4l-5.2,5.6l-1,4.1
			l-5.7,1.2l-4.7,3.3c-3.7,2.6-7.6,5.1-11.6,7.3l-7.1,4l-3.9,7.1c-3.5,6.5-8,12.4-13.5,17.1s-12.1,8.2-19.5,9.8
			c-7.5,1.6-14.9,1.2-21.8-0.8c-7-2-13.5-5.5-19.4-9.9l-6.5-4.9l-8.1-0.7c-4.6-0.4-9.1-1-13.6-1.9l0,0l-5.7-1.1l-7.4,1.6l-3-4.3
			l-7.4-3.3l0,0l0,0c-0.1-0.1-0.3-0.1-0.4-0.2c0.7-0.3,1.4-0.7,2-1.1l7,3.1l2.6,3.7l6.5-1.4l6,1.1c4.4,0.8,8.9,1.4,13.4,1.8l8.6,0.8
			l6.9,5.2c11.4,8.6,25.4,13.5,39.7,10.4c14.3-3.1,25-13.3,31.8-25.9l4.1-7.6l7.5-4.3c3.9-2.2,7.7-4.6,11.4-7.2l5-3.5l4.9-1.1
			l0.8-3.5l5.6-5.9c8.9-9.4,18.1-23.5,15.2-37.1c-2.1-9.8-10.1-17.1-18.7-22.2c0.2-0.6,0.4-1.2,0.6-1.8c1.8,1.1,3.6,2.2,5.3,3.5
			c4.1,3,7.8,6.6,10.6,10.8c1.8,2.8,3.2,5.9,4,9.3C-129.8,460.2-129.8,464-130.4,467.5"/>
		<polyline fill="#00A8A6" points="-174.3,516.8 -174.3,516.8 -174.3,516.8 -174.3,516.8 		"/>
		<polyline fill="#00A8A6" points="-136.3,504.5 -136.3,504.5 -136.4,504.5 -136.3,504.5 		"/>
		<path fill="#00A8A6" d="M-200.1,485.5c-0.6,0.9-1.3,2.1-1.8,3.5c-0.6,1.4-1.1,2.9-1.5,4.5c-0.4,1.6-0.8,3.2-1.1,4.6
			c-0.3,1.4-0.4,2.6-0.5,3.5c-0.1,1,0,1.5,0.2,1.6c0.1,0.1,0.3-0.3,0.6-1.1c0.3-0.8,0.7-1.8,1.2-3s1-2.5,1.5-4
			c0.5-1.4,1-2.8,1.5-4.1c0.3-1.3,0.6-2.6,1-3.8c0.3-1.2,0.6-2.3,0.9-3.2C-198.8,484-199.5,484.5-200.1,485.5"/>
		<path fill="#00A8A6" d="M-215.5,500.5c0.4-1.8,0.8-3.5,1-5.1c0.3-1.6,0.4-2.9,0.5-4c0-1.1-0.1-1.6-0.4-1.7c-0.3,0-0.7,0.4-1.2,1.4
			c-0.4,1-0.9,2.2-1.4,3.7s-0.9,3.2-1.3,5c-0.4,1.8-0.8,3.5-1,5.1c-0.3,1.6-0.4,2.9-0.4,4c0,1.1,0.1,1.7,0.4,1.8
			c0.3,0.1,0.6-0.4,1.1-1.4c0.4-1,0.9-2.3,1.4-3.8C-216.3,504-215.9,502.2-215.5,500.5"/>
		<path fill="#00A8A6" d="M-183.5,478.5c-0.3,0-0.7,0.4-1.2,1.4c-0.4,1-0.9,2.2-1.4,3.7s-0.9,3.2-1.3,5c-0.4,1.8-0.8,3.5-1,5.1
			c-0.3,1.6-0.4,2.9-0.4,4c0,1.1,0.1,1.7,0.4,1.8c0.3,0.1,0.6-0.4,1.1-1.4c0.4-1,0.9-2.3,1.4-3.8s0.9-3.2,1.3-5
			c0.4-1.8,0.8-3.5,1.1-5.1c0.3-1.6,0.4-2.9,0.5-4C-183.1,479.2-183.2,478.5-183.5,478.5"/>
		<path fill="#00A8A6" d="M-296.2,484.9c0.1,0,0.3-0.1,0.4-0.2c0.1-0.1,0.3-0.2,0.4-0.2c0.5-4.6,1.1-9.2,1.8-13.8
			c0.7-4.7,1.5-9,2.3-12.9c-3,5.7-5.6,11-7.7,15.9c-2.1,4.9-3.9,9.5-5.3,13.9c1.8-0.5,3.4-0.9,4.8-1.4
			C-298,485.7-296.9,485.2-296.2,484.9"/>
		<path fill="#00A8A6" d="M-216.8,463.4c1-1.4,2-3.1,3-5.1s2-4.1,2.8-6.4c0.9-2.3,1.5-4.4,1.9-6.3c0.2-0.9,0.2-1.4,0.1-1.5
			c-0.1-0.1-0.5,0.2-1.2,1.1c-0.8,1.2-1.7,2.6-2.7,4.3s-1.9,3.5-2.7,5.5c-0.9,1.9-1.6,3.9-2.3,5.8c-0.7,1.9-1.2,3.7-1.5,5.3
			C-218.7,465.7-217.8,464.8-216.8,463.4"/>
		<path fill="#00A8A6" d="M-307.8,518c0.9-4,1.8-8,2.7-11.9c0.8-3.3,1.7-6.7,2.7-10.2c0.7-0.3,1.5-0.7,2.2-1c-0.1,2.2-0.1,4.2-0.1,6
			c0,4.5,0.6,7.4,1.7,9.4c0.6,1.2,1.7,2.2,3.1,2.9c1,0.5,2.2,0.8,3.4,1c0.6,0.1,1.2,0.1,1.9,0.2c0.3,0,0.7,0,1,0s0.5,0,0.8,0
			c0.1,0,0.2,0,0.3,0c0.2,0,0.3,0,0.5,0c0.1,0,0.2,0,0.3,0c0.1,0,0.3,0,0.4-0.1c0.1,0,0.2,0,0.3,0c0.1,0,0.2,0,0.3-0.1h0.2
			c1.1-0.2,2.6-0.9,3.9-2.6c0.6-0.8,1.2-1.8,1.7-2.8s0.9-2,1.2-3.2c0.3,0.2,0.7,0.3,1,0.5c1.2,0.5,2.6,0.8,4,1
			c0.4,0,0.7,0.1,1.1,0.1c1,0.1,2,0,3-0.1c0.2,0,0.4-0.1,0.6-0.1h0.2c0.1,0,0.3,0,0.4-0.1h0.1h0.1c0.2,0,0.3-0.1,0.5-0.1h0.2
			c0.2-0.1,0.4-0.1,0.5-0.2h0.1c0.1,0,0.3-0.1,0.4-0.1l0.2-0.1c0.2-0.1,0.3-0.1,0.5-0.2l0.2-0.1c1.2-0.6,2.4-1.6,3.7-2.9
			c1.1-1.2,2.3-2.5,3.4-4s2.1-3.1,3-4.8c0.9,1.3,2.2,2.2,3.8,2.9c1.2,0.5,2.6,0.8,4,1c0.4,0,0.7,0.1,1.1,0.1c1,0.1,2,0,3-0.1
			c0.2,0,0.4-0.1,0.6-0.1h0.2c0.1,0,0.3,0,0.4-0.1h0.1h0.1c0.2,0,0.3-0.1,0.5-0.1h0.1c0.2-0.1,0.4-0.1,0.6-0.2h0.1
			c0.1,0,0.3-0.1,0.4-0.2l0.1-0.1c0.2-0.1,0.3-0.1,0.5-0.2l0.2-0.1c0.5-0.3,1-0.6,1.5-1v0.1c-0.3,1-0.6,2.1-0.9,3.3
			c-0.6,2.2-1.1,4.5-1.6,6.8s-1,4.6-1.4,6.9s-0.8,4.4-1.1,6.3v0.3c0,0.4,0,0.8,0,1.2c-0.2,0.1-0.3,0.3-0.5,0.4
			c-1.6,1.3-2.7,2.5-3.5,3.7l-0.1,0.2c-0.6,1-0.7,2.2-0.5,3.7c0.2,1,0.5,2,1,2.9c0.7,1.2,1.7,2.1,2.9,2.6c0.6,0.2,1.2,0.4,1.8,0.4
			h0.2h0.1h0.3l0,0c0.1,0,0.2,0,0.3,0h0.1c0.2,0,0.4-0.1,0.6-0.1h0.1l0.2-0.1h0.1l0.2-0.1h0.1c0.2-0.1,0.4-0.2,0.7-0.3l0.1-0.1
			l0.2-0.2l0.1-0.1l0.2-0.2l0.1-0.1c0.1-0.1,0.2-0.2,0.3-0.3l0,0c0.4-0.4,1.2-1.1,2.6-1.9c1.4-0.8,2.9-1.6,4.4-2.3
			c1.6-0.7,3.3-1.4,4.9-2c1.7-0.6,3.1-1.1,4.4-1.4l0,0c0.9-0.2,1.8-0.8,2.5-1.6c0.2,0.2,0.4,0.4,0.6,0.6l0,0
			c0.7,0.7,1.5,1.3,2.3,1.7l0,0c0.8,0.4,1.6,0.7,2.4,0.7c0.2,0,0.4,0,0.6,0h0.2c0.1,0,0.3,0,0.4-0.1h0.1h0.1c0.2,0,0.3-0.1,0.5-0.1
			h0.1c0.2-0.1,0.4-0.1,0.5-0.2l0.1-0.1c0.1-0.1,0.3-0.1,0.4-0.2l0.1-0.1c0.2-0.1,0.3-0.2,0.4-0.4l0,0c0.9-0.9,2-1.8,3.3-2.9
			c1-0.8,2-1.6,3-2.3c0.3-0.2,0.7-0.5,1-0.7l0.2-0.1c0.1,0,0.2,0,0.3,0c0.2,0,0.4,0,0.6,0h0.2c0.2,0,0.4,0,0.5,0l0,0
			c0.2,0,0.4,0,0.6-0.1h0.1c0.2,0,0.3-0.1,0.5-0.1l0,0l0,0c0.1,0,0.2,0,0.3-0.1h0.1c0.1,0,0.2,0,0.3-0.1c0.1,0,0.2,0,0.3,0l0,0h0.2
			h0.1h0.2l0.2-0.1c0.1,0,0.3-0.1,0.5-0.1c3-0.9,3.8-2.8,4.1-3.9c0-0.1,0-0.2,0.1-0.3c0.8-0.7,1.2-1.7,1.4-2.8s0-2.3-0.4-3.4
			c0.2-1.1,0.4-2.4,0.6-3.6c0.2,0.1,0.4,0.2,0.7,0.2c0.9,0.3,1.9,0.5,2.9,0.6c0.2,0,0.5,0,0.8,0.1c0.8,0,1.5,0,2.3-0.1
			c0.2,0,0.4,0,0.6-0.1h0.2c0.1,0,0.3,0,0.4-0.1h0.1l0,0c0.2,0,0.3-0.1,0.5-0.1h0.1c0.1,0,0.3-0.1,0.4-0.1l0.1-0.1
			c0.1,0,0.2-0.1,0.3-0.1l0.1-0.1c0.1-0.1,0.3-0.1,0.4-0.2l0.1-0.1c1.3-0.8,2.4-1.9,3.4-3.6c0.3-0.5,0.6-1.1,1-1.7l0.1,0.1
			c1.3,0.6,2.8,0.9,4.3,1h0.1c0.3,0,0.7,0,1,0c0.1,0,0.2,0,0.3,0c0.2,0,0.5,0,0.7,0c0.1,0,0.2,0,0.3,0c0.2,0,0.4-0.1,0.6-0.1
			c0.1,0,0.2,0,0.3-0.1h0.2l0,0l0,0c0.2,0,0.4-0.1,0.6-0.1c1.8-0.5,3.1-1.2,4.1-2.3c1.4-1.6,2.5-3.3,3.3-5.2c0.9-2.1,1.3-4,1.2-5.9
			c0-1.3-0.3-2.4-0.9-3.4c0.3-0.5,0.6-1,0.8-1.7c0.4-1,0.7-2,1-3c0.3-1.1,0.4-2.1,0.5-3.1c0.1-1.5-0.1-2.7-0.6-3.7
			c-0.1-0.1-0.1-0.2-0.2-0.4c-0.6-0.9-1.5-1.7-2.7-2.4l0,0c-0.1-0.1-0.2-0.1-0.3-0.2c0.5-0.7,1-1.4,1.5-2.2c0.7-1.1,1.3-2.3,1.8-3.6
			c0.5-1.2,0.9-2.2,1.2-3.2v-0.1c0.3-0.8,1-2.8-0.3-4.7c-0.5-0.7-1.1-1.2-1.9-1.6c0.4-2,0.9-4.2,1.5-6.8c0.9-3.8,2.1-8.1,3.6-12.9
			c1.3-4.2,2.6-8.4,4.1-12.7l1.6-0.5c1.9-0.7,3.5-2,4.5-3.7c0.6-1,1.1-2.1,1.5-3.3l0.1-0.2c0.3-1.1,0.6-2.1,0.7-3.1
			c0.2-1.4-0.2-2.7-1-3.8c-0.6-0.7-1.4-1.2-2.3-1.5c-0.3-1.1-1.1-2.2-2.2-2.9l0,0c-1-0.7-2.1-1.1-3.5-1.4c-1-0.2-2-0.3-3.1-0.4l0,0
			l0,0c-0.3,0-0.6,0-0.9,0h-0.2c-0.2,0-0.4,0-0.7,0h-0.2c-0.3,0-0.5,0.1-0.7,0.1h-0.1c-0.2,0.1-0.5,0.1-0.7,0.2
			c-1.9,0.7-3.2,2.4-4.4,4.8c-0.7,1.4-1.5,3.1-2.3,5.1l-1.6,0.5c-1.9,0.7-3.4,1.8-4.4,3.3c-0.6,1-1.2,2.2-1.6,3.4v0.2
			c-0.4,1.3-0.5,2.6-0.5,3.7c0,0.8,0.2,1.6,0.5,2.3c-0.7-0.1-1.5-0.2-2.2-0.3l0,0l0,0c-0.3,0-0.6,0-0.9,0h-0.2c-0.2,0-0.4,0-0.7,0
			h-0.2c-0.3,0-0.5,0.1-0.7,0.1h-0.1c-0.2,0.1-0.5,0.1-0.7,0.2h-0.1c-1.8,0.6-3.2,2.1-5.3,5.5c-0.6-0.2-1.2-0.4-1.9-0.6l0,0
			c-1-0.2-2-0.4-3.1-0.4h-0.3c-0.2,0-0.4,0-0.6,0h-0.2c-0.2,0-0.3,0-0.5,0h-0.1c-0.2,0-0.4,0-0.6,0.1h-0.1c-0.1,0-0.3,0-0.4,0.1
			h-0.1c-0.1,0-0.2,0-0.3,0.1h-0.1c-0.1,0-0.3,0.1-0.4,0.1c-2,0.7-3.2,2.6-4.5,5.1c-0.7,1.5-1.5,3.4-2.4,5.5
			c-0.6-0.6-1.4-1.2-2.4-1.7c-1.5-0.8-3.2-1.3-5.1-1.6c-0.6-0.1-1.3-0.2-1.9-0.2c-1.2-0.1-2.4,0-3.6,0.1c-0.4,0-0.7,0.1-1.1,0.2
			h-0.1l-0.3,0.1l-0.3,0.1c-0.2,0-0.4,0.1-0.5,0.1h-0.2c-0.2,0.1-0.4,0.1-0.7,0.2l-0.2,0.1c-0.2,0.1-0.3,0.1-0.5,0.2l-0.2,0.1
			c-0.1,0.1-0.3,0.1-0.4,0.2l-0.2,0.1c-0.1,0.1-0.3,0.2-0.4,0.2l-0.2,0.1c-0.2,0.1-0.3,0.2-0.5,0.4l-0.1,0.1c-1.7,1.4-3.4,3.3-5,5.7
			c-0.9,1.4-1.8,2.9-2.6,4.4c-0.6-0.6-1.4-1.1-2.4-1.6c-1.5-0.7-3.1-1.2-4.8-1.5c-0.8-0.1-1.6-0.2-2.4-0.3c-1-0.1-2.1,0-3.1,0.1
			c-0.3,0-0.7,0.1-1,0.2h-0.1c-0.1,0-0.2,0.1-0.3,0.1l-0.2,0.1c-0.2,0.1-0.4,0.1-0.6,0.2h-0.1c-0.2,0.1-0.5,0.2-0.7,0.2l-0.2,0.1
			c-0.2,0.1-0.3,0.1-0.4,0.2l-0.2,0.1c-0.1,0.1-0.3,0.1-0.4,0.2l-0.2,0.1c-0.1,0.1-0.3,0.2-0.4,0.3l-0.2,0.1
			c-0.2,0.1-0.4,0.3-0.5,0.4c-1.6,1.3-3.1,3.1-4.6,5.4c-0.9,1.4-1.8,3-2.6,4.6c-0.6-0.6-1.5-1.2-2.5-1.7c-1.5-0.7-3.1-1.2-4.8-1.5
			c-0.8-0.1-1.6-0.2-2.4-0.3c-1-0.1-2.1,0-3.2,0.1c-0.3,0-0.7,0.1-1,0.2h-0.1c-0.1,0-0.2,0.1-0.3,0.1l-0.2,0.1
			c-0.2,0.1-0.4,0.1-0.6,0.2h-0.1c-0.2,0.1-0.4,0.2-0.7,0.2l-0.2,0.1c-0.1,0.1-0.3,0.1-0.4,0.2l-0.2,0.1c-0.1,0.1-0.3,0.1-0.4,0.2
			l-0.2,0.1l-0.1,0.1l-0.3,0.2l-0.2,0.1c-0.2,0.1-0.4,0.3-0.5,0.4c-1.6,1.3-3.1,3.1-4.6,5.4c-1.1,1.6-2.1,3.5-3,5.4
			c0.4-2.2,0.8-4.5,1.3-6.8c0.8-3.9,1.7-7.7,2.7-11.2l0,0c0.6-2.4-0.2-4.8-2.3-6.3c-1.1-0.8-2.4-1.4-3.8-1.8l0,0
			c-1.3-0.4-2.6-0.6-3.8-0.7h-0.2c-0.2,0-0.4,0-0.7,0h-0.2c-0.1,0-0.3,0-0.4,0h-0.2c-0.1,0-0.2,0-0.3,0h-0.2c-0.1,0-0.2,0-0.3,0.1
			h-0.1h-0.2h-0.2l-0.3,0.1l-0.2,0.1c-0.1,0-0.2,0.1-0.3,0.1l-0.1,0.1c-0.1,0.1-0.3,0.1-0.4,0.2h-0.1c-1.2,0.7-2.4,1.9-5.1,6.1
			c-1.8,2.8-3.9,6.5-6.2,10.7c-2.2,4.2-4.7,9-7.3,14.2c-2.3,4.6-4.4,9.2-6.4,13.8c-1,0.2-2,0.4-3.1,0.7c-0.4,0.1-0.8,0.2-1.1,0.2
			c-0.1,0-0.2,0-0.3,0.1c-0.3,0.1-0.6,0.1-0.8,0.2c-0.1,0-0.2,0-0.3,0.1c-0.3,0.1-0.6,0.1-0.8,0.1h-0.3c-0.4,0.1-0.7,0.1-1.1,0.2
			c-1.5,0.2-3,0.5-4.3,0.7c-1.2,0.2-2.1,0.3-2.9,0.3h-0.1c-0.2,0-0.5,0-0.7,0.1h-0.2l0,0c-0.1,0-0.3,0.1-0.4,0.1h-0.2
			c-0.1,0-0.3,0.1-0.4,0.1l-0.2,0.1c-0.1,0.1-0.3,0.1-0.4,0.2h-0.1l-0.2,0.1l0,0c-0.1,0.1-0.2,0.1-0.3,0.2l-0.1,0.1
			c-0.1,0.1-0.2,0.2-0.3,0.2l-0.1,0.1c-0.1,0.1-0.2,0.2-0.3,0.3l-0.1,0.1c-0.1,0.1-0.3,0.3-0.4,0.4c-0.9,1.1-1.3,2.6-1.1,4.1
			c0.3,1.7,1.1,3.3,2.5,4.9c1.1,1.3,2.4,2.4,3.9,3.3c1.5,0.9,2.8,1.4,4.2,1.5c0.2,0,0.3,0,0.5,0h0.1c0.1,0,0.2,0,0.3,0h0.1
			c0.2,0,0.3,0,0.5-0.1l0,0c0.2,0,0.3-0.1,0.5-0.1c0.3-0.1,0.6-0.2,1-0.3c-0.6,1.8-1.2,3.6-1.7,5.4c-1.3,4.6-2,8.3-2.1,11.2
			c-0.1,1.4,0.3,2.7,1.2,3.6c0.6,0.7,1.8,1.7,3.8,1.8c0.1,0,0.3,0,0.5,0s0.3,0,0.5,0h0.2l0,0c0.1,0,0.2,0,0.3,0h0.2
			c0.1,0,0.2,0,0.3,0h0.2c0.1,0,0.2,0,0.3-0.1c0.1,0,0.2,0,0.3-0.1l0.2-0.1c0.1,0,0.2-0.1,0.3-0.1l0.2-0.1c0.1,0,0.3-0.1,0.4-0.1
			l0.2-0.1c0.2-0.1,0.4-0.1,0.6-0.2c1.5-0.6,2.8-1.3,4.1-2.2C-309.3,521.2-308.3,519.7-307.8,518L-307.8,518 M-223.2,520.2
			c0,0.6-0.2,0.9-0.5,1c-1.4,0.4-3,0.9-4.7,1.5c-1.8,0.6-3.5,1.3-5.3,2.1c-1.7,0.8-3.3,1.6-4.8,2.5c-1.5,0.9-2.7,1.7-3.5,2.6
			c-0.4,0.4-0.8,0.6-1.2,0.4s-0.7-0.5-0.9-0.9c-0.2-0.4-0.4-0.9-0.5-1.4s-0.1-0.9,0.1-1.1c0.5-0.8,1.4-1.7,2.6-2.7
			c1.2-1,2.6-2,4.1-2.9c-0.6-0.1-1.1-0.3-1.5-0.5c-0.4-0.3-0.6-0.6-0.6-1c0.3-1.8,0.6-3.8,1-6.1c0.4-2.2,0.9-4.5,1.4-6.8
			s1-4.5,1.6-6.7s1.1-4.1,1.6-5.8c0.2-0.6,0.2-0.9,0.1-1c-0.1-0.1-0.2-0.1-0.4-0.1c-0.2,0.1-0.4,0.1-0.6,0.2c-0.2,0.1-0.4,0.1-0.4,0
			c-0.1-0.1,0-0.3,0.1-0.7c0.2-0.4,0.4-0.8,0.8-1.2c0.3-0.4,0.7-0.9,1.2-1.4s1-0.8,1.6-1c0.2-0.1,0.6-0.1,1.2,0
			c0.6,0.1,1.1,0.2,1.6,0.5c0.5,0.2,0.9,0.5,1.3,0.8c0.3,0.3,0.4,0.7,0.3,1c-0.8,2.1-1.6,4.4-2.3,6.8c-0.7,2.4-1.4,4.9-2,7.4
			s-1.1,4.9-1.6,7.2c-0.5,2.4-0.9,4.5-1.3,6.4c1.2-0.6,2.3-1.3,3.4-1.8c1.1-0.6,2.1-1.1,3-1.4c0.9-0.4,1.7-0.7,2.3-0.8
			c0.6-0.2,1.1-0.2,1.2-0.1c0.3,0.2,0.6,0.6,0.9,1.2c0.3,0.6,0.5,1.3,0.6,2C-223.2,519-223.1,519.7-223.2,520.2 M-220.1,512.5
			c-0.8-0.1-1.5-0.2-2.2-0.4s-1.1-0.5-1.3-0.8c-0.4-0.7-0.7-1.7-0.8-2.9c-0.1-1.2-0.1-2.6,0-4.1s0.4-3.1,0.7-4.7
			c0.3-1.6,0.8-3.2,1.3-4.6c0.5-1.4,1.1-2.7,1.7-3.8c0.6-1.1,1.3-1.9,2-2.4c0.5-0.3,1.2-0.5,2-0.6s1.6,0,2.4,0.1
			c0.8,0.1,1.6,0.4,2.3,0.7c0.7,0.3,1.2,0.8,1.5,1.3c0.4,0.6,0.5,1.5,0.6,2.7c0,1.2,0,2.6-0.2,4c-0.2,1.5-0.5,3-0.9,4.7
			c-0.4,1.6-0.9,3.2-1.5,4.6c-0.6,1.4-1.2,2.7-1.8,3.7c-0.7,1.1-1.3,1.8-2,2.2c-0.3,0.2-0.8,0.3-1.5,0.3
			C-218.6,512.5-219.3,512.5-220.1,512.5 M-194.4,487.4c-0.3,1.4-0.6,2.8-0.9,4.2c-0.2,1.2-0.4,2.3-0.6,3.3v-0.1
			c0,0-1.3,8.6-2.3,14.2c0.2,0.2,0.3,0.5,0.5,0.7c0.2,0.4,0.3,0.8,0.2,1.2c-0.1,0.4-0.4,0.7-0.9,0.8h-0.2c-0.2,1.1-0.3,1.8-0.3,2
			c-0.2,0.9-2.3,1.1-2.3,1.1s-2.1,0.6-2.9,0.1c0-0.2,0-0.3,0-0.5c-0.1,0.1-0.2,0.1-0.3,0.2c-0.7,0.4-1.3,0.9-2,1.3
			c-0.4,0.3-0.7,0.5-1.1,0.8c-1.1,0.8-2.1,1.6-3.2,2.4c-1.4,1.1-2.6,2.2-3.5,3.1c-0.2,0.2-0.5,0.2-1-0.1c-0.4-0.2-0.9-0.6-1.4-1.1
			s-0.9-0.9-1.2-1.5c-0.3-0.5-0.5-1-0.5-1.3c0-0.2,0.3-0.5,0.7-1c0.4-0.4,1-0.9,1.8-1.5c0.7-0.5,1.6-1.1,2.6-1.7
			c0.5-0.3,1-0.6,1.5-0.9c1.4-0.8,3.1-1.7,4.7-2.5c0.7-0.4,1.5-0.7,2.1-1c0.4-0.2,0.8-0.4,1.2-0.5l0.2-0.1c0.2-1.2,0.4-2.4,0.6-3.7
			c0.4-2.2,0.8-4.5,1.2-6.7c-0.4,1.1-0.8,2.2-1.3,3.3c-0.4,1.1-0.8,2.1-1.2,2.9c-0.3,0.7-0.6,1.3-0.9,1.8l-0.7,1.1l-0.1,0.1
			c-0.3,0.1-0.7,0.2-1.1,0.1c-0.4,0-0.8-0.1-1.2-0.3c-0.4-0.1-0.7-0.3-1-0.6c-0.3-0.2-0.5-0.5-0.6-0.7c-0.2-0.5-0.3-1.4-0.3-2.6
			s0.1-2.7,0.4-4.3c0.2-1.6,0.6-3.3,1-5.1c0.4-1.8,1-3.6,1.6-5.2c0.6-1.7,1.3-3.2,2.1-4.5c0.8-1.4,1.7-2.4,2.7-3
			c0.3-0.2,0.6-0.3,1-0.3s0.8,0.1,1.2,0.2c0.4,0.1,0.8,0.2,1.2,0.4s0.8,0.3,1,0.4c0.3-0.8,0.5-1.4,0.8-1.9s0.5-0.8,0.7-0.8
			c0.2-0.1,0.6-0.2,1.1-0.2s0.9,0,1.4,0.1s0.8,0.2,1.1,0.4s0.4,0.4,0.2,0.7c-0.3,0.6-0.6,1.5-0.9,2.7
			C-193.7,484.7-194,486-194.4,487.4 M-180.2,490.5c-0.4,1.6-0.9,3.2-1.5,4.6c-0.6,1.4-1.2,2.7-1.8,3.7c-0.7,1.1-1.3,1.8-2,2.2
			c-0.3,0.2-0.8,0.3-1.5,0.4c-0.7,0.1-1.5,0.1-2.2,0c-0.8-0.1-1.5-0.2-2.2-0.4s-1.1-0.5-1.3-0.8c-0.4-0.7-0.7-1.7-0.8-2.9
			c-0.1-1.2-0.1-2.6,0-4.1s0.4-3.1,0.7-4.7s0.8-3.2,1.3-4.6c0.5-1.4,1.1-2.7,1.7-3.8c0.6-1.1,1.3-1.9,2-2.4c0.5-0.3,1.2-0.5,2-0.6
			c0.8-0.1,1.6,0,2.4,0.1c0.8,0.1,1.6,0.4,2.3,0.7c0.7,0.4,1.2,0.8,1.5,1.3c0.4,0.6,0.5,1.5,0.6,2.7c0,1.2,0,2.5-0.2,4
			C-179.5,487.2-179.8,488.9-180.2,490.5 M-164.5,475c0,0.7-0.2,1.5-0.4,2.4c-0.2,0.8-0.5,1.6-0.8,2.4s-0.7,1.4-1.1,1.8
			c-0.3,0.3-0.7,0.6-1.3,0.8c-0.5,0.2-1,0.3-1.5,0.4c-0.5,0.1-0.9,0.1-1.2,0c-0.3-0.1-0.4-0.3-0.3-0.6c0.3-0.7,0.6-1.4,0.9-2.1
			c0.3-0.7,0.6-1.5,0.8-2.2s0.5-1.4,0.6-2c0.2-0.6,0.3-1.2,0.4-1.6c0.1-0.5,0.1-0.8,0-0.9c-0.1-0.1-0.3,0.1-0.6,0.7
			c-0.1,0.2-0.3,0.6-0.6,1.3c-0.3,0.6-0.6,1.4-1,2.2c-0.3,0.8-0.7,1.7-1,2.6c-0.3,0.9-0.5,1.7-0.7,2.3c-0.2,0.7-0.2,1.2-0.1,1.6
			c0.1,0.4,0.3,0.5,0.7,0.3c1.9-0.7,3.3-0.8,4.2-0.2c0.9,0.5,1.3,1.4,1.3,2.6s-0.3,2.6-0.9,4.1c-0.6,1.5-1.5,2.9-2.6,4.1
			c-0.4,0.5-1.1,0.8-2,1c-0.9,0.3-1.9,0.3-3,0.3c-1-0.1-2-0.3-2.9-0.7s-1.5-0.9-1.8-1.7c-0.3-0.7-0.3-1.6-0.1-2.7
			c0.2-1.1,0.6-1.9,1.2-2.5c0.3-0.3,0.8-0.6,1.4-0.8c0.6-0.2,1.2-0.3,1.7-0.3s1,0.1,1.3,0.2c0.3,0.2,0.4,0.5,0.2,0.9
			c-0.2,0.6-0.4,1.4-0.6,2.2c-0.2,0.8-0.3,1.5-0.3,2.1c0,0.6,0,1,0.1,1.2s0.3,0,0.6-0.5c0.1-0.2,0.3-0.6,0.6-1.1s0.6-1.1,0.8-1.8
			c0.3-0.7,0.5-1.3,0.8-2c0.2-0.7,0.4-1.2,0.5-1.7s0-0.9-0.1-1.1c-0.1-0.3-0.5-0.3-0.9-0.1c-1.5,0.6-2.6,0.8-3.4,0.7
			c-0.8-0.1-1.4-0.5-1.7-1.1c-0.4-0.7-0.5-1.7-0.3-2.9c0.2-1.3,0.6-2.6,1.1-3.9c0.5-1.4,1.2-2.7,1.9-3.9s1.4-2.1,2.1-2.7
			c0.5-0.4,1.1-0.6,1.8-0.6c0.8,0,1.5,0.1,2.3,0.3s1.5,0.5,2.1,0.8c0.6,0.3,1,0.7,1.2,1C-164.5,473.7-164.4,474.2-164.5,475
			 M-169.3,422c-0.9,0.3-1.4,0.1-1.4-0.7s0.1-1.7,0.4-2.6c0.3-0.9,0.6-1.7,1.1-2.4s1.2-1.3,2.2-1.6l3.4-1.2c1-2.7,2-4.8,2.8-6.5
			c0.9-1.7,1.6-2.6,2.1-2.8c0.4-0.2,1.1-0.2,1.9-0.2c0.8,0,1.7,0.2,2.5,0.3c0.8,0.2,1.5,0.4,2,0.8c0.5,0.3,0.7,0.8,0.5,1.3l-1.5,3.5
			l3.3-1.1c1-0.4,1.5-0.2,1.4,0.5s-0.3,1.5-0.6,2.4s-0.8,1.8-1.2,2.7c-0.5,0.9-1.2,1.5-2.2,1.8l-3.5,1.2c-1.7,5-3.3,9.9-4.8,14.7
			c-1.5,4.9-2.7,9.2-3.6,13.1c-0.9,3.9-1.6,7.1-2.1,9.6c-0.4,2.5-0.4,3.8,0,4c0.1,0,0.3-0.1,0.7-0.5s0.8-0.7,1.2-1s0.7-0.4,1-0.5
			c0.2,0,0.2,0.4,0,1.1c-0.3,0.9-0.7,1.9-1.2,3c-0.4,1.1-0.9,2.1-1.5,3s-1.1,1.7-1.7,2.4c-0.6,0.7-1.1,1.1-1.6,1.3
			c-0.6,0.2-1.2,0.2-1.9,0.1c-0.7-0.1-1.4-0.3-2.1-0.6c-0.7-0.3-1.3-0.6-1.8-1.1s-0.8-0.9-1-1.4c-0.3-0.9-0.2-3,0.3-6.1
			c0.5-3.1,1.3-6.8,2.3-11c1-4.2,2.2-8.7,3.6-13.4c1.4-4.7,2.7-9.2,4.1-13.4L-169.3,422 M-200.7,451.5c1-3.3,2-6.3,3-9.1
			c1-2.8,2-5.1,2.9-6.9s1.6-2.8,2.1-3c0.5-0.2,1.1-0.2,2-0.2s1.7,0.1,2.6,0.3c0.8,0.2,1.5,0.5,2.1,0.8c0.5,0.3,0.7,0.7,0.4,1.2
			c-0.5,1-1.2,2.5-2.1,4.6c-0.9,2.1-1.9,4.6-3,7.4c-1.1,2.9-2.2,6.1-3.4,9.7s-2.2,7.3-3.1,11.3c1.3-4.2,2.8-8.5,4.5-13.1
			c1.8-4.6,3.5-8.8,5.4-12.7c1.8-3.9,3.5-7.2,5.1-9.8c1.6-2.6,2.8-4.1,3.6-4.4h0.1c0.4-0.2,1.1-0.2,1.9-0.2c0.8,0,1.6,0.2,2.4,0.4
			c0.8,0.2,1.4,0.5,1.9,0.8c0.5,0.3,0.6,0.7,0.4,1.2c-0.2,0.6-0.7,1.9-1.3,3.7c-0.6,1.9-1.4,4.1-2.2,6.5c-0.8,2.5-1.6,5-2.4,7.8
			c-0.8,2.7-1.5,5.2-2.1,7.5s-1,4.3-1.2,5.8c-0.3,1.6-0.2,2.5,0.1,2.6c0.1,0,0.3-0.1,0.7-0.5c0.4-0.4,0.8-0.7,1.2-1
			c0.4-0.3,0.7-0.4,1-0.5c0.2,0,0.2,0.4,0,1.1c-0.3,0.9-0.7,1.9-1.2,3c-0.4,1.1-0.9,2.1-1.5,3c-0.6,0.9-1.1,1.7-1.7,2.4
			c-0.6,0.7-1.1,1.1-1.6,1.3c-0.6,0.2-1.2,0.2-2,0.1c-0.7-0.1-1.4-0.3-2.1-0.6c-0.7-0.3-1.3-0.6-1.8-1.1s-0.8-0.9-1-1.4
			c-0.3-0.9-0.3-2.3-0.1-4.3s0.6-4.2,1.2-6.8c0.6-2.5,1.2-5.2,2-8.1s1.6-5.7,2.5-8.3c-1.2,2.4-2.4,5.1-3.6,8.1c-1.2,3-2.4,6-3.5,9.1
			c-1.1,3.1-2.1,6.1-3,9c-0.9,2.9-1.6,5.5-2.1,7.8c-0.1,0.2-0.2,0.4-0.2,0.7c-0.1,0.6-0.5,0.9-1.2,0.9s-1.5-0.2-2.3-0.6
			c-0.8-0.4-1.6-0.9-2.4-1.5c-0.7-0.6-1.2-1.1-1.3-1.6c-0.3-1-0.3-2.7,0-5.1c0.4-2.4,0.9-5.1,1.6-8.1
			C-202.6,458-201.7,454.9-200.7,451.5 M-224.8,452.9c1.1-2.5,2.3-4.8,3.6-6.8s2.7-3.6,4.1-4.8c0.9-0.7,2-1.1,3.5-1.3
			c1.5-0.2,2.9-0.2,4.4,0c1.4,0.2,2.7,0.6,3.8,1.2s1.8,1.3,2,2.1c0.3,1,0.2,2.7-0.2,5.1s-1,4.9-2,7.5c-0.9,2.7-2,5.2-3.2,7.5
			c-1.3,2.4-2.6,4-4.1,5c-0.9,0.6-2.1,0.8-3.4,0.6c-1.3-0.2-2.6-0.6-3.7-1c-0.6,3.8-0.7,6.8-0.4,9.2c0.3,2.4,1.4,3.3,3.1,2.9
			c0.5-0.2,1.2-0.6,1.9-1.3c0.8-0.7,1.6-1.5,2.5-2.5s1.8-2.2,2.8-3.5s2-2.6,3-4c0.6-1,1.1-1.4,1.4-1.3c0.3,0.1,0.2,0.7-0.1,1.7
			c-0.6,1.6-1.4,3.3-2.3,4.9c-0.9,1.6-1.8,3.1-2.8,4.5s-2,2.6-3,3.6s-2,1.7-2.8,2.1c-0.6,0.3-1.4,0.5-2.4,0.6s-2.1,0.1-3.1,0
			s-2-0.4-2.9-0.7c-0.9-0.4-1.6-0.9-2-1.5c-1-1.7-1.7-3.8-2-6.2s-0.3-4.9,0-7.6c0.3-2.7,0.8-5.4,1.6-8.2
			C-226.8,458-225.9,455.4-224.8,452.9 M-250.2,461.5c1.1-2.5,2.3-4.7,3.5-6.6c1.3-2,2.5-3.5,3.8-4.5c0.8-0.7,2-1.2,3.4-1.4
			c1.5-0.2,2.9-0.1,4.3,0.1c1.4,0.3,2.7,0.6,3.8,1.2c1.1,0.5,1.8,1.2,2.1,2c0.3,0.9,0.4,2.3,0.3,3.9c0,0.9-0.1,1.9-0.3,2.9
			c-1.3,7-5.6,6.8-8.5,7.8c-1.6,0.5-1.6-0.5-1.2-1.7c0.4-0.8,0.8-1.6,1.1-2.5c0.6-1.5,1.2-2.9,1.7-4.3c0.5-1.4,0.9-2.7,1.1-3.9
			c0.2-0.9,0.2-1.4,0-1.5c-0.1-0.1-0.5,0.2-1.2,1.2c-1.2,1.6-2.4,3.6-3.5,6.1c-1.1,2.4-2.1,5-3,7.7c-0.9,2.7-1.6,5.4-2.2,8
			c-0.6,2.7-1,5-1.1,7.1c-0.1,2.1,0,3.7,0.5,4.8c0.4,1.2,1.2,1.6,2.3,1.3c0.7-0.2,1.6-0.7,2.5-1.6c0.9-0.9,1.9-1.9,2.8-3.1
			c0.9-1.1,1.8-2.3,2.7-3.5c0.9-1.2,1.6-2.2,2.2-3c0.8-1.1,1.3-1.5,1.6-1.3c0.2,0.2,0.2,0.8-0.2,1.8c-0.7,1.6-1.5,3.2-2.4,4.8
			s-1.8,3.1-2.8,4.4s-2,2.5-3,3.5s-1.9,1.7-2.7,2.2c-0.6,0.3-1.4,0.5-2.4,0.6c-1,0.1-2.1,0.1-3.1,0c-1-0.1-2-0.4-2.9-0.7
			c-0.9-0.4-1.6-0.9-2-1.5c-1-1.6-1.7-3.7-2-6.1c-0.3-2.4-0.2-5,0.1-7.7c0.4-2.7,0.9-5.5,1.8-8.3
			C-252.3,466.7-251.3,464-250.2,461.5 M-278.9,478.4c0.8-2.8,1.8-5.4,2.9-7.9s2.3-4.7,3.5-6.6c1.3-2,2.5-3.5,3.8-4.5
			c0.8-0.7,2-1.2,3.4-1.4c1.5-0.2,2.9-0.1,4.3,0.1c1.4,0.3,2.7,0.7,3.8,1.2c1.1,0.5,1.8,1.2,2.1,2c0.3,0.9,0.4,2.3,0.3,3.9
			c0,0.7-0.1,1.5-0.2,2.2c-1.2,7.8-5.6,7.6-8.7,8.6c-1.6,0.5-1.6-0.5-1.3-1.7c0.4-0.9,0.8-1.7,1.2-2.6c0.6-1.4,1.2-2.9,1.7-4.3
			s0.9-2.7,1.1-3.9c0.1-0.9,0.2-1.4,0-1.5c-0.1-0.1-0.5,0.2-1.2,1.2c-1.2,1.6-2.4,3.6-3.5,6.1c-1.1,2.4-2.1,5-3,7.7s-1.6,5.4-2.2,8
			c-0.6,2.7-0.9,5-1.1,7.1c-0.1,2.1,0,3.7,0.5,4.8c0.4,1.1,1.2,1.6,2.3,1.3c0.7-0.2,1.6-0.7,2.5-1.6c0.9-0.9,1.9-1.9,2.8-3.1
			c0.9-1.1,1.8-2.3,2.7-3.6c0.9-1.2,1.6-2.2,2.2-3c0.8-1.1,1.3-1.5,1.6-1.3c0.2,0.2,0.2,0.8-0.2,1.8c-0.7,1.6-1.5,3.2-2.4,4.8
			s-1.8,3.1-2.8,4.4s-2,2.5-3,3.5s-1.9,1.7-2.7,2.2c-0.6,0.3-1.4,0.5-2.4,0.6c-1,0.1-2.1,0.1-3.1,0c-1-0.1-2-0.4-2.9-0.7
			c-0.9-0.4-1.6-0.9-2-1.5c-1-1.6-1.7-3.7-1.9-6.1c-0.3-2.4-0.2-5,0.1-7.7C-280.3,484-279.7,481.2-278.9,478.4 M-311.9,517
			c-0.2,0.6-0.7,1.3-1.7,2s-2,1.3-3.2,1.7c-1.1,0.4-2.1,0.6-3,0.7c-0.9,0-1.3-0.3-1.2-1c0.1-2.6,0.8-6.1,2-10.3
			c1.2-4.3,2.8-8.9,4.8-13.9c-2.2,0.9-4.1,1.7-5.7,2.4c-1.7,0.7-2.9,1.1-3.5,1.3c-0.7,0.2-1.7,0-2.8-0.7c-1.2-0.7-2.2-1.6-3-2.6
			s-1.3-1.9-1.5-2.8c-0.1-0.9,0.4-1.4,1.7-1.4c0.9,0,2.1-0.1,3.4-0.3c1.3-0.2,2.8-0.4,4.4-0.7c1.6-0.2,3.2-0.6,4.9-0.9
			c1.7-0.4,3.4-0.7,5.2-1.1c2.2-5.2,4.6-10.4,7.1-15.6c2.6-5.2,4.9-9.8,7.2-14c2.2-4.2,4.3-7.7,6-10.5c1.8-2.8,3-4.3,3.7-4.7
			c0.4-0.2,1-0.3,2-0.2s2,0.2,3,0.5s1.8,0.7,2.5,1.2s0.9,1.1,0.8,1.9c-1,3.6-1.9,7.4-2.7,11.5c-0.8,4-1.5,8-2.2,11.9
			c-0.6,3.9-1.1,7.7-1.5,11.3s-0.7,6.8-0.8,9.6c-0.1,2.8-0.2,5.1-0.1,6.8c0.1,1.8,0.3,2.7,0.6,2.8c0.1,0,0.3-0.1,0.7-0.4
			c0.4-0.3,0.8-0.5,1.1-0.8c0.4-0.2,0.7-0.4,1-0.3c0.3,0,0.3,0.4,0.2,1.1c-0.1,0.9-0.4,1.8-0.6,2.7c-0.3,0.9-0.6,1.8-1,2.6
			s-0.8,1.5-1.3,2.1c-0.5,0.6-1,1-1.5,1.1c-0.6,0.1-1.3,0.2-2.1,0.2c-0.8,0-1.6-0.1-2.4-0.2c-0.8-0.1-1.5-0.3-2.1-0.6
			s-1.1-0.7-1.3-1.1c-0.8-1.3-1.2-3.8-1.2-7.5s0.2-8,0.6-12.8c-0.9,0.4-2.2,1.1-4.1,2c-1.8,0.9-3.9,1.8-6.1,2.8
			c-1.3,4.2-2.4,8.3-3.3,12.3C-310.1,509-311,513-311.9,517"/>
		<path fill="#00A8A6" d="M-330.6,488.4c0.1,0,0.2,0,0.3-0.1l0,0C-330.4,488.4-330.5,488.4-330.6,488.4"/>
		<path fill="#FCB615" d="M-174.8,506.2h-0.2c-0.5,0-0.9-0.1-1.4-0.1c-1.2,1.5-2.5,2.7-4,3.6l0,0c-0.1,0.1-0.2,0.1-0.3,0.2l0,0
			c-1.1,0.6-2.2,1-3.5,1.3c-0.6,0.1-1.2,0.2-1.8,0.3c-0.5,0-0.9,0.1-1.4,0.1c0,0.4-0.1,0.8-0.1,1.2c-0.3,1.7-0.9,3.2-1.9,4.6
			c-1.2,3.4-3.9,5.9-7.8,7.1c-0.1,0-0.2,0.1-0.3,0.1c-2.7,4.4-5.8,8.2-9.3,11.2c-4.3,3.6-9,6-14.1,7.1c-5.1,1.1-10.4,0.9-15.8-0.6
			c-1.6-0.5-3.2-1-4.8-1.7c-0.6,0.1-1.3,0.1-1.9,0.1c-1.3-0.1-2.6-0.4-3.9-0.9c-2.3-1-4.3-2.8-5.6-5.1c-0.3-0.5-0.5-0.9-0.7-1.4
			l-5.3-4l-2.4-1.8l-3-0.3l-8.6-0.8c-4.2-0.4-8.4-0.9-12.4-1.7l-6-1.1l-2.1-0.4l-1.6,0.4l-0.2-0.3l-2.8-1.2l-4.1-1.8
			c-0.6,2-1.6,3.8-3.2,5.4l4.8,2.1l1.2,0.5l0.7,1l0.9,1.3l3.6-0.8l0.9-0.2l0.9,0.2l6,1.1c4.2,0.8,8.5,1.4,13,1.8l8.6,0.8l1.3,0.1
			l1,0.8l6.9,5.2c5.6,4.2,11.4,7.2,17.3,8.9c6.4,1.8,12.7,2,18.8,0.7s11.8-4.2,16.8-8.5c4.7-4,8.8-9.1,12.1-15.3l4.1-7.6l0.6-1.1
			l1.1-0.6l7.5-4.3c3.5-2,6.9-4.1,10.1-6.4c-0.5,0.2-1,0.3-1.5,0.5c-0.3,0.1-0.7,0.2-1,0.2C-171.4,506-173.1,506.2-174.8,506.2"/>
		<path fill="#FCB615" d="M-301.6,447.4l-12.1,2.6l0.8,8.1l0.2,1.8l-1.2,1.4l-8.1,9.7c-2.3,2.8-5.2,6.7-7.5,11.3h0.2
			c0.3,0,0.9,0,2.1-0.2c1.3-0.2,2.8-0.4,4.3-0.7c0.4-0.1,0.8-0.1,1.2-0.2c1.3-2,2.8-4.1,4.5-6.2l2.9-3.5c0.4-0.8,0.8-1.6,1.1-2.3
			c2.2-4.5,4.4-8.7,6.4-12.5l-0.2-1.8l1.3-0.3C-304.2,452-302.9,449.5-301.6,447.4"/>
		<path fill="#FCB615" d="M-205.3,425l-10.7-7.3c-7.7-5.3-19.9-11-33.9-7.9c-14,3-22.7,13.2-27.5,21.3l-2.5,4.1
			c0.1,0,0.2,0.1,0.4,0.1l0,0l0,0c2,0.6,3.8,1.4,5.3,2.5l2.1-3.5c4.2-7,11.7-15.8,23.5-18.4c11.8-2.6,22.3,2.4,29,7l10.4,7.2
			c0.5,0,1,0.1,1.5,0.2c1.3,0.2,2.6,0.5,3.8,0.9c1-2,2.3-4.2,4.1-5.8l-2.1,0.5l-1.9,0.4L-205.3,425"/>
		<path fill="#FCB615" d="M-155.3,486.8l-0.6,0.6c-0.1,2.3-0.6,4.8-1.7,7.2c-1,2.3-2.3,4.4-3.9,6.4h0.1l0.7-0.5l0.9-0.2l2.2-0.5
			l0.2-0.7l0.3-1.2l0.8-0.9l5.6-5.9c3.4-3.6,8.1-9.3,11.2-15.8c3-6.3,3.9-12.1,2.8-17.3c-1.8-8.4-8.9-14.6-15.6-18.8
			c-0.6,2.2-1.2,4.4-1.7,6.3c5,3.4,10,8,11.3,13.8c0.8,3.8,0,8.3-2.3,13.3C-147.3,477-150.9,482-155.3,486.8"/>
		<path fill="#FFF2DB" d="M-284.9,434.2c0.1,0,0.2,0,0.3,0l0,0h0.1l3.3-5.6c6.9-11.4,17.1-20.4,30.3-23.3
			c13.2-2.9,26.3,1.1,37.3,8.6l10.7,7.4l22.8-5l0.1-0.3c0-0.1,0.1-0.3,0.1-0.4c0.1-0.5,0.3-0.9,0.5-1.4l-23.1,5l-10.1-6.9
			c-5.6-3.9-11.9-6.8-18.4-8.5c-6.5-1.6-13.4-1.9-20.3-0.4s-13.1,4.6-18.3,8.8c-5.3,4.2-9.7,9.5-13.2,15.3l0,0l-3.9,6.4
			C-286.1,434.2-285.5,434.2-284.9,434.2"/>
		<path fill="#FFF2DB" d="M-325.4,468.2l8.1-9.7l-1.2-12l20.2-4.4c0.6-0.8,1.1-1.6,1.6-2.2l-23.7,5.2l1.2,12.9l-7.6,9.1
			c-3.8,4.6-7.5,10-10,16c-0.4,0.9-0.7,1.9-1,2.8c0.8-0.8,1.7-1.5,2.7-2C-332.7,478-329.1,472.8-325.4,468.2"/>
		<path fill="#FFF2DB" d="M-336.9,503.2c-1-1.1-1.8-2.3-2.4-3.6c0.1,0.8,0.2,1.5,0.4,2.3c0.7,3.4,2.2,6.6,4,9.5
			c1.2,1.8,2.6,3.6,4.1,5.2c0.1-0.7,0.2-1.5,0.4-2.3c-2.8-3.2-5-6.7-6.2-10.7C-336.7,503.3-336.8,503.2-336.9,503.2"/>
		<path fill="#FFF2DB" d="M-130.6,456.5c-0.7-3.4-2.1-6.5-4-9.3c-2.8-4.2-6.5-7.8-10.6-10.8c-1.7-1.3-3.5-2.4-5.3-3.5
			c-0.2,0.6-0.4,1.2-0.6,1.8c8.6,5.1,16.5,12.5,18.7,22.2c3,13.6-6.3,27.7-15.2,37.1l-5.6,5.9l-0.8,3.5l-4.9,1.1l-5,3.5
			c-3.7,2.6-7.5,5-11.4,7.2l-7.5,4.3l-4.1,7.6c-6.8,12.6-17.5,22.8-31.8,25.9c-14.3,3.1-28.3-1.7-39.7-10.4l-6.9-5.2l-8.6-0.8
			c-4.5-0.4-9-1-13.4-1.8l-6-1.1l-6.5,1.4l-2.6-3.7l-7-3.1c-0.7,0.4-1.3,0.8-2,1.1c0.1,0.1,0.3,0.1,0.4,0.2l0,0l0,0l7.4,3.3l3,4.3
			l7.4-1.6l5.7,1.1l0,0c4.5,0.8,9,1.5,13.6,1.9l8.1,0.7l6.5,4.9c5.9,4.4,12.4,7.9,19.4,9.9s14.4,2.4,21.8,0.8
			c7.5-1.6,14-5.1,19.5-9.8s10-10.6,13.5-17.1l3.9-7.1l7.1-4l0,0l0,0c4-2.2,7.8-4.7,11.6-7.3l4.7-3.3l5.7-1.2l1-4.1l5.2-5.6
			c4.5-4.8,9.2-10.8,12.3-17.4c1.6-3.3,2.8-6.8,3.4-10.4C-129.8,464-129.8,460.2-130.6,456.5"/>
		<path fill="#FFF2DB" d="M-304.7,518.8L-304.7,518.8c0.7-3.2,1.4-6.3,2-9.3c0.3,0.9,0.6,1.7,1,2.4c1,1.9,2.5,3.3,4.6,4.3
			c1.3,0.6,2.8,1.1,4.4,1.3c0.7,0.1,1.4,0.1,2.1,0.2c0.4,0,0.8,0,1.1,0c1.3,0,2.5-0.1,3.6-0.3h0.2c1.6-0.3,3.9-1.3,5.9-3.9
			c0.7-1,1.4-2.1,2-3.3c0.1-0.1,0.1-0.2,0.2-0.4c0.9,0.2,1.8,0.4,2.7,0.5c0.4,0,0.9,0.1,1.3,0.1c1.2,0.1,2.4,0,3.6-0.1
			c0.5-0.1,1-0.1,1.5-0.2c1.2-0.2,2.2-0.6,3.2-1l0,0c0.1,0,0.2-0.1,0.3-0.1c1.5-0.8,2.9-1.9,4.5-3.5c1.3-1.3,2.5-2.8,3.7-4.4
			c0.4-0.5,0.8-1.1,1.1-1.6c0.6,0.3,1.2,0.6,1.8,0.9c1.5,0.6,3.1,1,4.8,1.2c0.4,0.1,0.9,0.1,1.3,0.1c1.2,0.1,2.4,0,3.6-0.1h0.2
			c-0.3,1.4-0.7,2.7-1,4.1c-0.5,2.3-1,4.7-1.5,7c-0.4,2.3-0.8,4.5-1.1,6.4c0,0.1,0,0.3-0.1,0.4c-1.5,1.3-2.6,2.6-3.4,3.8l0,0
			c-0.1,0.1-0.2,0.3-0.2,0.4c-0.9,1.7-1.2,3.6-0.9,5.8c0.2,1.4,0.7,2.8,1.4,4c1,1.8,2.5,3.2,4.4,4c0.9,0.4,1.9,0.7,2.9,0.7
			c0.7,0,1.4,0,2.1-0.2c1.7-0.3,3.2-1.2,4.5-2.4l0,0l0.1-0.1c0.1-0.1,0.7-0.6,1.9-1.4c1.3-0.7,2.7-1.5,4.1-2.1
			c1.5-0.7,3.1-1.3,4.7-1.9c1.6-0.6,3-1,4.1-1.3l0,0l0,0c0.5-0.1,1-0.3,1.4-0.5c0.5,0.3,0.9,0.6,1.4,0.9l0,0c1.2,0.7,2.5,1,3.8,1.1
			c0.7,0,1.4,0,2-0.2c1.5-0.3,2.8-1,3.9-2l0,0l0,0c0.8-0.8,1.9-1.7,3.1-2.7c0.9-0.7,1.9-1.5,2.8-2.2l0.3-0.2c0.8,0,1.7-0.1,2.5-0.3
			c0.2,0,0.4-0.1,0.7-0.2c0.2,0,0.3-0.1,0.5-0.1c0.4-0.1,0.9-0.2,1.3-0.3c4.2-1.3,5.7-4.2,6.2-5.8c0.9-1.1,1.4-2.4,1.7-3.8
			c0.2-1.1,0.2-2.3-0.1-3.5c0.1,0,0.2,0,0.3,0c0.3,0,0.6,0.1,0.9,0.1c0.9,0,1.9,0,2.8-0.1c0.6-0.1,1.1-0.1,1.6-0.2
			c1.1-0.2,2-0.5,2.8-1l0.2-0.1c1.6-1,3-2.3,4.2-4.2c0.9,0.2,1.8,0.3,2.7,0.4h0.2c1.5,0.1,2.9,0,4.3-0.3c0.3-0.1,0.6-0.1,0.9-0.2
			c2.4-0.6,4.3-1.7,5.7-3.4c1.6-1.8,2.9-3.9,3.8-6.1c1.1-2.5,1.6-5,1.5-7.2c0-1.1-0.2-2.2-0.5-3.2c0.1-0.2,0.2-0.4,0.2-0.6
			c0.5-1.1,0.9-2.3,1.1-3.5c0.3-1.3,0.5-2.6,0.6-3.8c0.1-2-0.2-3.8-1-5.3c-0.1-0.2-0.2-0.4-0.4-0.6c-0.4-0.6-0.8-1.2-1.4-1.7
			c0.7-1.1,1.3-2.4,1.8-3.7c0.5-1.2,0.9-2.3,1.3-3.3l0.1-0.2l0,0c0.2-0.5,0.5-1.5,0.6-2.8c0.1-1.7-0.4-3.4-1.3-4.8
			c-0.3-0.4-0.6-0.8-0.9-1.1c0.3-1.4,0.7-3,1.1-4.6c0.9-3.7,2.1-8,3.5-12.7c1.1-3.6,2.3-7.3,3.5-11.1l0,0c2.7-0.9,4.9-2.8,6.3-5.3
			c0.6-1.2,1.2-2.4,1.7-3.7c0-0.1,0.1-0.3,0.1-0.4c0.4-1.3,0.7-2.5,0.8-3.6c0.3-2.3-0.3-4.6-1.7-6.3c-0.6-0.8-1.4-1.4-2.3-1.9
			c-0.6-1.2-1.6-2.3-2.8-3.1l0,0l0,0c-1.3-0.9-2.9-1.5-4.7-1.9c-1.2-0.2-2.4-0.4-3.6-0.5l0,0c-1.3-0.1-2.4,0-3.5,0.2
			c-0.4,0.1-0.9,0.2-1.3,0.4c-3.1,1.1-4.9,3.7-6.2,6.4c-0.6,1.1-1.2,2.5-1.8,4l-0.2,0.1c-2.7,0.9-4.7,2.5-6.1,4.7
			c-0.8,1.3-1.5,2.7-1.9,4.2c0,0.1-0.1,0.2-0.1,0.3c-0.3,1.1-0.5,2.2-0.6,3.2c-0.6,0-1.2,0.1-1.8,0.2c-0.4,0.1-0.9,0.2-1.3,0.3h-0.1
			c-2.3,0.8-4,2.5-5.7,4.7c-1.1-0.2-2.3-0.4-3.4-0.4c-0.1,0-0.2,0-0.3,0c-1.3,0-2.4,0-3.4,0.2c-0.4,0.1-0.9,0.2-1.3,0.4
			c-3.2,1.1-5,3.9-6.4,6.8c-0.3,0.6-0.6,1.3-0.9,2c-1.7-0.8-3.5-1.3-5.5-1.6c-0.7-0.1-1.5-0.2-2.2-0.2l0,0c-1.4-0.1-2.8,0-4.1,0.1
			c-0.5,0.1-1,0.1-1.4,0.2c-2.2,0.5-4.1,1.3-5.7,2.6l-0.1,0.1c-2,1.6-3.9,3.8-5.6,6.5c-0.3,0.5-0.7,1-1,1.6
			c-1.7-0.8-3.5-1.3-5.5-1.7c-0.9-0.2-1.9-0.3-2.8-0.3c-1.2-0.1-2.5,0-3.7,0.1c-0.5,0.1-1,0.1-1.4,0.2c-2.3,0.5-4.3,1.4-6,2.8
			c-1.8,1.5-3.5,3.5-5.2,6.1c-0.4,0.5-0.7,1.1-1,1.7c-1.7-0.8-3.6-1.4-5.6-1.8c-0.9-0.2-1.9-0.3-2.8-0.3c-1.2-0.1-2.5,0-3.7,0.1
			c-0.5,0.1-1,0.1-1.4,0.2c-1.9,0.4-3.7,1.1-5.1,2.2c0.3-1.1,0.5-2.1,0.8-3.1l0,0l0,0l0,0l0,0c1-3.7-0.4-7.5-3.6-9.8
			c-1.4-1-3-1.8-4.8-2.3l0,0c-1.5-0.4-3-0.7-4.5-0.8c-0.1,0-0.2,0-0.3,0c-1.2-0.1-2.3,0-3.3,0.2c-0.9,0.2-1.7,0.5-2.5,0.9l-0.1,0.1
			c-1.9,1.1-3.5,3-6.2,7.2c-1.9,2.9-4,6.6-6.3,10.9c-2.3,4.2-4.7,9-7.3,14.2c-2,4.1-4,8.3-5.8,12.4c-0.5,0.1-0.9,0.2-1.4,0.3
			c-0.3,0.1-0.6,0.1-1,0.2c-1.2,0.3-2.4,0.5-3.5,0.6c-1.5,0.2-3,0.5-4.3,0.7c-1.3,0.2-2,0.2-2.5,0.3h-0.2c-0.6,0-1.2,0.1-1.7,0.2
			c-2.1,0.4-3.9,1.5-5.2,3.1c-1.5,1.9-2.1,4.3-1.8,6.7c0.4,2.3,1.4,4.5,3.2,6.5c1.3,1.5,2.9,2.8,4.6,4c1.5,0.9,2.9,1.5,4.3,1.8
			c-0.1,0.3-0.2,0.5-0.2,0.8c-1.4,4.8-2.1,8.7-2.3,12c-0.1,2.2,0.6,4.3,2,6c1.5,1.7,3.7,2.8,6.1,2.9c0.2,0,0.5,0,0.7,0
			c0.9,0,1.8-0.1,2.7-0.3c0.9-0.2,1.9-0.5,2.8-0.8c1.7-0.7,3.4-1.5,4.9-2.6C-306.8,523.3-305.2,521.2-304.7,518.8 M-311.2,522.5
			c-1.3,0.9-2.7,1.7-4.1,2.2c-0.2,0.1-0.4,0.1-0.6,0.2l-0.2,0.1c-0.1,0-0.3,0.1-0.4,0.1l-0.2,0.1c-0.1,0-0.2,0.1-0.3,0.1l-0.2,0.1
			c-0.1,0-0.2,0.1-0.3,0.1c-0.1,0-0.2,0-0.3,0.1h-0.2c-0.1,0-0.2,0-0.3,0h-0.2c-0.1,0-0.2,0-0.3,0h-0.1h-0.2c-0.2,0-0.3,0-0.5,0
			s-0.3,0-0.5,0c-2-0.1-3.2-1-3.8-1.8c-0.9-1-1.3-2.3-1.2-3.6c0.1-3,0.8-6.7,2.1-11.2c0.5-1.7,1.1-3.5,1.7-5.4
			c-0.4,0.1-0.7,0.2-1,0.3c-0.2,0.1-0.3,0.1-0.5,0.1l0,0c-0.1,0-0.3,0.1-0.5,0.1h-0.1c-0.1,0-0.2,0-0.3,0h-0.1c-0.2,0-0.3,0-0.5,0
			c-1.3-0.1-2.7-0.6-4.2-1.5c-1.5-1-2.8-2.1-3.9-3.3c-1.4-1.6-2.2-3.2-2.5-4.9c-0.2-1.5,0.1-3,1.1-4.1c0.1-0.1,0.2-0.3,0.4-0.4
			l0.1-0.1c0.1-0.1,0.2-0.2,0.3-0.3l0.1-0.1c0.1-0.1,0.2-0.2,0.3-0.2l0.1-0.1c0.1-0.1,0.2-0.1,0.3-0.2l0,0l0.2-0.1h0.1
			c0.1-0.1,0.3-0.1,0.4-0.2l0.2-0.1c0.1,0,0.3-0.1,0.4-0.1h0.2c0.1,0,0.3-0.1,0.4-0.1l0,0h0.2c0.2,0,0.4-0.1,0.7-0.1h0.1
			c0.7,0,1.7-0.1,2.9-0.3c1.3-0.2,2.8-0.4,4.3-0.7c0.3-0.1,0.7-0.1,1-0.2h0.3c0.3,0,0.5-0.1,0.8-0.1c0.1,0,0.2,0,0.3-0.1
			c0.3-0.1,0.6-0.1,0.8-0.2c0.1,0,0.2,0,0.3-0.1c0.4-0.1,0.8-0.2,1.1-0.2c1.1-0.2,2.1-0.5,3.1-0.7c2-4.6,4.1-9.2,6.4-13.8
			c2.6-5.2,5-10,7.3-14.2c2.3-4.3,4.4-7.9,6.2-10.7c2.7-4.2,3.9-5.4,5.1-6.1h0.1c0.1-0.1,0.3-0.1,0.4-0.2l0.1-0.1
			c0.1,0,0.2-0.1,0.3-0.1l0.2-0.1l0.3-0.1h0.2h0.2h0.1c0.1,0,0.2,0,0.3-0.1h0.2c0.1,0,0.2,0,0.3,0h0.2c0.1,0,0.3,0,0.4,0h0.2
			c0.2,0,0.4,0,0.7,0h0.2c1.3,0.1,2.6,0.3,3.8,0.7l0,0c1.4,0.4,2.7,1,3.8,1.8c2.1,1.5,3,3.9,2.3,6.3l0,0c-1,3.5-1.9,7.3-2.7,11.2
			c-0.5,2.3-0.9,4.5-1.3,6.8c0.9-1.9,1.9-3.8,3-5.4c1.5-2.3,3-4.1,4.6-5.4c0.2-0.1,0.3-0.3,0.5-0.4l0.2-0.1c0.1-0.1,0.2-0.1,0.3-0.2
			l0.1-0.1l0.2-0.1c0.1-0.1,0.3-0.1,0.4-0.2l0.2-0.1c0.1-0.1,0.3-0.1,0.4-0.2l0.2-0.1c0.2-0.1,0.4-0.2,0.7-0.2h0.1
			c0.2-0.1,0.4-0.1,0.6-0.2l0.2-0.1c0.1,0,0.2-0.1,0.3-0.1h0.1c0.3-0.1,0.7-0.1,1-0.2c1.1-0.1,2.1-0.2,3.2-0.1
			c0.8,0,1.6,0.1,2.4,0.3c1.8,0.3,3.4,0.8,4.8,1.5c1.1,0.5,1.9,1.1,2.5,1.7c0.8-1.7,1.7-3.2,2.6-4.6c1.5-2.3,3-4.1,4.6-5.4
			c0.2-0.1,0.4-0.3,0.5-0.4l0.2-0.1c0.1-0.1,0.3-0.2,0.4-0.3l0.2-0.1c0.1-0.1,0.3-0.1,0.4-0.2l0.2-0.1c0.1-0.1,0.3-0.1,0.4-0.2
			l0.2-0.1c0.2-0.1,0.4-0.2,0.7-0.2h0.1c0.2-0.1,0.4-0.1,0.6-0.2l0.2-0.1c0.1,0,0.2-0.1,0.3-0.1h0.1c0.3-0.1,0.7-0.1,1-0.2
			c1-0.1,2.1-0.2,3.1-0.1c0.8,0,1.6,0.1,2.4,0.3c1.8,0.3,3.4,0.8,4.8,1.5c1,0.5,1.8,1,2.4,1.6c0.8-1.6,1.7-3.1,2.6-4.4
			c1.6-2.4,3.2-4.3,5-5.7l0.1-0.1c0.2-0.1,0.3-0.3,0.5-0.4l0.2-0.1c0.1-0.1,0.3-0.2,0.4-0.2l0.2-0.1c0.1-0.1,0.3-0.1,0.4-0.2
			l0.2-0.1c0.2-0.1,0.3-0.1,0.5-0.2l0.2-0.1c0.2-0.1,0.4-0.2,0.7-0.2h0.2c0.2-0.1,0.3-0.1,0.5-0.1l0.3-0.1l0.3-0.1h0.1
			c0.3-0.1,0.7-0.1,1.1-0.2c1.2-0.1,2.4-0.2,3.6-0.1c0.6,0,1.3,0.1,1.9,0.2c1.9,0.3,3.6,0.8,5.1,1.6c1,0.5,1.8,1.1,2.4,1.7
			c0.8-2.1,1.6-4,2.4-5.5c1.2-2.6,2.5-4.4,4.5-5.1c0.1,0,0.3-0.1,0.4-0.1h0.1c0.1,0,0.2-0.1,0.3-0.1h0.1c0.1,0,0.3-0.1,0.4-0.1h0.1
			c0.2,0,0.4,0,0.6-0.1h0.1c0.2,0,0.3,0,0.5,0h0.2c0.2,0,0.4,0,0.6,0h0.3c1,0.1,2.1,0.2,3.1,0.4l0,0c0.7,0.2,1.3,0.3,1.9,0.6
			c2.1-3.3,3.6-4.8,5.3-5.5h0.1c0.2-0.1,0.5-0.1,0.7-0.2h0.1c0.2-0.1,0.5-0.1,0.7-0.1h0.2c0.2,0,0.4,0,0.7,0h0.2c0.3,0,0.6,0,0.9,0
			l0,0l0,0c0.8,0,1.5,0.1,2.2,0.3c-0.3-0.7-0.5-1.4-0.5-2.3c0-1.1,0.2-2.4,0.5-3.7v-0.2c0.4-1.3,0.9-2.4,1.6-3.4
			c1-1.5,2.4-2.6,4.4-3.3l1.6-0.5c0.8-2,1.6-3.7,2.3-5.1c1.2-2.4,2.5-4.1,4.4-4.8c0.2-0.1,0.5-0.1,0.7-0.2h0.1h0.1
			c0.2,0,0.4-0.1,0.7-0.1h0.2c0.2,0,0.4,0,0.7,0h0.2c0.3,0,0.6,0,0.9,0l0,0l0,0c1,0.1,2.1,0.2,3.1,0.4c1.3,0.3,2.5,0.8,3.5,1.4l0,0
			c1.1,0.8,1.8,1.8,2.2,2.9c0.9,0.3,1.7,0.8,2.3,1.5c0.8,1,1.2,2.4,1,3.8c-0.1,0.9-0.4,1.9-0.7,3.1l-0.1,0.2
			c-0.4,1.1-0.9,2.2-1.5,3.3c-1,1.8-2.5,3.1-4.5,3.7l-1.6,0.5c-1.4,4.3-2.8,8.5-4.1,12.7c-1.4,4.8-2.6,9.1-3.6,12.9
			c-0.6,2.6-1.1,4.9-1.5,6.8c0.8,0.3,1.4,0.8,1.9,1.6c1.3,1.9,0.6,4,0.3,4.7v0.1c-0.4,1-0.8,2-1.2,3.2c-0.5,1.3-1.1,2.5-1.8,3.6
			c-0.5,0.8-1,1.5-1.5,2.2c0.1,0.1,0.2,0.1,0.3,0.2l0,0c1.2,0.7,2.1,1.5,2.7,2.4c0.1,0.1,0.1,0.2,0.2,0.4c0.5,1,0.7,2.2,0.6,3.7
			c-0.1,1-0.2,2.1-0.5,3.1s-0.6,2.1-1,3c-0.3,0.6-0.5,1.2-0.8,1.7c0.5,1,0.8,2.2,0.9,3.4c0.1,1.8-0.4,3.8-1.2,5.9
			c-0.8,1.9-1.9,3.7-3.3,5.2c-1,1.1-2.3,1.9-4.1,2.3c-0.2,0.1-0.4,0.1-0.6,0.1l0,0l0,0h-0.2c-0.1,0-0.2,0-0.3,0.1
			c-0.2,0-0.4,0.1-0.6,0.1c-0.1,0-0.2,0-0.3,0c-0.2,0-0.5,0-0.7,0c-0.1,0-0.2,0-0.3,0c-0.3,0-0.7,0-1,0h-0.1c-1.5-0.1-3-0.4-4.3-1
			l-0.1-0.1c-0.3,0.6-0.6,1.2-1,1.7c-1,1.7-2.1,2.8-3.4,3.6l-0.1,0.1c-0.1,0.1-0.3,0.1-0.4,0.2l-0.1,0.1c-0.1,0-0.2,0.1-0.3,0.1
			l-0.1,0.1c-0.1,0-0.2,0.1-0.4,0.1h-0.1c-0.2,0-0.3,0.1-0.5,0.1l0,0h-0.1c-0.1,0-0.3,0-0.4,0.1h-0.2c-0.2,0-0.4,0.1-0.6,0.1
			c-0.7,0.1-1.5,0.1-2.3,0c-0.3,0-0.5,0-0.8-0.1c-1-0.1-2-0.3-2.9-0.6c-0.2-0.1-0.5-0.1-0.7-0.2c-0.2,1.2-0.4,2.4-0.6,3.6
			c0.5,1.1,0.6,2.3,0.4,3.4c-0.2,1.1-0.7,2-1.4,2.8c0,0.2,0,0.2-0.1,0.3c-0.2,1.1-1.1,3-4.1,3.9c-0.2,0-0.3,0.1-0.5,0.1h-0.2
			l-0.2,0.1h-0.1h-0.2l0,0c-0.1,0-0.2,0-0.3,0s-0.2,0-0.3,0.1h-0.1c-0.1,0-0.2,0-0.3,0.1l0,0l0,0c-0.1,0-0.3,0.1-0.5,0.1h-0.1
			c-0.2,0-0.4,0.1-0.6,0.1l0,0c-0.2,0-0.4,0-0.5,0h-0.2c-0.2,0-0.4,0-0.6,0c-0.1,0-0.2,0-0.3,0l-0.2,0.1c-0.3,0.2-0.7,0.5-1,0.7
			c-1,0.7-2,1.5-3,2.3c-1.3,1.1-2.4,2-3.3,2.9l0,0c-0.1,0.1-0.3,0.3-0.4,0.4l-0.1,0.1c-0.1,0.1-0.2,0.2-0.4,0.2l-0.1,0.1
			c-0.2,0.1-0.3,0.2-0.5,0.2h-0.1c-0.2,0.1-0.3,0.1-0.5,0.1h-0.1h-0.1c-0.1,0-0.3,0-0.4,0.1h-0.2c-0.2,0-0.4,0-0.6,0
			c-0.8,0-1.6-0.3-2.4-0.7l0,0c-0.8-0.4-1.5-1-2.3-1.7l0,0c-0.2-0.2-0.4-0.4-0.6-0.6c-0.7,0.9-1.6,1.4-2.5,1.6l0,0
			c-1.3,0.3-2.8,0.8-4.4,1.4c-1.7,0.6-3.3,1.3-4.9,2c-1.6,0.7-3.1,1.5-4.4,2.3c-1.5,0.8-2.2,1.5-2.6,1.9l0,0
			c-0.1,0.1-0.2,0.2-0.3,0.3l-0.1,0.1l-0.2,0.2l-0.1,0.1l-0.2,0.2l-0.1,0.1c-0.2,0.1-0.4,0.2-0.7,0.3h-0.1l-0.2,0.1h-0.1l-0.2,0.1
			h-0.1c-0.2,0.1-0.4,0.1-0.6,0.1h-0.1c-0.1,0-0.2,0-0.3,0l0,0h-0.3h-0.1h-0.2c-0.6,0-1.2-0.2-1.8-0.4c-1.2-0.5-2.2-1.4-2.9-2.6
			c-0.5-0.9-0.8-1.8-1-2.9c-0.2-1.4,0-2.6,0.5-3.7l0.1-0.2c0.7-1.2,1.9-2.4,3.5-3.7c0.2-0.1,0.3-0.3,0.5-0.4c-0.1-0.4-0.1-0.8,0-1.2
			v-0.3c0.3-1.9,0.6-4,1.1-6.3c0.4-2.3,0.9-4.6,1.4-6.9s1.1-4.6,1.6-6.8c0.3-1.2,0.6-2.3,0.9-3.3v-0.1c-0.5,0.4-1,0.7-1.5,1
			l-0.2,0.1c-0.2,0.1-0.3,0.1-0.5,0.2l-0.1,0.1c-0.1,0.1-0.3,0.1-0.4,0.2h-0.1c-0.2,0.1-0.4,0.1-0.6,0.2h-0.1
			c-0.2,0-0.3,0.1-0.5,0.1h-0.1h-0.1c-0.1,0-0.3,0-0.4,0.1h-0.2c-0.2,0-0.4,0.1-0.6,0.1c-1,0.1-2,0.2-3,0.1c-0.4,0-0.7,0-1.1-0.1
			c-1.4-0.2-2.7-0.5-4-1c-1.6-0.6-2.9-1.6-3.8-2.9c-0.9,1.7-2,3.3-3,4.8c-1.1,1.5-2.2,2.9-3.4,4c-1.3,1.3-2.5,2.3-3.7,2.9l-0.2,0.1
			c-0.2,0.1-0.3,0.1-0.5,0.2l-0.2,0.1c-0.1,0-0.3,0.1-0.4,0.1h-0.1c-0.2,0.1-0.4,0.1-0.5,0.2h-0.2c-0.2,0-0.3,0.1-0.5,0.1h-0.1h-0.1
			c-0.1,0-0.3,0-0.4,0.1h-0.2c-0.2,0-0.4,0.1-0.6,0.1c-1,0.1-2,0.2-3,0.1c-0.4,0-0.7,0-1.1-0.1c-1.4-0.2-2.7-0.5-4-1
			c-0.4-0.1-0.7-0.3-1-0.5c-0.3,1.1-0.8,2.2-1.2,3.2c-0.5,1-1.1,2-1.7,2.8c-1.3,1.8-2.9,2.4-3.9,2.6h-0.2c-0.1,0-0.2,0-0.3,0.1
			c-0.1,0-0.2,0-0.3,0c-0.1,0-0.3,0-0.4,0.1c-0.1,0-0.2,0-0.3,0c-0.2,0-0.3,0-0.5,0c-0.1,0-0.2,0-0.3,0c-0.3,0-0.5,0-0.8,0
			s-0.7,0-1,0c-0.6,0-1.3-0.1-1.9-0.2c-1.2-0.2-2.4-0.5-3.4-1c-1.4-0.7-2.5-1.7-3.1-2.9c-1.1-2-1.7-4.9-1.7-9.4c0-1.9,0-3.9,0.1-6
			c-0.7,0.3-1.4,0.7-2.2,1c-1,3.5-2,6.9-2.7,10.2c-0.9,3.9-1.8,7.9-2.7,11.9v0.1C-308.3,519.7-309.3,521.2-311.2,522.5"/>
		<path fill="#FFF2DB" d="M-223.9,516.3c-0.3-0.6-0.5-1-0.9-1.2c-0.2-0.1-0.6,0-1.2,0.1c-0.6,0.2-1.4,0.4-2.3,0.8
			c-0.9,0.4-1.9,0.9-3,1.4c-1.1,0.6-2.3,1.2-3.4,1.8c0.4-1.9,0.8-4,1.3-6.4c0.5-2.4,1-4.8,1.6-7.2c0.6-2.5,1.2-4.9,2-7.4
			c0.7-2.4,1.5-4.7,2.3-6.8c0.1-0.4,0-0.7-0.3-1s-0.8-0.6-1.3-0.8c-0.5-0.2-1-0.4-1.6-0.5c-0.6-0.1-1-0.1-1.2,0
			c-0.6,0.2-1.1,0.6-1.6,1c-0.5,0.5-0.9,0.9-1.2,1.4c-0.3,0.4-0.6,0.9-0.8,1.2c-0.2,0.4-0.2,0.6-0.1,0.7c0.1,0.1,0.2,0.1,0.4,0
			c0.2-0.1,0.4-0.2,0.6-0.2c0.2-0.1,0.3,0,0.4,0.1c0.1,0.1,0.1,0.4-0.1,1c-0.5,1.7-1.1,3.7-1.6,5.8c-0.6,2.2-1.1,4.4-1.6,6.7
			s-1,4.5-1.4,6.8c-0.4,2.2-0.8,4.3-1,6.1c0,0.4,0.2,0.8,0.6,1c0.4,0.3,1,0.4,1.5,0.5c-1.6,1-2.9,2-4.1,2.9c-1.2,1-2.1,1.9-2.6,2.7
			c-0.1,0.2-0.1,0.6-0.1,1.1c0.1,0.5,0.2,1,0.5,1.4c0.2,0.4,0.6,0.7,0.9,0.9c0.4,0.2,0.8,0,1.2-0.4c0.8-0.8,2-1.7,3.5-2.6
			c1.5-0.9,3.1-1.7,4.8-2.5s3.5-1.5,5.3-2.1c1.8-0.6,3.4-1.1,4.7-1.5c0.3-0.1,0.5-0.4,0.5-1c0-0.6,0-1.2-0.1-1.9
			C-223.4,517.7-223.6,517-223.9,516.3"/>
		<path fill="#FFF2DB" d="M-216.4,512c0.7-0.4,1.4-1.1,2-2.2c0.7-1.1,1.3-2.3,1.8-3.7c0.6-1.4,1-2.9,1.5-4.6
			c0.4-1.6,0.7-3.2,0.9-4.7s0.3-2.8,0.2-4c0-1.2-0.2-2.1-0.6-2.7c-0.3-0.5-0.8-0.9-1.5-1.3c-0.7-0.3-1.5-0.6-2.3-0.7
			c-0.8-0.1-1.6-0.2-2.4-0.1c-0.8,0.1-1.5,0.3-2,0.6c-0.7,0.5-1.4,1.3-2,2.4s-1.2,2.4-1.7,3.8c-0.5,1.4-0.9,3-1.3,4.6
			c-0.3,1.6-0.6,3.2-0.7,4.7c-0.1,1.5-0.1,2.9,0,4.1s0.4,2.2,0.8,2.9c0.2,0.3,0.6,0.6,1.3,0.8c0.7,0.2,1.4,0.3,2.2,0.4
			c0.8,0.1,1.5,0.1,2.2,0C-217.2,512.3-216.7,512.2-216.4,512 M-219.2,510.7c-0.3-0.1-0.4-0.7-0.4-1.8c0-1.1,0.2-2.4,0.4-4
			c0.3-1.6,0.6-3.3,1-5.1c0.4-1.8,0.9-3.4,1.3-5c0.5-1.5,0.9-2.8,1.4-3.7c0.4-1,0.8-1.4,1.2-1.4c0.3,0,0.4,0.6,0.4,1.7
			c0,1.1-0.2,2.4-0.5,4c-0.3,1.6-0.6,3.3-1,5.1s-0.9,3.5-1.3,5c-0.5,1.5-0.9,2.8-1.4,3.8C-218.6,510.3-219,510.8-219.2,510.7"/>
		<path fill="#FFF2DB" d="M-179.1,481.8c0-1.2-0.2-2.1-0.6-2.7c-0.3-0.5-0.8-0.9-1.5-1.3c-0.7-0.3-1.5-0.6-2.3-0.7
			c-0.8-0.1-1.6-0.2-2.4-0.1c-0.8,0.1-1.5,0.3-2,0.6c-0.7,0.5-1.4,1.3-2,2.4c-0.6,1.1-1.2,2.4-1.7,3.8c-0.5,1.4-0.9,3-1.3,4.6
			c-0.3,1.6-0.6,3.2-0.7,4.7c-0.1,1.5-0.1,2.9,0,4.1s0.4,2.2,0.8,2.9c0.2,0.3,0.7,0.6,1.3,0.8c0.7,0.2,1.4,0.3,2.2,0.4
			c0.8,0.1,1.5,0.1,2.2,0c0.7-0.1,1.2-0.2,1.5-0.3c0.7-0.4,1.4-1.1,2-2.2c0.7-1.1,1.3-2.3,1.8-3.7c0.6-1.4,1-2.9,1.5-4.6
			c0.4-1.6,0.7-3.2,0.9-4.7C-179.1,484.4-179,483-179.1,481.8 M-183.1,480.2c0,1.1-0.2,2.4-0.5,4s-0.6,3.3-1.1,5.1
			c-0.4,1.8-0.9,3.5-1.3,5c-0.5,1.5-0.9,2.8-1.4,3.8c-0.4,1-0.8,1.4-1.1,1.3c-0.3-0.1-0.4-0.7-0.4-1.8s0.2-2.4,0.4-4
			c0.3-1.6,0.6-3.3,1-5.1c0.4-1.8,0.9-3.4,1.3-5c0.5-1.5,0.9-2.8,1.4-3.7c0.4-1,0.8-1.4,1.2-1.4
			C-183.2,478.5-183.1,479.2-183.1,480.2"/>
		<path fill="#FFF2DB" d="M-165.9,472.2c-0.6-0.3-1.3-0.6-2.1-0.8c-0.8-0.2-1.6-0.3-2.3-0.3c-0.8,0-1.4,0.2-1.8,0.6
			c-0.7,0.6-1.3,1.5-2.1,2.7c-0.7,1.2-1.4,2.5-1.9,3.9c-0.5,1.4-0.9,2.7-1.1,3.9c-0.2,1.3-0.1,2.2,0.3,2.9c0.4,0.6,0.9,1,1.7,1.1
			c0.8,0.1,1.9-0.1,3.4-0.7c0.5-0.2,0.8-0.2,0.9,0.1c0.1,0.3,0.2,0.6,0.1,1.1c-0.1,0.5-0.2,1.1-0.5,1.7c-0.2,0.7-0.5,1.3-0.8,2
			c-0.3,0.7-0.5,1.2-0.8,1.8c-0.3,0.5-0.5,0.9-0.6,1.1c-0.3,0.6-0.5,0.7-0.6,0.5s-0.2-0.6-0.1-1.2c0-0.6,0.1-1.3,0.3-2.1
			c0.2-0.8,0.4-1.5,0.6-2.2c0.2-0.5,0.1-0.8-0.2-0.9c-0.3-0.2-0.8-0.2-1.3-0.2s-1.1,0.1-1.7,0.3c-0.6,0.2-1.1,0.5-1.4,0.8
			c-0.6,0.6-1,1.4-1.2,2.5c-0.2,1.1-0.1,2,0.1,2.7c0.3,0.8,0.9,1.3,1.8,1.7c0.9,0.4,1.9,0.6,2.9,0.7c1,0.1,2,0,3-0.3
			c0.9-0.2,1.6-0.6,2-1.1c1.1-1.2,2-2.6,2.6-4.1s0.9-2.9,0.9-4.1s-0.5-2.1-1.3-2.6s-2.2-0.5-4.2,0.2c-0.4,0.2-0.7,0.1-0.7-0.3
			c-0.1-0.4,0-0.9,0.1-1.6c0.2-0.7,0.4-1.5,0.7-2.3c0.3-0.9,0.6-1.7,1-2.6c0.3-0.8,0.7-1.6,1-2.2c0.3-0.6,0.5-1.1,0.6-1.3
			c0.3-0.5,0.5-0.8,0.6-0.7c0.1,0.1,0.1,0.4,0,0.9c-0.1,0.4-0.2,1-0.4,1.6c-0.2,0.6-0.4,1.3-0.6,2c-0.2,0.7-0.5,1.5-0.8,2.2
			s-0.6,1.5-0.9,2.1c-0.1,0.3,0,0.5,0.3,0.6s0.7,0.1,1.2,0s1-0.2,1.5-0.4s0.9-0.5,1.3-0.8c0.4-0.4,0.8-1,1.1-1.8s0.6-1.6,0.8-2.4
			s0.3-1.6,0.4-2.4c0-0.7,0-1.3-0.2-1.6C-164.9,473-165.3,472.7-165.9,472.2"/>
		<path fill="#FFF2DB" d="M-192.5,480.9c0.1-0.3,0.1-0.5-0.2-0.7c-0.3-0.2-0.7-0.3-1.1-0.4c-0.5-0.1-0.9-0.1-1.4-0.1
			s-0.8,0.1-1.1,0.2c-0.2,0.1-0.4,0.4-0.7,0.8c-0.3,0.5-0.5,1.1-0.8,1.9c-0.3-0.1-0.6-0.3-1-0.4c-0.4-0.2-0.8-0.3-1.2-0.4
			c-0.4-0.1-0.8-0.2-1.2-0.2s-0.7,0.1-1,0.3c-1,0.7-1.9,1.7-2.7,3c-0.8,1.4-1.5,2.9-2.1,4.5c-0.6,1.7-1.1,3.4-1.6,5.2
			c-0.4,1.8-0.8,3.5-1,5.1c-0.2,1.6-0.3,3-0.4,4.3c0,1.2,0.1,2.1,0.3,2.6c0.1,0.2,0.3,0.5,0.6,0.7s0.6,0.4,1,0.6
			c0.4,0.1,0.8,0.2,1.2,0.3c0.4,0,0.8,0,1.1-0.1l0.1-0.1l0.7-1.1c0.3-0.5,0.6-1.1,0.9-1.8c0.4-0.9,0.8-1.8,1.2-2.9
			c0.4-1.1,0.8-2.2,1.3-3.3c-0.5,2.3-0.9,4.5-1.2,6.7c-0.2,1.3-0.4,2.5-0.6,3.7l-0.2,0.1c-0.4,0.2-0.8,0.3-1.2,0.5
			c-0.6,0.3-1.3,0.7-2.1,1c-1.6,0.8-3.3,1.7-4.7,2.5c-0.5,0.3-1,0.6-1.5,0.9c-1,0.6-1.9,1.2-2.6,1.7c-0.7,0.5-1.3,1-1.8,1.5
			c-0.4,0.4-0.7,0.8-0.7,1c0,0.4,0.2,0.8,0.5,1.3s0.7,1,1.2,1.5s0.9,0.8,1.4,1.1c0.5,0.2,0.8,0.3,1,0.1c1-0.9,2.2-2,3.5-3.1
			c1-0.8,2.1-1.7,3.2-2.4c0.4-0.3,0.7-0.5,1.1-0.8c0.7-0.5,1.3-0.9,2-1.3c0.1-0.1,0.2-0.1,0.3-0.2c0,0.2,0,0.3,0,0.5
			c0.9,0.5,2.9-0.1,2.9-0.1s2.1-0.2,2.3-1.1c0-0.2,0.2-0.9,0.3-2h0.2c0.5-0.1,0.9-0.4,0.9-0.8c0.1-0.4,0-0.8-0.2-1.2
			c-0.1-0.2-0.3-0.5-0.5-0.7c0.9-5.6,2.3-14.2,2.3-14.2v0.1c0.2-1,0.4-2.1,0.6-3.3c0.3-1.4,0.6-2.9,0.9-4.2c0.3-1.4,0.7-2.7,1-3.8
			C-193.1,482.4-192.8,481.5-192.5,480.9 M-199.1,487.2c-0.3,1.2-0.6,2.5-1,3.8c-0.5,1.3-1,2.6-1.5,4.1c-0.5,1.4-1,2.8-1.5,4
			s-0.9,2.2-1.2,3s-0.5,1.1-0.6,1.1c-0.2-0.1-0.3-0.6-0.2-1.6s0.2-2.1,0.5-3.5c0.3-1.4,0.6-2.9,1.1-4.6c0.4-1.6,0.9-3.1,1.5-4.5
			c0.6-1.4,1.2-2.5,1.8-3.5c0.6-0.9,1.3-1.4,2-1.4C-198.5,485-198.8,486-199.1,487.2"/>
		<path fill="#FFF2DB" d="M-299.7,490c1.8-0.9,3.2-1.5,4.1-2c-0.4,4.8-0.6,9.1-0.6,12.8s0.4,6.2,1.2,7.5c0.2,0.4,0.6,0.8,1.3,1.1
			c0.6,0.3,1.3,0.5,2.1,0.6c0.8,0.1,1.6,0.2,2.4,0.2s1.5-0.1,2.1-0.2c0.5-0.1,1-0.5,1.5-1.1c0.5-0.6,0.9-1.3,1.3-2.1s0.7-1.7,1-2.6
			c0.3-0.9,0.5-1.8,0.7-2.7c0.1-0.7,0.1-1.1-0.2-1.1c-0.3,0-0.6,0.1-1,0.3s-0.8,0.5-1.1,0.8c-0.4,0.3-0.6,0.4-0.7,0.4
			c-0.3-0.1-0.5-1-0.6-2.8s-0.1-4,0.1-6.8c0.1-2.8,0.4-6,0.8-9.6s0.9-7.4,1.5-11.3c0.6-3.9,1.3-7.9,2.2-12c0.8-4,1.7-7.9,2.7-11.5
			c0.2-0.7-0.1-1.4-0.8-1.9c-0.7-0.5-1.5-0.9-2.5-1.2s-2-0.5-3-0.5c-1-0.1-1.7,0-2,0.2c-0.7,0.4-1.9,2-3.7,4.7
			c-1.8,2.8-3.8,6.3-6,10.5s-4.6,8.9-7.2,14c-2.5,5.2-4.9,10.3-7.1,15.6c-1.7,0.4-3.5,0.8-5.2,1.1c-1.7,0.4-3.3,0.7-4.9,0.9
			s-3,0.5-4.4,0.7c-1.3,0.2-2.5,0.3-3.4,0.3c-1.3,0.1-1.8,0.5-1.7,1.4c0.1,0.9,0.6,1.8,1.5,2.8c0.8,1,1.9,1.8,3,2.6
			c1.2,0.7,2.1,1,2.8,0.7c0.7-0.2,1.8-0.6,3.5-1.3s3.6-1.5,5.7-2.4c-2,5-3.6,9.6-4.8,13.9c-1.2,4.3-1.9,7.7-2,10.3
			c-0.1,0.7,0.3,1,1.2,1c0.9,0,1.9-0.2,3-0.7c1.1-0.4,2.2-1,3.2-1.7s1.6-1.4,1.7-2c0.9-4,1.8-8,2.7-12c0.9-4,2-8.1,3.3-12.3
			C-303.6,491.8-301.6,490.9-299.7,490 M-298.9,473.5c2.1-4.9,4.7-10.2,7.7-15.9c-0.8,3.9-1.6,8.2-2.3,12.9
			c-0.7,4.7-1.3,9.3-1.8,13.8c-0.1,0-0.3,0.1-0.4,0.2c-0.1,0.1-0.3,0.2-0.4,0.2c-0.7,0.4-1.8,0.8-3.2,1.3c-1.4,0.5-3,0.9-4.8,1.4
			C-302.8,483-301,478.5-298.9,473.5"/>
		<path fill="#FFF2DB" d="M-280.7,494.5c0.3,2.4,0.9,4.5,2,6.1c0.4,0.7,1.1,1.2,2,1.5c0.9,0.4,1.9,0.6,2.9,0.7c1,0.1,2.1,0.1,3.1,0
			c1-0.1,1.8-0.3,2.4-0.6c0.8-0.4,1.7-1.1,2.7-2.2c1-1,2-2.2,3-3.5s1.9-2.8,2.8-4.4c0.9-1.6,1.7-3.2,2.4-4.8c0.4-1,0.5-1.5,0.2-1.8
			c-0.2-0.2-0.8,0.2-1.6,1.3c-0.6,0.8-1.3,1.8-2.2,3c-0.9,1.2-1.8,2.4-2.7,3.6c-0.9,1.1-1.9,2.2-2.8,3.1c-0.9,0.9-1.8,1.5-2.5,1.6
			c-1.1,0.3-1.9-0.1-2.3-1.3c-0.4-1.1-0.6-2.8-0.5-4.8c0.1-2.1,0.5-4.4,1.1-7.1c0.6-2.7,1.3-5.3,2.2-8c0.9-2.7,1.9-5.3,3-7.7
			c1.1-2.4,2.3-4.5,3.5-6.1c0.7-0.9,1.1-1.3,1.2-1.2s0.1,0.7-0.1,1.5c-0.3,1.2-0.6,2.5-1.1,3.9s-1.1,2.8-1.7,4.3
			c-0.4,0.9-0.8,1.7-1.2,2.6c-0.4,1.2-0.3,2.2,1.3,1.7c3.1-1.1,7.5-0.8,8.7-8.6c0.1-0.8,0.1-1.5,0.2-2.2c0.1-1.7,0-3-0.3-3.9
			c-0.3-0.8-1-1.5-2.1-2c-1.1-0.5-2.4-0.9-3.8-1.2s-2.8-0.3-4.3-0.1s-2.6,0.6-3.4,1.4c-1.2,1-2.5,2.5-3.8,4.5s-2.5,4.2-3.5,6.6
			c-1.1,2.5-2,5.1-2.9,7.9c-0.8,2.8-1.4,5.6-1.8,8.3C-281,489.4-281,492-280.7,494.5"/>
		<path fill="#FFF2DB" d="M-255,485.5c0.3,2.4,0.9,4.5,2,6.1c0.4,0.7,1.1,1.2,2,1.5c0.9,0.4,1.9,0.6,2.9,0.7c1,0.1,2.1,0.1,3.1,0
			s1.8-0.3,2.4-0.6c0.8-0.4,1.7-1.1,2.7-2.2c1-1,2-2.2,3-3.5c1-1.3,1.9-2.8,2.8-4.4c0.9-1.6,1.7-3.2,2.4-4.8c0.4-1,0.5-1.5,0.2-1.8
			c-0.2-0.2-0.8,0.2-1.6,1.3c-0.6,0.8-1.3,1.8-2.2,3s-1.8,2.4-2.7,3.5s-1.9,2.2-2.8,3.1c-0.9,0.9-1.8,1.5-2.5,1.6
			c-1.1,0.3-1.9-0.1-2.3-1.3c-0.4-1.1-0.6-2.7-0.5-4.8s0.5-4.4,1.1-7.1s1.3-5.3,2.2-8s1.9-5.2,3-7.7c1.1-2.4,2.3-4.5,3.5-6.1
			c0.7-0.9,1.1-1.3,1.2-1.2c0.1,0.1,0.1,0.7,0,1.5c-0.3,1.2-0.6,2.5-1.1,3.9s-1.1,2.8-1.7,4.3c-0.4,0.8-0.8,1.7-1.1,2.5
			c-0.4,1.2-0.3,2.3,1.2,1.7c3-1,7.2-0.8,8.5-7.8c0.1-1,0.2-2,0.3-2.9c0.1-1.7,0-3-0.3-3.9c-0.3-0.8-1-1.5-2.1-2s-2.4-0.9-3.8-1.2
			c-1.4-0.3-2.8-0.3-4.3-0.1c-1.4,0.2-2.6,0.6-3.4,1.4c-1.3,1-2.5,2.5-3.8,4.5s-2.5,4.2-3.5,6.6c-1.1,2.5-2,5.1-2.9,7.9
			c-0.8,2.8-1.4,5.6-1.8,8.3C-255.2,480.5-255.3,483-255,485.5"/>
		<path fill="#FFF2DB" d="M-229.2,476.5c0.3,2.4,0.9,4.5,2,6.2c0.4,0.7,1.1,1.2,2,1.5c0.9,0.4,1.9,0.6,2.9,0.7c1,0.1,2.1,0.1,3.1,0
			c1-0.1,1.8-0.3,2.4-0.6c0.8-0.4,1.7-1.1,2.8-2.1c1-1,2-2.2,3-3.6c1-1.4,1.9-2.9,2.8-4.5c0.9-1.6,1.6-3.2,2.3-4.9
			c0.4-1,0.4-1.6,0.1-1.7c-0.3-0.1-0.7,0.3-1.4,1.3c-1,1.4-2,2.7-3,4c-1,1.3-1.9,2.5-2.8,3.5c-0.9,1-1.7,1.9-2.5,2.5
			c-0.8,0.7-1.4,1.1-1.9,1.3c-1.7,0.4-2.7-0.5-3.1-2.9c-0.3-2.4-0.2-5.4,0.4-9.2c1.1,0.4,2.4,0.8,3.7,1c1.3,0.2,2.5,0.1,3.4-0.6
			c1.5-1,2.9-2.6,4.1-5c1.3-2.4,2.3-4.9,3.2-7.5c0.9-2.7,1.6-5.2,2-7.5c0.4-2.4,0.5-4.1,0.2-5.1c-0.2-0.8-0.8-1.5-2-2.1
			c-1.1-0.6-2.4-1-3.8-1.2c-1.4-0.2-2.9-0.2-4.4,0s-2.7,0.6-3.5,1.3c-1.4,1.2-2.8,2.8-4.1,4.8s-2.5,4.3-3.6,6.8s-2.1,5.2-2.8,8
			c-0.8,2.8-1.3,5.5-1.6,8.2C-229.5,471.7-229.5,474.2-229.2,476.5 M-217.9,460.8c0.7-1.9,1.4-3.8,2.3-5.8c0.9-1.9,1.8-3.8,2.7-5.5
			c1-1.7,1.9-3.2,2.7-4.3c0.7-0.8,1.1-1.2,1.2-1.1c0.1,0.1,0.1,0.6-0.1,1.5c-0.4,1.9-1,4-1.9,6.3c-0.9,2.3-1.8,4.4-2.8,6.4
			s-2,3.7-3,5.1c-1,1.4-1.9,2.3-2.6,2.6C-219.1,464.5-218.6,462.7-217.9,460.8"/>
		<path fill="#FFF2DB" d="M-204.9,469.2c-0.3,2.4-0.4,4.1,0,5.1c0.1,0.5,0.6,1,1.3,1.6c0.7,0.6,1.5,1.1,2.4,1.5
			c0.8,0.4,1.6,0.6,2.3,0.6s1.1-0.3,1.2-0.9c0-0.3,0.1-0.6,0.2-0.7c0.5-2.3,1.2-4.8,2.1-7.8c0.9-2.9,1.9-5.9,3-9
			c1.1-3.1,2.3-6.1,3.5-9.1s2.4-5.6,3.6-8.1c-0.9,2.7-1.7,5.5-2.5,8.3c-0.8,2.9-1.5,5.6-2,8.1c-0.6,2.5-0.9,4.8-1.2,6.8
			c-0.2,2-0.2,3.4,0.1,4.3c0.2,0.5,0.5,0.9,1,1.4s1.1,0.8,1.8,1.1s1.4,0.5,2.1,0.6c0.7,0.1,1.4,0.1,2-0.1c0.5-0.2,1.1-0.6,1.6-1.3
			c0.6-0.7,1.1-1.5,1.7-2.4c0.6-0.9,1.1-1.9,1.5-3c0.4-1.1,0.8-2.1,1.2-3c0.3-0.8,0.3-1.1,0-1.1c-0.2,0-0.6,0.2-1,0.5
			c-0.4,0.3-0.8,0.6-1.2,1c-0.4,0.4-0.6,0.5-0.7,0.5c-0.3-0.2-0.4-1.1-0.1-2.6c0.3-1.6,0.7-3.5,1.2-5.8c0.6-2.3,1.2-4.8,2.1-7.5
			c0.8-2.7,1.6-5.3,2.4-7.8c0.8-2.5,1.5-4.6,2.2-6.5c0.6-1.9,1.1-3.1,1.3-3.7c0.2-0.4,0.1-0.8-0.4-1.2c-0.5-0.3-1.1-0.6-1.9-0.8
			c-0.8-0.2-1.6-0.3-2.4-0.4c-0.8,0-1.5,0-1.9,0.2h-0.1c-0.8,0.3-2,1.7-3.6,4.4c-1.6,2.6-3.3,5.9-5.1,9.8c-1.8,3.9-3.6,8.1-5.4,12.7
			c-1.8,4.6-3.3,9-4.5,13.1c0.9-4,1.9-7.7,3.1-11.3c1.2-3.6,2.3-6.8,3.4-9.7c1.1-2.9,2.1-5.4,3-7.4c0.9-2.1,1.6-3.6,2.1-4.6
			c0.3-0.5,0.2-0.9-0.4-1.2c-0.5-0.3-1.2-0.6-2.1-0.8c-0.8-0.2-1.7-0.3-2.6-0.3c-0.9,0-1.5,0-2,0.2c-0.5,0.2-1.2,1.2-2.1,3
			c-0.9,1.8-1.8,4.1-2.9,6.9c-1,2.8-2,5.8-3,9.1c-1,3.3-1.8,6.4-2.5,9.5C-204,464-204.5,466.8-204.9,469.2"/>
		<path fill="#FFF2DB" d="M-173.9,447.8c-1,4.2-1.8,7.9-2.3,11s-0.6,5.2-0.3,6.1c0.1,0.5,0.5,0.9,1,1.4s1.1,0.8,1.8,1.1
			s1.4,0.5,2.1,0.6c0.7,0.1,1.4,0.1,1.9-0.1c0.5-0.2,1.1-0.6,1.6-1.3c0.6-0.7,1.1-1.5,1.7-2.4c0.6-0.9,1.1-1.9,1.5-3
			c0.4-1.1,0.8-2.1,1.2-3c0.3-0.8,0.3-1.1,0-1.1c-0.2,0-0.6,0.2-1,0.5c-0.4,0.3-0.8,0.6-1.2,1c-0.4,0.4-0.6,0.5-0.7,0.5
			c-0.4-0.2-0.4-1.5,0-4s1.1-5.7,2.1-9.6c0.9-3.9,2.1-8.3,3.6-13.1c1.5-4.9,3.1-9.8,4.8-14.7l3.5-1.2c1-0.3,1.7-0.9,2.2-1.8
			s0.9-1.8,1.2-2.7c0.3-0.9,0.5-1.7,0.6-2.4c0.1-0.7-0.4-0.9-1.4-0.5l-3.3,1.1l1.5-3.5c0.2-0.5,0-0.9-0.5-1.3
			c-0.5-0.3-1.2-0.6-2-0.8c-0.8-0.2-1.6-0.3-2.5-0.3c-0.8,0-1.5,0-1.9,0.2c-0.5,0.2-1.2,1.1-2.1,2.8c-0.9,1.7-1.8,3.8-2.8,6.5
			l-3.4,1.2c-1,0.4-1.8,0.9-2.2,1.6c-0.5,0.7-0.8,1.5-1.1,2.4c-0.3,1-0.4,1.9-0.4,2.6c0,0.8,0.4,1,1.4,0.7l3.1-1.1
			c-1.4,4.2-2.8,8.6-4.1,13.4C-171.7,439-172.9,443.5-173.9,447.8"/>
	</g>
</g>
<g id="Layer_9">
	<g>
		<g>
			<defs>
				<rect id="SVGID_1_" y="238.5" width="960" height="83.5"/>
			</defs>
			<clipPath id="SVGID_2_">
				<use xlink:href="#SVGID_1_"  overflow="visible"/>
			</clipPath>
			<g opacity="0.44" clip-path="url(#SVGID_2_)">
				<g opacity="7.000000e-02">
					<g>
						<path fill="#231F20" d="M70.1,129.1l7.9,179L85.4,129L70.1,129.1z M75,308.4L55.6,129.1H40.2L75,308.4z M72,308.5L25.3,129.2
							H9.4L72,308.5z M69.1,309L-6,129.2h-16.7L69.1,309z M66.2,309.8L-39,129.4h-18L66.2,309.8z M63.5,310.5L-74.4,129.4h-19.7
							L63.5,310.5z M60.9,311.5l-174.3-182.1h-22.2L60.9,311.5z M58.4,312.6l-215.8-183.2h-25.7L58.4,312.6z M56.2,314l-264.4-184.4
							h-30.7L56.2,314z M54.1,315.4L-269,129.6l-38.1,0.1L54.1,315.4z M-365.4,129.8v12.1L52.3,317l-396.9-187.2H-365.4z
							 M50.7,318.5l-416-159v19.3L50.7,318.5z M49.3,320.4L-365.3,195v17.5L49.3,320.4z M48.3,322.1l-413.5-94.9v16.2L48.3,322.1z
							 M47.5,324l-412.7-66.7v15.4L47.5,324z M47,326L-365.1,286v14.8L47,326z M46.7,327.9l-411.9-14v14.6L46.7,327.9z M46.8,329.9
							l-411.9,11.6v14.7L46.8,329.9z M47.2,331.8L-365,369.2v15L47.2,331.8z M47.8,333.6L-365,397.8v15.7L47.8,333.6z M48.7,335.5
							L-365,427.7v16.7L48.7,335.5z M49.9,337.2L-365,459.7v18.2L49.9,337.2z M51.4,339l-416.3,155.5v20.3L51.4,339z M53.1,340.5
							l-418,193v23.3L53.1,340.5z M55,342l-419.8,236.4V606L55,342z M57.2,343.5l-421.9,288.2v33.7L57.2,343.5z M59.5,344.6
							l-424.2,352.2V721h20.3L59.5,344.6z M62,345.8L-306,721l43.4-0.1L62,345.8z M64.7,346.6l-292.9,374.1l39-0.1L64.7,346.6z
							 M67.5,347.4l-225.3,373.3h35.9L67.5,347.4z M70.4,348L-92.5,720.5h33.8L70.4,348z M73.3,348.4L-30.6,720.5H1.9L73.3,348.4z
							 M76.3,348.5L29.2,720.5h31.9L76.3,348.5z M119.8,720.3L79.4,348.5L88,720.3H119.8z M82.4,348.4L147,720.2h32.4L82.4,348.4z
							 M85.3,348l121.9,372.2h33.6L85.3,348z M88.2,347.5L270,720.2h35.6L88.2,347.5z M91,346.8L336.7,720l38.5-0.1L91,346.8z
							 M93.7,345.9L409.2,720l42.7-0.1L93.7,345.9z M96.2,344.8l393.4,375.1l48.5-0.1L96.2,344.8z M98.6,343.5l482.7,376.1l56.7-0.1
							L98.6,343.5z M100.8,342.1l588.1,377.4l68.5-0.1L100.8,342.1z M102.8,340.8l716.8,378.7l86.1-0.1L102.8,340.8z M104.5,339.1
							L960,708.3l-0.1-42.5L104.5,339.1z M106,337.5l853.9,296v-38L106,337.5z M107.2,335.6L959.8,566v-34.8L107.2,335.6z
							 M108.2,333.9L959.8,504v-32.6L108.2,333.9z M108.8,332l850.9,113.4v-31.1L108.8,332z M109.2,330l850.4,59.2v-30.3L109.2,330z
							 M109.3,328l850.2,6.1V304L109.3,328z M109.1,326.1l850.4-46.9v-30.5L109.1,326.1z M108.6,324.1l850.8-100.7V192L108.6,324.1z
							 M107.9,322.4l851.5-156.7v-33.1L107.9,322.4z M106.8,320.5l759.8-192.4l-108.2,0.1L106.8,320.5z M105.5,318.8l580.6-190.4
							l-71.5,0.1L105.5,318.8z M104,317l459.5-188.6l-51.5,0.1L104,317z M102.2,315.5l371.1-186.9l-39.4,0.1L102.2,315.5z
							 M100.1,314l302.8-185.4h-31.6L100.1,314z M97.9,312.8l247.7-184h-26.3L97.9,312.8z M95.5,311.6l201.8-182.8h-22.6L95.5,311.6
							z M92.9,310.6L255.1,129h-20L92.9,310.6z M90.2,309.8l127.2-180.8h-18.2L90.2,309.8z M87.3,309.1l95.5-180.1h-16.9L87.3,309.1
							z M84.4,308.6l66.1-179.6h-16L84.4,308.6z M81.4,308.4l38.1-179.2H104L81.4,308.4z"/>
					</g>
				</g>
			</g>
		</g>
	</g>
</g>
</svg>
