<?xml version="1.0" encoding="utf-8"?>
<!-- Generator: Adobe Illustrator 18.0.0, SVG Export Plug-In . SVG Version: 6.00 Build 0)  -->
<!DOCTYPE svg PUBLIC "-//W3C//DTD SVG 1.1//EN" "http://www.w3.org/Graphics/SVG/1.1/DTD/svg11.dtd">
<svg version="1.1" id="Layer_1" xmlns="http://www.w3.org/2000/svg" xmlns:xlink="http://www.w3.org/1999/xlink" x="0px" y="0px"
	 viewBox="0 443.6 960 140.4" enable-background="new 0 443.6 960 140.4" xml:space="preserve">
<rect x="-1.7" y="443.6" fill="#00A8A6" width="962.9" height="140.4"/>
<path fill="#049B93" d="M95.6,443.6h-0.8l3,21.6L95.6,443.6z M91,443.6h-0.8l4.6,22.8L91,443.6z M86,443.6h-1l6.6,24.4L86,443.6z
	 M80.8,443.6h-1.2l9.2,26.5L80.8,443.6z M75,443.6h-1.4L86,472.7L75,443.6z M68.4,443.6h-1.8l16.8,32L68.4,443.6z M60.8,443.6h-2.4
	L81,479L60.8,443.6z M51.8,443.6h-3.2l30.3,39.1L51.8,443.6z M40.5,443.6H36l40.9,43.1L40.5,443.6z M25.9,443.6h-6.8l56,47.4
	L25.9,443.6z M5.7,443.6h-7.4v2.3l75.5,49.7L5.7,443.6z M-1.7,457.1v7.2l74.3,36L-1.7,457.1z M-1.7,474.9v6.8l73.5,23.5L-1.7,474.9z
	 M-1.7,491.8v6.5l72.9,11.9L-1.7,491.8z M-1.7,508.3v6.4l72.6,0.6L-1.7,508.3z M-1.7,524.5v6.4L71,520.3L-1.7,524.5z M-1.7,540.9
	v6.6l73-22.1L-1.7,540.9z M-1.7,557.8v6.9L72,530.4L-1.7,557.8z M-1.7,575.4v7.4L73,535.2L-1.7,575.4z M12.6,584h8.1l53.5-44.1
	L12.6,584z M32.2,584h5.1l38.5-39.6L32.2,584z M46.1,584h3.4l28-35.4L46.1,584z M56.6,584H59l20.5-31.5L56.6,584z M65.1,584h1.8
	l15-27.9L65.1,584z M72.1,584h1.3l10.8-24.7L72.1,584z M78.1,584h1l7.8-21.9L78.1,584z M83.5,584h0.8l5.4-19.4L83.5,584z M88.3,584
	H89l3.7-17.5L88.3,584z M92.8,584h0.6l2.3-16L92.8,584z M97.1,584h0.5l1.2-14.9L97.1,584z M101.2,584h0.5l0.3-14.4L101.2,584z
	 M105.2,569.7l0.1,14.3h0.5L105.2,569.7z M108.3,569.3l1,14.7h0.5L108.3,569.3z M111.5,568.3l2,15.7h0.6L111.5,568.3z M114.5,567
	l3.3,17h0.7L114.5,567z M117.5,565.1l4.9,18.9h0.8L117.5,565.1z M120.3,562.8l7.1,21.2h1L120.3,562.8z M123,560l10,24h1.2L123,560z
	 M125.5,556.9l13.8,27.1h1.6L125.5,556.9z M127.8,553.4l19,30.6h2.2L127.8,553.4z M129.9,549.6l25.9,34.4h3.1L129.9,549.6z
	 M131.8,545.4l35.5,38.6h4.6L131.8,545.4z M133.4,541l49.2,43h7.2L133.4,541z M134.7,536.4l69.7,47.6h12.2L134.7,536.4z
	 M135.7,531.6L239,584h23.8L135.7,531.6z M136.5,526.7L303.8,584h60.3L136.5,526.7z M136.9,521.6L475,584h311.3L136.9,521.6z
	 M137,516.5l824.2,24.6v-72.3L137,516.5z M455.2,443.6l-318.4,67.8l545.6-67.8H455.2z M305.1,443.6l-168.7,62.8L360,443.6H305.1z
	 M243,443.6l-107.5,57.9l130.8-57.9H243z M208.6,443.6l-74.1,53.1l86.6-53.1H208.6z M186.4,443.6l-53.3,48.5l60.8-48.5H186.4z
	 M170.6,443.6l-39.2,44.2l44.1-44.2H170.6z M158.7,443.6l-29.1,40.1l32.6-40.1H158.7z M149.2,443.6l-21.7,36.3l24.3-36.3H149.2z
	 M141.3,443.6l-16.2,32.8l18.1-32.8H141.3z M134.5,443.6l-12,29.8l13.5-29.8H134.5z M128.5,443.6l-8.7,27.1l9.9-27.1H128.5z
	 M123.2,443.6l-6.2,24.9l7.2-24.9H123.2z M118.2,443.6l-4.2,23.1l5.1-23.1H118.2z M113.5,443.6l-2.5,21.8l3.3-21.8H113.5z
	 M108.9,443.6l-1.1,21l1.9-21H108.9z M104.5,443.6l0.1,20.7l0.6-20.7H104.5z M100.7,443.6H100l1.4,20.8L100.7,443.6z"/>
</svg>
