<?xml version="1.0" encoding="utf-8"?>
<!-- Generator: Adobe Illustrator 18.0.0, SVG Export Plug-In . SVG Version: 6.00 Build 0)  -->
<!DOCTYPE svg PUBLIC "-//W3C//DTD SVG 1.1//EN" "http://www.w3.org/Graphics/SVG/1.1/DTD/svg11.dtd">
<svg version="1.1" id="Layer_1" xmlns="http://www.w3.org/2000/svg" xmlns:xlink="http://www.w3.org/1999/xlink" x="0px" y="0px"
	 viewBox="250.5 93.5 459 373" enable-background="new 250.5 93.5 459 373" xml:space="preserve">
<g>
	<g>
		<path fill="#1D7AA2" d="M2112.3-539.7v-446.2c0-12.6-10.2-22.8-22.8-22.8h-40.7h-372.8h-40.7c-12.6,0-22.7,10.1-22.8,22.7v405.6
			l0,40.7c0,12.6,10.2,22.8,22.8,22.8h252.2v-197.4h-65.1v-68h65.1v-73.9c0-44.3,40.1-74,72.5-74h72.9v61.9h-33.6
			c-16.6,0-38.6,13.5-38.6,30v56h65.7v68h-65.7v197.4h88.1h40.7C2102.1-516.9,2112.3-527.1,2112.3-539.7z"/>
	</g>
</g>
<path fill="#FCB615" d="M709.5,137.7c-16.9,7.5-35,12.6-54.1,14.8c19.4-11.7,34.4-30.1,41.4-52.1c-18.2,10.8-38.3,18.6-59.8,22.8
	c-17.2-18.3-41.7-29.7-68.7-29.7c-52,0-94.2,42.2-94.2,94.2c0,7.4,0.8,14.6,2.4,21.5c-78.3-3.9-147.6-41.4-194.1-98.4
	c-8.1,13.9-12.7,30.1-12.7,47.3c0,32.7,16.6,61.5,41.9,78.4c-15.4-0.5-29.9-4.7-42.7-11.8c0,0.4,0,0.8,0,1.2
	c0,45.6,32.5,83.7,75.5,92.3c-7.9,2.1-16.2,3.3-24.8,3.3c-6.1,0-12-0.6-17.7-1.7c12,37.4,46.8,64.6,88,65.4
	c-32.2,25.3-72.8,40.3-116.9,40.3c-7.6,0-15.1-0.4-22.5-1.3c41.7,26.7,91.2,42.3,144.3,42.3c173.2,0,267.9-143.5,267.9-267.9
	c0-4.1-0.1-8.1-0.3-12.2C680.9,173.1,696.9,156.5,709.5,137.7z"/>
<g>
	<g>
		<path fill="#D2E4EC" d="M8933.3,659.2H5763.2c-97.7,0-177-79.2-177-177v-599.5c0-97.7,79.2-177,177-177h3170.2
			c97.7,0,177,79.2,177,177v599.5C9110.3,579.9,9031.1,659.2,8933.3,659.2z"/>
	</g>
	<g>
		<path fill="#FFFFFF" d="M6540.9-72.5h317.7v96.6h-200.2v119h187.1V239h-187.1v209.5h-117.5L6540.9-72.5L6540.9-72.5z"/>
		<path fill="#FFFFFF" d="M6947.6-65.6c37.9-6.2,93.5-10.8,156.9-10.8c77.3,0,131.4,11.6,168.5,41c31.7,24.7,48.7,61.8,48.7,109.8
			c0,65.7-47.1,111.3-92,127.6v2.3c36.3,14.7,56.4,48.7,69.6,96.6c16.2,59.5,31.7,127.5,41.7,147.6h-120.6
			c-7.7-15.5-20.9-57.2-35.6-121.4c-14.7-65.7-37.1-82.7-85.8-83.5h-34.8v204.9h-116.7L6947.6-65.6L6947.6-65.6z M7064.3,158.6h46.4
			c58.7,0,93.5-29.4,93.5-75c0-47.2-32.5-71.9-86.6-71.9c-28.6,0-44.8,1.5-53.3,3.9L7064.3,158.6L7064.3,158.6z"/>
		<path fill="#FFFFFF" d="M7716,228.2h-191.7v123.7h214.1v96.6h-331.6v-521h320.8v96.6h-203.3v108.2H7716V228.2z"/>
		<path fill="#FFFFFF" d="M8128.9,228.2h-191.7v123.7h214.1v96.6h-331.6v-521h320.8v96.6h-203.3v108.2h191.7L8128.9,228.2
			L8128.9,228.2z"/>
	</g>
</g>
<path fill="#64B6E6" d="M1931.9,2232.4c0,3.1,0,2610.4,0,2613.5c-5,561.3-461.6,491.6-1024,491.6c-561.1,0-1016.9,71.8-1024-487.6
	c-0.1-4.4-0.1-2613-0.1-2617.4c0-565.6,458.5-1024.1,1024.1-1024.1S1931.9,1666.8,1931.9,2232.4z"/>
<path fill="#1D7AA2" d="M-1248.8,1683.7c0,3.1,0,3406.5,0,3409.6c-5,561.3-461.6,491.6-1024,491.6c-561.1,0-1016.9,71.8-1024-487.6
	c-0.1-4.4-0.1-3409.2-0.1-3413.6c0-565.6,458.5-1024.1,1024.1-1024.1S-1248.8,1118.2-1248.8,1683.7z"/>
<image overflow="visible" width="276" height="211" xlink:href="logo.png"  transform="matrix(2.6522 0 0 2.6522 -1066 -295.7583)">
</image>
</svg>
